<?xml version="1.0" encoding="UTF-8" standalone="no"?>
<!-- Created with Inkscape (http://www.inkscape.org/) -->

<svg
   width="512"
   height="512"
   viewBox="0 0 512 512"
   version="1.1"
   id="svg5"
   inkscape:version="1.1.1 (3bf5ae0d25, 2021-09-20)"
   sodipodi:docname="ikona.svg"
   xmlns:inkscape="http://www.inkscape.org/namespaces/inkscape"
   xmlns:sodipodi="http://sodipodi.sourceforge.net/DTD/sodipodi-0.dtd"
   xmlns="http://www.w3.org/2000/svg"
   xmlns:svg="http://www.w3.org/2000/svg">
  <sodipodi:namedview
     id="namedview7"
     pagecolor="#ffffff"
     bordercolor="#666666"
     borderopacity="1.0"
     inkscape:pageshadow="2"
     inkscape:pageopacity="0.0"
     inkscape:pagecheckerboard="0"
     inkscape:document-units="px"
     showgrid="false"
     inkscape:zoom="1.3155765"
     inkscape:cx="256.16146"
     inkscape:cy="256.16146"
     inkscape:window-width="1661"
     inkscape:window-height="962"
     inkscape:window-x="1966"
     inkscape:window-y="19"
     inkscape:window-maximized="0"
     inkscape:current-layer="layer1" />
  <defs
     id="defs2" />
  <g
     inkscape:label="Vrstva 1"
     inkscape:groupmode="layer"
     id="layer1">
    <rect
       style="fill:#ffffff;fill-rule:evenodd"
       id="rect1186"
       width="514.60327"
       height="517.6438"
       x="-0.76012301"
       y="-1.520246" />
    <ellipse
       style="fill:#000000;fill-rule:evenodd;stroke:#000000;stroke-width:1.0913"
       id="path1555"
       cx="240.95898"
       cy="241.33907"
       rx="240.91335"
       ry="234.45232" />
    <ellipse
       style="fill:#ffffff;fill-rule:evenodd;stroke:#000000;stroke-width:1.2711"
       id="path1703"
       cx="292.2673"
       cy="226.51666"
       rx="203.95747"
       ry="199.77679" />
    <path
       style="fill:#ffffff;fill-opacity:1;fill-rule:nonzero;stroke:none"
       id="path1851"
       d="m 369.6076,52.669799 c 3.05862,1.772909 5.93619,3.815068 8.87732,5.769098 0.34619,0.249166 0.69237,0.498332 1.03856,0.747498 8.69876,6.213705 17.48626,-6.088193 8.78751,-12.301898 v 0 c -0.49072,-0.34865 -0.98143,-0.697299 -1.47214,-1.045948 -3.27384,-2.165046 -6.47761,-4.432892 -9.88926,-6.384347 -9.34483,-5.191577 -16.68683,8.02402 -7.34199,13.215597 z" />
    <path
       style="fill:#ffffff;fill-opacity:1;fill-rule:nonzero;stroke:none"
       id="path1886"
       d="m 361.31584,46.279302 c 4.09124,1.534195 8.11965,3.223022 12.15544,4.896279 3.53122,1.442932 7.03718,2.940111 10.56938,4.378714 2.56605,1.178911 5.14228,2.316004 7.81835,3.225881 1.73917,0.574495 3.30879,1.49728 4.92762,2.342467 1.76555,0.968091 3.31323,2.25715 4.93957,3.431687 2.0939,1.24556 3.78677,2.990633 5.66782,4.513811 1.78647,1.502937 3.45622,3.12849 5.18717,4.691355 2.8691,2.371474 5.26206,5.2594 7.62852,8.116662 2.70719,3.149014 5.16132,6.492356 7.60245,9.847295 2.20942,3.290855 4.50772,6.52045 6.76492,9.778727 2.08695,2.89473 4.25455,5.73022 6.39744,8.58367 2.07215,2.69326 4.09713,5.42676 6.18506,8.10856 1.54879,2.43647 3.37858,4.64261 5.23188,6.84484 2.26273,2.35775 4.44208,4.79232 6.60754,7.23894 1.27047,1.70161 2.59457,3.37734 3.67326,5.21058 1.56534,3.00406 3.03728,6.05433 4.56485,9.07753 1.2285,2.17253 2.32796,4.40626 3.23199,6.7306 1.26312,3.03071 2.74978,5.93086 4.37861,8.77868 1.17046,1.78407 1.89578,3.80315 2.71186,5.76363 1.11227,2.49389 2.01769,5.06325 2.89837,7.64483 1.27146,3.626 2.40364,7.30292 3.34282,11.02899 0.66859,3.27883 1.28967,6.57073 1.65384,9.89901 0.26921,2.55208 0.29505,5.11945 0.31556,7.6828 0.0104,3.013 9.3e-4,6.02603 -0.003,9.03904 -0.004,2.68999 -0.005,5.37999 -0.006,8.06998 -5.1e-4,2.96664 -3.5e-4,5.93328 -3.3e-4,8.89992 0.22119,5.6273 0.8386,11.22908 1.18789,16.85037 0.38446,4.21224 0.75685,8.424 0.96596,12.64898 0.15473,3.22838 0.16784,6.45152 -0.0626,9.67446 -0.37109,2.63068 -0.77895,5.2495 -1.38357,7.83749 -0.61637,2.57524 -1.51929,5.08576 -2.43906,7.5687 -1.00147,2.2192 -2.04845,4.41477 -3.11898,6.60099 -0.58322,1.28934 -0.93408,2.63189 -1.77503,3.77861 -1.39506,2.03225 -2.5108,4.22905 -3.6532,6.4073 -1.34714,2.96309 -2.74195,5.89635 -4.22834,8.79457 -1.61914,2.71841 -2.76067,5.67537 -4.16701,8.49868 -1.2772,2.67944 -2.53299,5.37657 -3.68626,8.11405 -0.52362,1.25236 -0.99227,2.52577 -1.48762,3.78925 -0.21463,0.54746 -0.3565,1.18661 -0.75781,1.64421 -0.5911,1.13161 -0.96957,1.88417 -2.04881,2.49102 -1.14778,0.89056 -2.41369,1.60035 -3.66612,2.32752 -9.24364,5.36969 -1.64976,18.44217 7.59388,13.07249 v 0 c 1.67031,-0.97085 3.34179,-1.94688 4.88473,-3.11599 2.5616,-1.92589 4.7629,-4.12606 6.21337,-7.01919 1.3343,-2.34378 2.25885,-4.84674 3.2182,-7.36184 1.01512,-2.46092 2.15292,-4.87585 3.30427,-7.27287 1.34485,-2.75982 2.49299,-5.61584 4.05205,-8.26969 1.46793,-2.86369 2.8669,-5.75612 4.17553,-8.69255 0.87474,-1.68389 1.72161,-3.38419 2.78936,-4.9571 1.15426,-1.75657 2.15633,-3.58265 2.81826,-5.58352 1.29713,-2.65281 2.5836,-5.31171 3.73086,-8.03411 1.12465,-3.08167 2.23466,-6.18816 2.97977,-9.38587 0.76597,-3.35766 1.33078,-6.75304 1.73254,-10.17383 0.26436,-3.82586 0.271,-7.65334 0.081,-11.48454 -0.2146,-4.28734 -0.57255,-8.56331 -0.97648,-12.83676 -0.33122,-5.30883 -0.87979,-10.60078 -1.15867,-15.91093 -2e-5,-2.96528 -1.8e-4,-5.93056 3.2e-4,-8.89584 7.1e-4,-2.68431 0.002,-5.36861 0.006,-8.05291 0.004,-3.06111 0.0141,-6.12226 0.003,-9.18337 -0.0256,-3.08328 -0.0747,-6.17055 -0.40865,-9.23912 -0.4564,-4.01765 -1.17342,-8.00092 -2.02829,-11.95206 -1.05558,-4.10872 -2.27161,-8.17663 -3.68446,-12.17754 -0.98947,-2.90046 -2.01714,-5.78457 -3.25656,-8.59013 -1.06101,-2.53367 -2.04752,-5.12266 -3.53906,-7.44333 -1.26074,-2.20404 -2.44701,-4.42031 -3.41898,-6.77118 -1.08505,-2.77044 -2.35501,-5.45985 -3.82172,-8.05084 -1.69412,-3.35162 -3.30696,-6.74417 -5.09937,-10.04553 -1.58582,-2.6082 -3.41056,-5.07196 -5.31858,-7.45214 -2.09268,-2.35763 -4.17573,-4.72874 -6.38315,-6.97996 -1.74103,-2.04745 -3.39897,-4.13261 -4.86606,-6.39565 -2.04232,-2.58768 -3.98753,-5.25691 -5.99992,-7.86713 -2.0279,-2.699912 -4.07658,-5.384593 -6.06058,-8.116909 -2.32484,-3.352626 -4.68441,-6.680645 -6.96644,-10.062435 -2.63493,-3.620069 -5.29276,-7.221863 -8.208,-10.624797 -2.86195,-3.423112 -5.75313,-6.874896 -9.1956,-9.736289 -1.94289,-1.68298 -3.73768,-3.539488 -5.74018,-5.160277 -2.10278,-1.691936 -4.0011,-3.640856 -6.34034,-5.026499 -2.21738,-1.584368 -4.33785,-3.319143 -6.77958,-4.564494 -2.32144,-1.207493 -4.62579,-2.452696 -7.12054,-3.273383 -2.3833,-0.771861 -4.6133,-1.906325 -6.91141,-2.890111 -3.50393,-1.425482 -6.98025,-2.91358 -10.4834,-4.34341 -4.50744,-1.86555 -8.99888,-3.773383 -13.59689,-5.409557 -10.23927,-3.071781 -14.58343,11.408733 -4.34416,14.480513 z" />
    <ellipse
       style="fill:#ffffff;fill-rule:evenodd;stroke:#000000;stroke-width:1.01951"
       id="path2023"
       cx="302.52896"
       cy="230.69734"
       rx="61.560211"
       ry="59.659904" />
    <path
       style="fill:#000000;fill-opacity:1;fill-rule:nonzero;stroke:none"
       id="path2138"
       d="m 278.78449,288.35372 c -2.31174,2.82367 -4.08173,6.00717 -5.51064,9.35083 -1.12915,3.08992 -1.77894,6.32598 -2.62476,9.50117 -0.36589,1.66384 -0.83039,3.30205 -1.23808,4.95495 -0.40092,1.62545 -0.10927,0.88914 -0.4766,1.73649 -0.80809,2.3482 -1.68596,4.66822 -2.45094,7.0312 -0.81969,2.62333 -1.58946,5.25986 -2.31588,7.91051 -0.51385,2.41127 -1.15942,4.78433 -1.55075,7.22072 -0.10143,1.37233 -0.48276,1.99068 -0.99956,3.42453 -0.48534,1.666 -1.25702,3.21632 -1.9679,4.79154 -1.08567,2.72428 -1.76089,5.58795 -2.43342,8.43544 -0.72343,3.29951 -1.4798,6.58668 -1.97812,9.9292 -0.40925,3.24957 -0.84786,6.48951 -1.08905,9.75734 -0.19745,3.00105 -0.21745,6.00977 -0.23173,9.01609 -0.14124,3.83494 0.0979,7.63347 0.64132,11.42853 0.44825,2.98894 1.11606,5.94024 1.74369,8.89529 0.60201,2.84873 1.83027,5.48593 2.94501,8.15438 1.05687,2.36215 2.4939,4.51564 4.12162,6.51593 -0.0348,-0.0235 -0.10694,-0.11225 -0.10441,-0.0704 0.0325,0.53838 2.30789,3.40185 2.7979,4.03093 1.41404,2.14376 3.42111,3.71357 5.53591,5.11069 2.30256,1.61283 4.84105,2.81141 7.45118,3.82722 1.71452,0.45587 3.15455,1.53557 4.78426,2.18179 0.71524,0.28361 1.4502,0.51467 2.1753,0.77201 3.94615,1.6847 8.16836,2.35325 12.39916,2.84556 2.77812,0.19489 5.5265,0.65357 8.29552,0.93742 2.2047,0.19948 4.41945,0.21837 6.63135,0.23079 2.75867,0.11468 5.48685,-0.0936 8.20481,-0.55618 2.91561,-0.58565 5.70535,-1.59534 8.45472,-2.70375 2.8611,-1.11771 5.22236,-3.04874 7.47846,-5.07831 1.51909,-1.24495 2.91584,-2.62623 4.3965,-3.91507 1.47507,-1.07166 2.73665,-2.40008 4.14027,-3.56254 1.90202,-1.54435 3.42064,-3.40068 4.71732,-5.46753 1.44653,-2.52036 2.41004,-5.27695 3.20031,-8.06215 0.74782,-2.39942 0.74312,-4.9143 1.04619,-7.37969 0.30287,-2.23032 0.52047,-4.469 0.63772,-6.71643 0.0921,-2.20906 0.0875,-4.42061 0.0901,-6.63114 0.0318,-2.74172 -0.33703,-5.4701 -1.02259,-8.11992 -0.63542,-1.98388 -1.39382,-3.9305 -2.00686,-5.9199 -0.70467,-2.46109 -1.83323,-4.76756 -2.69962,-7.16832 -1.02312,-2.02576 -1.82306,-4.11692 -2.57695,-6.24962 -0.45388,-1.13559 -0.68145,-2.31754 -0.77556,-3.52951 -0.25124,-1.57896 -0.58887,-3.13099 -0.70662,-4.72657 -0.28843,-2.55612 -1.01336,-4.99351 -1.99003,-7.36317 -1.14481,-2.35819 -2.18262,-4.76553 -3.21558,-7.17426 -0.82746,-1.98876 -1.67962,-3.97182 -2.58784,-5.9262 -0.939,-1.68793 -1.59711,-3.48673 -2.31321,-5.27052 -0.88548,-2.06996 -1.55277,-4.21874 -2.36899,-6.31621 -0.64307,-2.05118 -1.93503,-3.80951 -2.80145,-5.74984 -1.0852,-2.20687 -2.43644,-3.82679 -4.27456,-5.48378 -1.10596,-1.01693 -2.23919,-1.95994 -3.18284,-3.12707 -1.05012,-0.87919 -1.31542,-1.68485 -1.86269,-2.8358 -0.48665,-1.15343 -0.647,-2.40333 -0.9609,-3.61402 -0.61168,-1.33466 -0.97959,-2.69035 -1.36779,-4.08527 -0.29298,-1.02756 -0.11647,-0.43842 -0.54631,-1.76232 -3.35809,-10.14897 -17.71091,-5.39991 -14.35281,4.74906 v 0 c 0.25873,0.75119 0.1257,0.33553 0.38705,1.2508 0.36922,1.01381 0.60442,3.04826 1.27781,3.88689 0.0508,0.0633 -0.0209,-0.16104 -0.0313,-0.24155 0.55418,2.13317 0.91844,4.32783 1.94206,6.31059 1.01959,2.14248 2.10117,4.27713 3.83813,5.94424 1.45685,1.7554 3.09226,3.29768 4.79655,4.80682 1.23194,1.09219 0.68365,0.66909 0.26342,0.0938 -0.0715,-0.0979 -0.29141,-0.34927 -0.17385,-0.31954 0.1261,0.0319 0.14394,0.21683 0.21022,0.32874 0.46585,0.78657 0.20916,0.52359 0.48065,0.78866 0.76631,1.5121 1.67295,2.94801 2.26986,4.5426 0.85064,2.18555 1.53516,4.43042 2.47535,6.58202 0.86591,1.98487 1.53981,4.0584 2.61408,5.95383 0.85807,1.78626 1.60924,3.62686 2.37503,5.4526 1.03257,2.40776 2.06367,4.81879 3.21486,7.17258 0.40467,0.82824 0.62035,1.71375 0.81445,2.6033 0.136,1.64445 0.30757,3.30096 0.72156,4.90168 0.23895,2.46219 0.70161,4.89048 1.58312,7.21184 0.77891,2.18571 1.526,4.38571 2.64236,6.43034 0.82519,2.20758 1.82052,4.35133 2.50595,6.61035 0.56821,1.70348 1.16186,3.43678 1.76713,5.10608 0.37922,1.37342 0.54425,2.80887 0.52063,4.23909 -0.002,1.96238 0.004,3.92561 -0.0709,5.8869 -0.094,1.959 -0.31344,3.90666 -0.56909,5.85082 -0.16788,1.65781 -0.1876,3.33827 -0.58361,4.9648 -0.38049,1.43269 -0.87374,2.83328 -1.50393,4.17425 -0.51398,0.87658 -0.30925,0.70886 -1.50576,1.76809 -1.4949,1.24446 -2.8534,2.63698 -4.41575,3.79698 -1.547,1.35061 -3.01248,2.7892 -4.59894,4.09478 -0.9264,0.84326 -1.82489,1.77074 -2.9936,2.27218 -1.78874,0.72114 -3.58287,1.42279 -5.47198,1.84482 -1.8039,0.36176 -3.61589,0.37069 -5.45181,0.31875 -1.73028,-0.009 -3.46279,-0.0154 -5.18869,-0.15384 -2.70442,-0.27046 -5.3867,-0.73788 -8.10059,-0.91638 -3.23916,-0.36349 -6.42445,-0.8401 -9.42456,-2.19623 -0.78467,-0.14464 -1.4258,-0.56956 -2.13788,-0.92403 -1.36505,-0.67951 -2.74763,-1.30196 -4.18793,-1.80702 -1.66409,-0.57471 -3.21403,-1.43271 -4.66041,-2.432 -0.85385,-0.43986 -1.285,-0.91481 -1.86805,-1.82447 -1.20876,-1.28749 -1.84764,-2.99787 -2.99925,-4.32918 -0.51429,-0.67718 -1.22303,-1.62099 -1.66454,-2.53471 -0.75652,-1.7943 -1.62642,-3.55032 -2.09711,-5.44859 -0.56102,-2.62991 -1.15918,-5.25599 -1.56844,-7.91451 -0.44884,-3.05399 -0.61172,-6.10107 -0.48535,-9.19029 0.0124,-2.66453 0.0248,-5.3313 0.19214,-7.99157 0.20674,-2.90277 0.61665,-5.77732 0.96956,-8.66443 0.41722,-2.93117 1.13568,-5.80094 1.74506,-8.69606 0.43061,-1.90331 0.92328,-3.79563 1.49756,-5.66073 0.86575,-1.9385 1.79432,-3.85385 2.41156,-5.8926 0.71824,-2.0161 1.52674,-4.04113 1.70394,-6.19307 0.27583,-1.88656 0.86298,-3.70266 1.20018,-5.57702 0.65437,-2.42716 1.37001,-4.83478 2.11511,-7.23535 0.74925,-2.32743 1.63132,-4.60561 2.4151,-6.92165 0.77098,-2.48731 1.36956,-5.02151 1.97254,-7.55509 0.67082,-2.51825 1.24673,-5.06245 1.96571,-7.5647 0.78886,-1.9773 1.86096,-3.82231 3.17508,-5.50043 6.84364,-8.21237 -4.77041,-17.89074 -11.61405,-9.67837 z" />
    <path
       style="fill:#000000;fill-opacity:1;fill-rule:nonzero;stroke:none"
       id="path2140"
       d="m 286.83347,302.70962 c 2.77887,2.29162 6.05907,3.74239 9.46574,4.81167 2.45354,0.6419 4.92406,1.87218 7.54182,1.52132 1.20739,-0.16183 2.33053,-0.71035 3.4958,-1.06552 1.95862,-1.28779 1.0895,-0.61474 2.64231,-1.9732 7.82889,-7.27922 -2.46548,-18.35094 -10.29436,-11.07172 v 0 c 0.37615,-0.21181 0.10771,-0.0623 0.81152,-0.43708 3.1914,-0.70441 1.52167,-0.65601 4.12166,-0.27451 0.13509,0.0198 -0.26948,-0.0478 -0.4002,-0.0872 -1.19761,-0.36093 -2.38227,-0.76415 -3.58886,-1.09692 -1.47832,-0.37928 -2.89395,-1.02097 -4.11705,-1.94088 -8.21237,-6.84364 -17.89075,4.77041 -9.67838,11.61405 z" />
    <path
       style="fill:#000000;fill-opacity:1;fill-rule:nonzero;stroke:none"
       id="path2142"
       d="m 289.54552,300.20826 c 3.29255,0.76894 6.65623,1.10354 10.02251,1.3307 0.45652,0.0474 0.91303,0.0948 1.36955,0.14226 10.63634,1.07089 12.15081,-13.97116 1.51447,-15.04205 v 0 c -0.6269,-0.0617 -1.2538,-0.12332 -1.8807,-0.18498 -2.60113,-0.16993 -5.20271,-0.40391 -7.74625,-1.00403 -10.43555,-2.31901 -13.71513,12.43909 -3.27958,14.7581 z" />
    <path
       style="fill:#000000;fill-opacity:1;fill-rule:nonzero;stroke:none"
       id="path2144"
       d="m 307.43553,301.85487 c -4.54251,-0.72178 -9.11832,-1.27072 -13.6889,-1.80074 -3.2381,-0.42787 -6.81787,-1.64352 -10.02874,-0.26153 -1.57837,0.67934 -2.77987,2.02073 -4.1698,3.0311 -0.63925,1.12104 -1.38892,2.18596 -1.91776,3.36312 -1.40799,3.13411 -1.54453,7.21383 -1.68805,10.61722 -0.0639,2.18005 -0.024,4.36116 -0.002,6.54152 -0.13767,0.56218 0.14726,1.17243 0.014,1.73533 -0.0402,0.16979 0.0398,-0.63878 -0.0847,-0.51654 -0.22618,0.22209 -0.18823,0.6061 -0.30615,0.90034 -0.13202,0.32943 -0.29515,0.64552 -0.44272,0.96827 -0.25489,0.63619 -0.50979,1.27237 -0.76469,1.90856 -1.39219,3.14437 -2.46795,6.41293 -3.69052,9.62347 -1.32786,3.31423 -2.13508,6.77033 -2.81539,10.26487 -0.62077,3.34744 -0.8708,6.74475 -0.97209,10.14262 -0.13816,3.77526 0.0892,7.56137 -0.12563,11.33287 -0.19686,2.67498 -0.43274,5.34653 -0.57255,8.02535 -0.21626,2.9699 0.0127,5.92706 0.4106,8.86998 0.40175,3.2185 1.38286,6.32886 2.38835,9.40163 0.80785,2.11778 1.42457,4.29699 2.25222,6.40628 0.83302,2.10819 1.83595,4.14624 2.94076,6.12315 0.99187,1.69739 1.81041,3.48621 2.78083,5.19676 2.74462,4.10141 7.12564,6.20473 11.58392,7.91253 2.59542,0.80719 5.25818,1.352 7.87498,2.08703 2.53966,0.7451 5.16579,0.98039 7.79687,1.09158 2.13611,0.0661 4.27348,0.0617 6.41035,0.0578 1.75594,-0.005 3.51188,-0.008 5.26783,-0.009 3.17925,-0.22349 6.35572,-0.47582 9.51353,-0.91228 3.29436,-0.54271 6.42052,-1.51425 9.43368,-2.94379 3.72208,-1.62693 6.26236,-4.30254 8.30967,-7.72143 1.67787,-2.8725 2.21288,-6.13186 2.52342,-9.39011 0.16385,-1.99371 0.0868,-3.98766 0.33046,-5.97181 0.3074,-2.56946 0.44157,-5.15417 0.52669,-7.73911 0.0634,-2.41469 0.10015,-4.82674 -0.0607,-7.23711 -0.22387,-2.90636 -0.83684,-5.75731 -1.36157,-8.61838 -0.78187,-3.75236 -1.61186,-7.4919 -2.45034,-11.23165 -0.99026,-4.19211 -2.20889,-8.32752 -3.4984,-12.43613 -1.02024,-2.99665 -2.21313,-5.92853 -3.29689,-8.90317 -1.15639,-2.68333 -2.16976,-5.41568 -3.13335,-8.17296 -0.82568,-2.61314 -2.10802,-5.073 -3.51785,-7.41382 -1.69923,-2.83338 -3.95851,-5.21784 -6.43858,-7.37059 -1.84051,-1.74888 -4.08205,-2.97011 -6.16642,-4.39013 -2.00118,-1.35747 -4.23153,-2.31178 -6.37476,-3.413 -3.12606,-1.61625 -6.35788,-3.00826 -9.54023,-4.5064 -3.50272,-1.63914 -7.09091,-2.86044 -11.02394,-2.48399 -1.04654,0.10018 -2.06504,0.39594 -3.09756,0.59391 -4.60885,1.29846 -8.50717,3.9602 -11.91663,7.23632 -3.06438,3.42584 -3.84517,6.79814 -3.91222,11.26234 0.0362,0.55972 0.0724,1.11944 0.10855,1.67915 0.76405,10.66278 15.84348,9.58225 15.07943,-1.08053 v 0 c -0.0239,-0.27909 -0.0478,-0.55818 -0.0718,-0.83727 -0.43654,-1.23534 0.27564,-0.26686 -0.43202,-0.41608 0.36765,-0.59217 0.0577,-0.15124 1.13236,-1.01052 1.03071,-0.82413 2.08352,-1.58674 3.32193,-2.08203 0.22647,-0.0845 0.47332,-0.12718 0.67941,-0.25349 0.17951,-0.11003 -0.20369,-0.32646 0.23052,-0.2375 1.21084,0.24808 2.32953,0.88565 3.47462,1.3135 3.03738,1.42391 6.12077,2.74875 9.10139,4.29156 1.59351,0.80802 3.24128,1.52605 4.76381,2.46185 1.63674,1.10371 3.40903,2.04228 4.85535,3.39397 1.31082,1.05253 2.43794,2.29866 3.32529,3.72988 0.89217,1.42209 1.68188,2.92736 2.15141,4.53127 0.98791,2.8143 2.00315,5.61653 3.19707,8.35125 1.00608,2.75973 2.09906,5.48512 3.07679,8.25387 1.1639,3.70797 2.26996,7.43807 3.17156,11.21956 0.79706,3.5478 1.58033,7.09622 2.33251,10.65419 0.4356,2.36468 0.96106,4.71812 1.16283,7.11851 0.24803,1.81549 -0.0497,3.68626 0.0183,5.51209 -0.0691,2.15393 -0.17442,4.30806 -0.42937,6.44927 -0.24632,2.12374 -0.29286,4.24512 -0.37317,6.37889 -0.098,1.16095 -0.0915,2.38932 -0.68359,3.42254 0.29426,0.29543 -0.0173,-0.007 -0.43632,0.66099 -0.0363,0.0579 0.2422,-0.075 0.20438,-0.018 -0.31224,0.47041 -1.25413,0.36801 -1.47828,0.82682 -1.56428,0.80663 -3.17149,1.22302 -4.90014,1.56331 -2.47404,0.34674 -4.96008,0.50678 -7.4438,0.76814 -1.76102,0.002 -3.52204,0.004 -5.28305,0.01 -1.9255,0.004 -3.85142,0.009 -5.77636,-0.0456 -1.45787,-0.0539 -2.91614,-0.12215 -4.32494,-0.54341 -2.20833,-0.61644 -4.43023,-1.16129 -6.65749,-1.68966 -0.99558,-0.35469 -1.99278,-0.74298 -2.94346,-1.2067 -0.24515,-0.11958 -0.46015,-0.29993 -0.71398,-0.3998 -0.19625,-0.0772 -0.16607,0.1512 -0.17217,0.22114 -1.08447,-1.65711 -1.67984,-3.61388 -2.81184,-5.24953 -0.44361,-0.46809 -0.0349,-0.008 -0.68979,-1.3387 -0.46362,-0.94221 -0.94396,-1.88383 -1.29897,-2.87607 -0.87744,-1.66309 -1.0655,-3.68873 -1.87612,-5.39634 -0.75095,-2.20036 -1.46208,-4.44584 -1.76648,-6.75547 -0.30395,-1.98055 -0.43043,-3.96591 -0.28117,-5.96795 0.13733,-2.68756 0.39299,-5.36637 0.57385,-8.05109 0.17672,-3.88552 0.0557,-7.77547 0.13855,-11.66393 0.0661,-2.57582 0.24982,-5.152 0.70229,-7.69206 0.50959,-2.6485 1.06968,-5.26679 2.10564,-7.77011 1.18664,-3.12977 2.2401,-6.3121 3.5942,-9.37648 1.38179,-3.45904 2.96979,-6.93515 2.66533,-10.76329 -0.0193,-1.92708 -0.0554,-3.85473 -0.009,-5.78168 0.0456,-1.20861 0.10734,-2.40994 0.24184,-3.61265 0.0376,-0.33614 0.0963,-0.66978 0.13046,-1.00628 0.0152,-0.14929 0.16116,-0.4931 0.0175,-0.44984 -0.30961,0.0932 -0.4746,0.43926 -0.7119,0.65888 -4.43851,2.15743 -0.62272,0.78102 -4.68752,1.17656 -0.38743,0.0377 0.77253,0.0965 1.15808,0.15005 1.60731,0.22348 3.20596,0.50319 4.81087,0.74258 3.92416,0.45381 7.83751,0.99583 11.76143,1.44972 10.37093,2.59273 14.03761,-12.07398 3.66668,-14.66671 z" />
    <path
       style="fill:#000000;fill-opacity:1;fill-rule:nonzero;stroke:none"
       id="path2146"
       d="m 289.98747,317.6706 c -0.93075,2.56381 -2.07192,5.03565 -3.22344,7.50455 -1.54153,2.66407 -2.85299,5.3883 -3.84819,8.30577 -1.31769,3.68072 -1.69886,7.55643 -2.24306,11.39527 -0.58667,3.40419 -0.62306,6.86204 -0.90775,10.29462 -0.35069,3.46952 -0.88854,6.91334 -1.20191,10.38864 -0.28619,3.24299 -0.30191,6.50011 -0.32105,9.75299 -0.14277,3.07777 0.23236,6.13346 0.48384,9.19377 0.27297,4.00893 1.57167,7.79369 2.88817,11.55152 1.0124,3.13291 2.64809,5.99526 4.13013,8.91638 1.52885,2.72324 3.44864,5.34157 6.17345,6.98144 0.73366,0.44153 1.55826,0.71039 2.33739,1.06558 3.33362,1.19846 6.875,0.98441 10.33537,1.30374 2.28348,0.27346 4.51307,0.91375 6.77398,1.35067 3.11551,0.56336 6.25884,0.83814 9.41432,0.55251 4.81151,-0.62728 7.43799,-2.24344 10.68132,-5.8783 2.53147,-3.43283 3.61825,-7.508 4.22573,-11.6589 0.12907,-2.01641 0.33955,-4.00763 0.57261,-6.01262 0.25798,-2.32687 0.3633,-4.66592 0.41198,-7.00526 0.0123,-3.28918 -0.73097,-6.48544 -1.46202,-9.66856 -0.77493,-2.42581 -1.27562,-4.90745 -1.67644,-7.41782 -0.34845,-3.62572 -1.16603,-7.17601 -2.06792,-10.69678 -0.55274,-2.6281 -1.47023,-5.13155 -2.52761,-7.59094 -1.09725,-2.25425 -2.37132,-4.42689 -3.66758,-6.57321 -1.86449,-2.55451 -3.93246,-4.9488 -6.07294,-7.27286 -1.35324,-1.74831 -2.69048,-3.51731 -3.82699,-5.41615 -1.5031,-2.48327 -3.353,-4.74322 -5.41325,-6.78123 -1.81427,-1.99481 -4.02803,-3.50503 -6.31873,-4.89413 -9.17571,-5.48497 -16.93262,7.49144 -7.75692,12.97641 v 0 c 1.29838,0.75243 2.45617,1.50369 3.44805,2.66997 0.24415,0.24109 0.55323,0.41491 0.77755,0.67455 0.87577,1.0137 1.66342,2.11653 2.36666,3.24326 1.69682,2.74034 3.573,5.37292 5.66074,7.83118 1.46756,1.5413 2.79554,3.22689 4.20709,4.80511 0.94153,1.54602 1.8377,3.12349 2.70762,4.70879 0.74946,1.74294 1.4209,3.49415 1.77166,5.37307 0.7911,3.08414 1.5048,6.1891 1.79038,9.36893 0.46542,2.82554 0.98354,5.6469 1.86459,8.37786 0.45437,1.97599 0.98508,3.94343 1.08101,5.97894 -0.0358,1.86557 -0.11602,3.73103 -0.31667,5.58713 -0.21105,1.8774 -0.44818,3.74781 -0.52475,5.63685 -0.17355,1.3581 -0.51791,2.71123 -0.81722,4.01755 -0.0628,0.12508 -0.29031,0.39966 -0.15055,0.392 0.25227,-0.0138 0.48515,-0.14662 0.73463,-0.18651 0.0538,-0.009 -0.0835,0.0756 -0.13578,0.0908 -0.27492,0.0797 -0.55967,0.12103 -0.83713,0.1914 -0.0935,0.0237 -0.18321,0.0604 -0.27482,0.0906 -1.67574,0.247 -3.38939,-0.17353 -5.05725,-0.36803 -2.78894,-0.5104 -5.52283,-1.36093 -8.36358,-1.56492 -2.00761,-0.15061 -4.06503,-0.24526 -6.05761,-0.31742 2.03973,1.9146 -0.2804,-0.0116 -0.53817,-0.82448 -1.18265,-2.3161 -2.5149,-4.57614 -3.33487,-7.05626 -0.89181,-2.54433 -1.89173,-5.07648 -2.08881,-7.79599 -0.21713,-2.6185 -0.57097,-5.22759 -0.43281,-7.86165 0.0163,-2.83269 0.0189,-5.66961 0.2612,-8.49428 0.31198,-3.52287 0.89572,-7.0095 1.21395,-10.53083 0.24385,-3.13894 0.29283,-6.2976 0.81085,-9.41057 0.40583,-2.94606 0.63172,-5.92978 1.63057,-8.75851 0.72143,-2.38072 2.09026,-4.42289 3.18932,-6.64216 1.21764,-2.61212 2.43621,-5.22476 3.41738,-7.93815 4.21104,-9.82577 -9.68468,-15.78108 -13.89572,-5.95532 z" />
    <path
       style="fill:#000000;fill-opacity:1;fill-rule:nonzero;stroke:none"
       id="path2148"
       d="m 291.89687,337.28443 c -0.27528,2.6679 -0.82036,5.30494 -1.43272,7.91421 -0.79885,2.66261 -1.61721,5.32032 -2.24551,8.02895 -0.67514,3.10883 -0.77585,6.29006 -0.84126,9.45771 -0.0815,4.79725 0.50517,9.58638 1.15192,14.33253 0.36948,3.29784 1.20054,6.51711 1.64349,9.80288 0.46098,2.80551 1.07178,5.5784 1.7894,8.3284 0.5701,2.72317 1.57968,5.26967 2.97078,7.66951 2.97606,4.20107 6.09716,6.25516 11.4363,6.90115 1.00157,0.12118 2.01585,0.0879 3.02377,0.13185 1.67735,-0.45848 3.43789,-0.6809 5.03204,-1.37543 1.28171,-0.55841 2.38782,-1.46742 3.48423,-2.33489 2.62467,-2.07661 4.53445,-4.85332 5.8885,-7.88029 0.45005,-1.00606 0.73507,-2.07809 1.1026,-3.11714 1.28757,-3.9001 2.08869,-7.93152 2.5191,-12.00994 0.24503,-3.8121 -0.94203,-7.46899 -2.21097,-11.00834 -1.1299,-2.82975 -2.33301,-5.63267 -3.64022,-8.38528 -0.87738,-2.5006 -2.09151,-4.8613 -3.15639,-7.28283 -0.95765,-2.4572 -2.36809,-4.71808 -3.32103,-7.17208 -0.84852,-1.86846 -1.60429,-3.79014 -2.18271,-5.76056 -0.42977,-1.12963 -0.81811,-2.26997 -1.07154,-3.45167 -2.41519,-10.41371 -17.14239,-6.99812 -14.72721,3.41559 v 0 c 0.35807,1.4952 0.74448,2.98724 1.32833,4.41375 0.74069,2.40732 1.60619,4.78674 2.64947,7.07977 1.07458,2.58592 2.42467,5.04032 3.51278,7.6224 1.14027,2.54129 2.35992,5.04441 3.33034,7.65967 1.11093,2.29661 2.08467,4.65838 3.06485,7.01278 0.52229,1.41755 0.96173,2.87756 1.38504,4.31487 -0.2908,2.97016 -0.89161,5.90196 -1.81279,8.74319 -0.14252,0.48121 -0.30122,0.95792 -0.42754,1.44363 -0.0577,0.22172 -0.0247,0.46949 -0.12375,0.67607 -0.0885,0.18463 -1.62441,1.8374 -1.30133,2.02308 0.30533,0.17548 0.68275,0.173 1.02413,0.2595 -0.36172,0.0126 -0.72342,0.0258 -1.08516,0.0378 -0.23053,0.008 -0.7211,-0.20772 -0.69164,0.021 0.0498,0.3871 0.57744,0.53341 0.80397,0.85124 0.0769,0.10788 -1.17804,-1.12209 -0.89826,-0.65487 -0.79818,-1.03494 -0.89637,-2.45305 -1.27816,-3.66356 -0.56757,-2.17155 -1.05877,-4.35705 -1.44001,-6.56974 -0.45888,-3.28595 -1.2272,-6.51457 -1.64401,-9.80658 -0.55383,-3.95864 -1.05418,-7.96004 -1.01331,-11.96202 0.0421,-2.13913 0.0613,-4.29155 0.46564,-6.40057 0.59887,-2.69692 1.52137,-5.30881 2.23357,-7.97701 0.7169,-3.12042 1.37065,-6.26656 1.70663,-9.45361 1.32594,-10.60756 -13.67542,-12.48273 -15.00136,-1.87517 z" />
    <path
       style="fill:#000000;fill-opacity:1;fill-rule:nonzero;stroke:none"
       id="path2150"
       d="m 296.4551,339.20178 c -0.85239,4.61848 -1.13362,9.29173 -1.09739,13.97911 0.14652,4.14251 0.1444,8.29321 0.42326,12.42941 0.18819,3.35636 0.81313,6.65714 1.42833,9.95443 0.72051,3.39929 1.47126,6.79211 2.44409,10.12885 0.83545,2.49825 1.82526,4.95396 2.50267,7.50212 0.52488,1.93535 1.43328,3.7236 2.16577,5.58035 3.97915,9.92194 18.01089,4.29458 14.03174,-5.62736 v 0 c -0.53537,-1.32183 -1.16042,-2.59967 -1.61745,-3.95031 -0.73428,-2.63235 -1.64218,-5.21457 -2.58172,-7.78003 -0.84963,-2.83617 -1.44068,-5.73891 -2.08357,-8.62703 -0.51102,-2.73781 -1.06279,-5.47145 -1.21031,-8.25985 -0.29733,-3.81987 -0.2073,-7.6649 -0.38536,-11.49147 -0.0412,-3.64638 0.16499,-7.27531 0.80446,-10.87332 2.0965,-10.48252 -12.72801,-13.44742 -14.82452,-2.9649 z" />
    <path
       style="fill:#000000;fill-opacity:1;fill-rule:nonzero;stroke:none"
       id="path2152"
       d="m 278.22147,313.16818 c -5.19981,-0.91593 -10.46319,-1.32425 -15.71027,-1.8557 -4.33159,-0.48892 -8.67306,-0.8754 -13.02864,-1.05523 -4.48665,-0.13037 -8.78584,1.19241 -13.00437,2.55557 -3.29485,1.01686 -6.33701,2.55753 -8.93855,4.84389 -1.38283,1.21529 -2.39038,2.41707 -3.60139,3.77402 -3.16348,3.51854 -4.82713,7.50967 -5.85662,12.06572 -0.55836,3.66642 -1.24375,7.29602 -2.29616,10.85307 -0.74556,2.62572 -1.75433,5.15925 -2.74908,7.69663 -3.90099,9.95292 10.17458,15.46975 14.07557,5.51682 v 0 c 1.15902,-2.9578 2.31352,-5.91916 3.18616,-8.97791 1.13083,-3.91454 1.99764,-7.88461 2.56631,-11.92228 0.37012,-1.97589 0.98454,-3.70239 2.39259,-5.20995 1.96278,-2.24245 2.85955,-3.45544 5.89329,-4.26197 2.50459,-0.81962 5.06153,-1.74976 7.71953,-1.82793 4.05263,0.1609 8.09027,0.54147 12.1205,0.99095 5.19837,0.52477 10.40882,0.94304 15.56161,1.83993 10.62473,1.18052 12.29425,-13.84511 1.66952,-15.02563 z" />
    <path
       style="fill:#000000;fill-opacity:1;fill-rule:nonzero;stroke:none"
       id="path2154"
       d="m 327.87043,335.12605 c 4.53332,1.38269 8.98884,2.99522 13.48264,4.49602 3.86348,1.14192 7.64507,2.5013 11.3666,4.03798 3.1887,1.42464 6.37094,2.84061 9.32027,4.72112 3.95165,2.35998 7.42404,5.38509 10.88978,8.38704 2.94888,2.56707 5.79227,5.22819 8.52271,8.02265 1.51333,1.52683 3.09443,3.03604 4.25612,4.86066 1.29856,1.82157 2.65673,3.64454 3.64917,5.65761 0.76175,1.54777 1.53356,3.13101 1.94662,4.81508 0.11649,0.37809 0.23299,0.75617 0.34948,1.13426 3.1895,10.20321 17.61902,5.69258 14.42953,-4.51063 v 0 c -0.0657,-0.20485 -0.13146,-0.4097 -0.19719,-0.61455 -0.76432,-2.69128 -1.81062,-5.29547 -3.10442,-7.77776 -1.36302,-2.57432 -2.95963,-5.02461 -4.68553,-7.3702 -1.74475,-2.4217 -3.64837,-4.71707 -5.83186,-6.76136 -3.02468,-3.09397 -6.17445,-6.04237 -9.43886,-8.88514 -4.05809,-3.5122 -8.15643,-7.00794 -12.77426,-9.77859 -3.69391,-2.27837 -7.57646,-4.16543 -11.56484,-5.87523 -4.04613,-1.6686 -8.15447,-3.15954 -12.35249,-4.40521 -4.6403,-1.54348 -9.23803,-3.21319 -13.91932,-4.63426 -10.23927,-3.07178 -14.58342,11.40873 -4.34415,14.48051 z" />
    <path
       style="fill:#000000;fill-opacity:1;fill-rule:nonzero;stroke:none"
       id="path2156"
       d="m 289.24923,419.79925 c -4.37324,6.66256 -8.71404,13.34048 -12.93359,20.10213 -3.35467,5.0783 -6.25627,10.4246 -8.86223,15.91882 -1.9613,3.9668 -3.48483,8.11314 -4.94383,12.283 -1.53656,4.23627 -2.67247,8.59159 -3.37828,13.03887 -0.42791,4.02191 -1.04941,8.01868 -1.51155,12.03611 -0.42466,3.67681 -0.57749,7.37382 -0.63841,11.07176 -0.24253,3.55642 -0.50182,7.10968 -0.64256,10.67189 -0.0649,1.94077 -0.0881,3.88251 -0.11273,5.82408 -0.13472,10.68926 14.98218,10.87979 15.1169,0.19053 v 0 c 0.0227,-1.80739 0.0438,-3.61493 0.10229,-5.42163 0.14337,-3.67862 0.44468,-7.3456 0.65223,-11.02076 0.0506,-3.20599 0.17512,-6.41139 0.54261,-9.59932 0.43343,-3.8219 1.0437,-7.62136 1.43275,-11.44883 0.52176,-3.53925 1.50534,-6.98233 2.70661,-10.34991 1.28386,-3.66946 2.60145,-7.3258 4.34044,-10.81169 2.34375,-4.97157 4.98542,-9.79247 8.02148,-14.37931 4.13907,-6.63297 8.39459,-13.18548 12.68689,-19.71973 5.92981,-8.89471 -6.64921,-17.28072 -12.57902,-8.38601 z" />
    <path
       style="fill:#000000;fill-opacity:1;fill-rule:nonzero;stroke:none"
       id="path2158"
       d="m 327.18289,416.57608 c -1.50566,3.58904 -3.09004,7.14398 -4.64194,10.7131 -2.04321,5.17332 -3.66875,10.5091 -5.05575,15.89246 -1.15338,4.43375 -2.28619,8.87091 -3.3448,13.32834 -1.02291,4.57156 -1.37261,9.25397 -1.59475,13.92206 -0.25118,3.29665 0.0586,6.58026 0.38418,9.85748 0.39363,2.77018 1.08109,5.43993 2.15816,8.02143 1.02645,2.28076 2.19898,4.49041 3.20921,6.78059 1.63895,3.88031 3.28844,7.75272 4.74276,11.70614 1.01852,2.68324 1.86274,5.42598 2.93667,8.08805 4.08066,9.88062 18.05397,4.1097 13.97331,-5.77093 v 0 c -1.06369,-2.45147 -1.69663,-5.07248 -2.72291,-7.54053 -1.56938,-4.25917 -3.33745,-8.43639 -5.11098,-12.61432 -0.9949,-2.23215 -2.11183,-4.40372 -3.13738,-6.61608 -0.52779,-1.1389 -0.7305,-2.32571 -1.00482,-3.54912 -0.25307,-2.54675 -0.54979,-5.09055 -0.32671,-7.65426 0.17207,-3.73061 0.4195,-7.47711 1.20226,-11.13733 1.03882,-4.37436 2.1511,-8.72863 3.28351,-13.07967 1.16464,-4.60847 2.58381,-9.16199 4.27225,-13.606 1.53566,-3.5318 3.10496,-7.049 4.59282,-10.60137 4.34167,-9.76875 -9.47343,-15.90879 -13.81509,-6.14004 z" />
    <path
       style="fill:#000000;fill-opacity:1;fill-rule:nonzero;stroke:none"
       id="path2160"
       d="m 259.99481,513.12522 c -3.81473,-0.006 -7.92704,1.50409 -10.63102,4.28541 -0.64819,0.66672 -1.17557,1.44108 -1.76336,2.16162 -0.38781,0.82863 -0.91171,1.6063 -1.16342,2.48587 -0.86105,3.00885 -0.43616,6.63442 1.821,8.98796 2.06691,2.15517 2.94057,2.30625 5.28814,3.26738 3.16784,1.07269 6.51729,1.33982 9.83514,1.49584 2.45822,-0.10896 4.99024,-0.54435 7.05802,-1.99805 0.85383,-0.60026 1.55998,-1.38702 2.33998,-2.08053 7.1884,-7.91235 -4.00137,-18.07828 -11.18977,-10.16593 v 0 c 0.75175,-0.50001 1.52079,-1.20933 2.47959,-0.85794 -1.75849,-0.0765 -3.5373,-0.16623 -5.25654,-0.56454 -0.85985,0.10117 0.14606,-0.0603 1.2571,1.46758 0.34303,0.47173 0.61735,1.0071 0.77575,1.56844 0.49923,1.76911 0.28454,3.51823 -0.81036,4.99258 -1.8141,1.56163 -0.31534,0.24367 -0.47062,0.16828 -0.30477,-0.14798 -2.06437,-0.0959 0.43037,-0.0959 10.69011,0 10.69011,-15.1181 0,-15.1181 z" />
    <path
       style="fill:#000000;fill-opacity:1;fill-rule:nonzero;stroke:none"
       id="path2162"
       d="m 332.38396,509.29205 c -1.01337,0.0521 -2.03751,5e-5 -3.0401,0.15634 -2.79529,0.43574 -6.64628,2.2148 -8.58616,4.33777 -0.75847,0.83006 -1.34609,1.80144 -2.01914,2.70216 -0.32922,1.06981 -0.78989,2.10771 -0.98767,3.20942 -0.63971,3.56339 1.17845,7.2092 3.97687,9.32691 0.6061,0.45867 1.32328,0.74826 1.98491,1.12239 2.81454,1.16269 5.82877,1.22483 8.81854,1.04852 2.56975,-0.35315 5.32657,-0.7986 7.57565,-2.19484 0.718,-0.44573 1.35315,-1.01282 2.02972,-1.51924 3.03795,-2.84976 3.95095,-6.70122 4.34064,-10.67763 -0.0593,-0.88709 -0.11865,-1.77417 -0.17798,-2.66125 -1.56521,-10.5749 -16.52038,-8.36137 -14.95518,2.21354 v 0 c 0.026,-0.3104 0.0521,-0.6208 0.0781,-0.9312 -0.0168,0.21556 -0.27107,1.33328 -0.14407,1.53164 8.8e-4,10e-4 0.8912,-1.00479 0.96621,-0.90748 2.21287,-1.14317 0.12078,0.14063 -0.94845,0.0789 -0.42499,0.11623 -2.62889,-0.2495 -1.19882,0.31511 1.73186,1.21938 3.2832,3.3679 2.5843,5.62933 -0.19553,0.63269 -0.51239,1.22129 -0.76858,1.83194 -0.40464,0.4239 -0.79217,0.86481 -1.21391,1.27171 -0.0904,0.0872 0.70981,-0.72864 0.66006,-0.74451 -0.2735,-0.0873 -0.56673,-0.0921 -0.85009,-0.13819 10.60756,1.32595 12.48273,-13.67541 1.87517,-15.00136 z" />
    <path
       style="fill:#000000;fill-opacity:1;fill-rule:nonzero;stroke:none"
       id="path2164"
       d="m 218.98881,351.85128 c -4.21898,-2.41528 -8.6469,-2.77978 -12.77589,0.18712 -0.80417,0.57783 -1.37562,1.42477 -2.06343,2.13716 -1.78078,2.81102 -2.90239,5.64653 -1.6857,9.12561 1.15298,3.2969 3.61757,4.80672 6.39614,6.2995 2.83535,1.38183 5.93375,1.81951 9.04335,2.01721 1.94215,0.13867 3.79726,-0.0663 5.63868,-0.7848 0.82077,-0.32023 1.55056,-0.83702 2.32584,-1.25553 9.06829,-5.66081 1.0627,-18.48529 -8.00559,-12.82448 v 0 c 0.50518,-0.12748 2.77899,-0.29914 0.94612,-0.22618 -1.04915,-0.0564 -2.12191,-0.0912 -3.12848,-0.41865 -0.0838,-0.0238 -0.19275,-0.13583 -0.25134,-0.0714 -0.0552,0.0607 0.0836,0.14143 0.1214,0.2143 0.4676,0.901 1.18359,1.71425 1.39478,2.70715 0.38425,1.8065 0.18699,3.33671 -0.94923,4.61035 -2.18313,1.69747 -3.12633,1.78864 -5.62591,0.91261 -0.38494,-0.13491 2.12879,0.70685 1.11858,0.4962 9.28162,5.30379 16.7823,-7.8224 7.50068,-13.12618 z" />
    <path
       style="fill:#000000;fill-opacity:1;fill-rule:nonzero;stroke:none"
       id="path2166"
       d="m 387.75094,373.47781 c -0.87799,2.88762 -2.00383,5.64173 -2.5567,8.6219 -0.42097,3.64874 0.49492,6.56941 3.21745,9.15288 0.56445,0.53562 1.20763,1.01965 1.9256,1.31967 1.22474,0.51179 2.55412,0.72398 3.83118,1.08597 5.12453,0.0948 8.14625,-1.81848 11.37572,-5.52224 1.38495,-1.35882 2.95027,-2.50791 4.35627,-3.85819 1.37082,-1.33845 2.24259,-2.97541 3.07659,-4.66845 4.39491,-9.74491 -9.38647,-15.96025 -13.78139,-6.21535 v 0 c 0.15611,-0.10082 0.20225,-0.0702 0.0688,0.13987 -1.60951,1.77713 -3.90195,2.89129 -5.30834,4.89268 -0.14385,0.22932 -0.79147,0.53673 -0.53193,0.61364 0.23118,0.0685 0.41061,-0.25689 0.63296,-0.35016 0.62365,-0.2616 1.24183,-0.17117 1.88565,-0.0454 0.67214,0.2905 1.3728,0.52235 2.01643,0.8715 1.61202,0.87445 2.34829,3.24963 2.17974,4.86663 0.41457,-2.11641 1.61197,-4.33324 2.0925,-6.56077 3.07178,-10.23927 -11.40874,-14.58343 -14.48052,-4.34416 z" />
    <path
       style="fill:#000000;fill-opacity:1;fill-rule:nonzero;stroke:none"
       id="path2168"
       d="m 222.52457,4.416009 c -0.29692,-2.2835533 -0.43983,-4.58066922 -0.53147,-6.8801835 -0.07,-2.1409232 -0.0804,-4.2831236 -0.0844,-6.4249903 -0.001,-1.7823512 0.002,-3.5647012 0.003,-5.3470512 0.0339,-0.853919 -0.0423,-1.713435 0.001,-2.566836 0.0153,-0.300085 0.0605,0.01399 0.12471,-0.208836 0.0929,-0.322332 0.15507,-0.652714 0.23261,-0.979072 0.71806,-2.904252 0.94355,-5.893782 1.08155,-8.872386 0.0903,-2.454025 0.0924,-4.90999 0.0921,-7.365302 -0.003,-1.837421 -0.007,-3.67484 -0.008,-5.512263 -0.0112,-10.690105 -15.12926,-10.674316 -15.1181,0.01579 v 0 c 0.002,1.832836 0.006,3.665668 0.008,5.498502 3.3e-4,2.229702 2.4e-4,4.459974 -0.077,6.688646 -0.0862,2.031534 -0.20187,4.078992 -0.68916,6.06079 -0.56416,2.385606 -0.91443,4.770998 -0.76601,7.228013 -0.002,1.796147 -0.004,3.592295 -0.003,5.3884442 0.004,2.3357745 0.0172,4.671921 0.0967,7.0065764 0.11118,2.7223172 0.28596,5.4417896 0.63589,8.1453289 1.32595,10.6075605 16.3273,8.7323915 15.00136,-1.8751695 z" />
    <path
       style="fill:#000000;stroke:none;stroke-width:0.760123"
       d="m 315.35478,286.92618 c -0.42921,-0.42921 -1.78033,-0.77191 -3.00249,-0.76156 -1.22215,0.0103 -4.48789,0.0423 -7.2572,0.0711 -2.7693,0.0287 -7.045,-0.31006 -9.50154,-0.75285 -2.45654,-0.4428 -7.0203,-0.65785 -10.14169,-0.4779 -5.41617,0.31224 -5.93669,0.19106 -11.40185,-2.6544 -19.74911,-10.2825 -31.95083,-30.00837 -31.95083,-51.65321 0,-25.87722 17.15126,-48.191 43.32702,-56.36842 4.91471,-1.53538 7.27333,-1.78099 17.10276,-1.78099 9.82944,0 12.18805,0.24561 17.10277,1.78099 26.17575,8.17742 43.32701,30.4912 43.32701,56.36842 0,24.91564 -16.29633,47.10438 -40.78279,55.52896 -4.92891,1.69579 -5.74185,1.77921 -6.82117,0.69988 z"
       id="path2273" />
  </g>
</svg>
