<?xml version="1.0" encoding="UTF-8" standalone="no"?>
<!-- Created with Inkscape (http://www.inkscape.org/) -->

<svg
   id="svg5"
   version="1.1"
   viewBox="0 0 512 512"
   height="512"
   width="512"
   inkscape:version="1.1.1 (3bf5ae0d25, 2021-09-20)"
   sodipodi:docname="ikona.svg"
   xmlns:inkscape="http://www.inkscape.org/namespaces/inkscape"
   xmlns:sodipodi="http://sodipodi.sourceforge.net/DTD/sodipodi-0.dtd"
   xmlns="http://www.w3.org/2000/svg"
   xmlns:svg="http://www.w3.org/2000/svg">
  <sodipodi:namedview
     id="namedview7"
     pagecolor="#ffffff"
     bordercolor="#666666"
     borderopacity="1.0"
     inkscape:pageshadow="2"
     inkscape:pageopacity="0.0"
     inkscape:pagecheckerboard="0"
     inkscape:document-units="px"
     showgrid="false"
     inkscape:zoom="1.625"
     inkscape:cx="255.69231"
     inkscape:cy="256"
     inkscape:window-width="1684"
     inkscape:window-height="1040"
     inkscape:window-x="1931"
     inkscape:window-y="6"
     inkscape:window-maximized="0"
     inkscape:current-layer="layer1" />
  <defs
     id="defs2" />
  <g
     inkscape:label="Vrstva 1"
     inkscape:groupmode="layer"
     id="layer1">
    <ellipse
       style="fill:#000000;fill-rule:evenodd;stroke-width:1.12394"
       id="path273"
       cx="248.92308"
       cy="242.15385"
       rx="246.46153"
       ry="231.69231" />
    <ellipse
       style="fill:none;fill-rule:evenodd"
       id="path1018"
       cx="358.46155"
       cy="226.46153"
       ry="158.76923"
       rx="147.38461" />
    <ellipse
       style="fill:#ffffff;fill-rule:evenodd;stroke-width:1.21847"
       id="path5605"
       cx="304.92307"
       cy="222.15384"
       rx="199.69232"
       ry="204.30769" />
    <ellipse
       style="fill:#000000;fill-rule:evenodd"
       id="path6028"
       cx="313.23077"
       cy="232.30768"
       rx="67.692307"
       ry="72.307693"
       inkscape:transform-center-x="-13.538462"
       inkscape:transform-center-y="20.923077" />
    <ellipse
       style="fill:#ffffff;fill-rule:evenodd;stroke-width:1.29814"
       id="path6274"
       cx="314.15384"
       cy="233.23079"
       rx="50.153847"
       ry="51.692307" />
    <path
       style="fill:#000000;fill-opacity:1;fill-rule:nonzero;stroke:none"
       id="path6440"
       d="m 296.42074,300.17591 c -1.22287,1.64375 -2.4778,3.26198 -3.71487,4.89484 -1.0601,1.5444 -2.14576,3.07496 -3.13751,4.6644 -1.19372,1.65165 -2.06407,3.47394 -2.94594,5.2997 -1.14343,2.14205 -2.0107,4.41177 -3.01915,6.61571 -0.93413,1.90099 -1.51232,3.93175 -2.17879,5.9324 -0.65706,1.90275 -1.18178,3.84526 -1.77123,5.76787 -0.38577,1.58893 -0.86606,3.15228 -1.20623,4.75227 -0.49428,1.53529 -0.96417,3.06383 -1.26737,4.6536 -0.47304,1.62151 -0.70461,3.28367 -0.84193,4.9626 -0.27615,1.73685 -0.49994,3.47713 -0.62003,5.23177 -0.30378,2.02513 -0.49519,4.06045 -0.61479,6.10401 -0.0976,1.80749 -0.11148,3.61775 -0.11766,5.42738 -0.002,1.63982 0.001,3.27965 0.003,4.91947 10e-4,1.57905 0.002,3.15811 0.002,4.73716 -0.0873,1.57683 0.0769,3.12521 0.32672,4.67845 0.17956,1.46653 0.26641,2.93513 0.48601,4.39801 0.17753,1.7534 0.50624,3.46106 0.96972,5.16072 0.40159,1.57329 0.80266,3.14142 1.16281,4.72435 0.24359,1.98825 0.90314,3.85593 1.51128,5.7499 0.5723,1.23865 0.81871,2.56911 1.17709,3.87198 0.49013,1.46203 1.05463,2.90032 1.60591,4.34103 0.48542,1.54409 1.083,3.031 1.79034,4.48648 0.76815,1.33991 1.41502,2.73907 2.10804,4.11578 0.54272,0.99299 1.00717,2.01918 1.50842,3.03281 0.70382,1.13936 1.31745,2.29389 2.13891,3.35803 1.07903,1.45236 2.55684,2.51021 4.02684,3.5325 1.75873,1.10572 3.44972,2.2827 5.25885,3.31333 1.16954,0.58755 2.29701,1.25174 3.44213,1.88432 4.6792,2.58357 8.33292,-4.03381 3.65372,-6.61738 v 0 c -1.11726,-0.61656 -2.21689,-1.26533 -3.35821,-1.83728 -1.61982,-0.91997 -3.13151,-1.97053 -4.70277,-2.9642 -0.94035,-0.64185 -1.82338,-1.17281 -2.48208,-2.11249 -0.6274,-0.34277 -0.61363,-1.53721 -1.20589,-1.91631 -0.52032,-1.04615 -1.00584,-2.10689 -1.56092,-3.13662 -0.70659,-1.2993 -1.25403,-2.69021 -2.02866,-3.95724 -0.61468,-1.26413 -1.11063,-2.55796 -1.53598,-3.90169 -0.48453,-1.24258 -0.95494,-2.49358 -1.40497,-3.7479 -0.48179,-1.31983 -0.56682,-2.80088 -1.23774,-4.06888 -0.54703,-1.68531 -1.14316,-3.32572 -1.33442,-5.10668 -0.38568,-1.68715 -0.81399,-3.35859 -1.24077,-5.03559 -0.38777,-1.41697 -0.64787,-2.83165 -0.78739,-4.29806 -0.2261,-1.48532 -0.2747,-2.98276 -0.49713,-4.46931 -0.18692,-1.16209 -0.32731,-2.29175 -0.2308,-3.47897 -1.9e-4,-1.58101 -5.5e-4,-3.16202 -0.002,-4.74303 -0.001,-1.62905 -0.005,-3.25809 -0.003,-4.88713 0.006,-1.67213 0.0165,-3.34487 0.10502,-5.01511 0.11618,-2.02253 0.33657,-4.03078 0.61066,-6.03788 0.11158,-1.72352 0.38009,-3.42489 0.61296,-5.13523 0.10925,-1.421 0.34534,-2.80641 0.73821,-4.17998 0.2756,-1.54128 0.85279,-2.97847 1.2356,-4.49266 0.28116,-1.38874 0.73143,-2.73596 1.04474,-4.11733 0.55372,-1.86235 1.08008,-3.73079 1.70895,-5.57082 0.57562,-1.74703 1.06387,-3.51982 1.88266,-5.17667 0.97853,-2.15856 1.83771,-4.37216 2.95047,-6.46903 0.76499,-1.59392 1.51299,-3.18044 2.5706,-4.61326 0.84193,-1.39696 1.83158,-2.70401 2.72806,-4.06608 1.16538,-1.53977 2.35591,-3.05969 3.49559,-4.61886 3.42183,-4.10619 -2.3852,-8.94539 -5.80703,-4.8392 z" />
    <path
       style="fill:#000000;fill-opacity:1;fill-rule:nonzero;stroke:none"
       id="path6442"
       d="m 332.23377,303.78434 c 1.30797,1.77172 2.47308,3.65634 3.58768,5.55537 1.1863,2.41777 2.71488,4.62825 4.12212,6.91462 1.5637,2.22085 3.31761,4.22993 5.44467,5.92153 1.33704,1.31063 2.93719,2.28993 4.4661,3.34879 1.03862,0.80528 2.07649,1.67765 2.81088,2.77959 0.96277,1.67032 1.70256,3.42712 2.35263,5.23787 0.6837,2.27417 1.53915,4.48986 2.31457,6.73231 0.69441,1.81273 1.2657,3.67102 1.81856,5.53223 0.71869,2.58265 1.55947,5.11229 2.59242,7.5865 0.80372,1.90953 1.48658,3.85851 2.1434,5.82136 0.79875,2.17008 1.74447,4.28465 2.66918,6.40375 0.87098,2.30036 1.46066,4.69243 2.0927,7.06584 0.7434,2.4976 1.37179,5.02516 1.99889,7.55328 0.46295,2.58302 1.20895,5.09423 1.95998,7.60503 0.74446,2.13058 1.35825,4.31256 1.85276,6.51442 0.59714,2.73303 0.76813,5.53177 0.7191,8.32181 -0.11894,3.1617 -0.81253,6.22422 -1.61884,9.26654 -0.45073,1.97953 -1.39034,3.70843 -2.41853,5.42902 -0.76766,1.01554 -1.78274,1.78929 -2.81081,2.52258 -1.75934,0.9106 -3.58948,1.68154 -5.45009,2.35828 -2.23588,0.95541 -4.51893,1.71675 -6.90192,2.19754 -2.99769,0.45177 -6.01249,0.79867 -9.03367,1.0536 -2.51072,0.0908 -4.9922,0.38884 -7.45548,0.8724 -0.83652,0.18893 -1.67988,0.31418 -2.53135,0.40568 -5.30975,0.61341 -4.44227,8.12252 0.86748,7.50912 v 0 c 1.04877,-0.12663 2.09312,-0.26388 3.12474,-0.49825 2.19158,-0.43337 4.39806,-0.67871 6.63301,-0.75689 3.32265,-0.28276 6.64069,-0.65857 9.93351,-1.18477 2.73803,-0.5812 5.39728,-1.39209 7.97042,-2.50306 2.4911,-0.9223 4.97685,-1.92735 7.25126,-3.31283 1.86511,-1.34515 3.64042,-2.84657 4.89944,-4.7989 1.37646,-2.32227 2.59542,-4.71053 3.22901,-7.35784 0.96417,-3.64132 1.74863,-7.3204 1.87022,-11.10252 0.0332,-3.39112 -0.1618,-6.78965 -0.90912,-10.10865 -0.54792,-2.35873 -1.1733,-4.70885 -1.97914,-6.99359 -0.7173,-2.39786 -1.43213,-4.79098 -1.8656,-7.25998 -0.63854,-2.56993 -1.27535,-5.14024 -2.03132,-7.67926 -0.73129,-2.73964 -1.41877,-5.50187 -2.46862,-8.14213 -0.83608,-1.91552 -1.69049,-3.82653 -2.42963,-5.7813 -0.71769,-2.13982 -1.46775,-4.26401 -2.34138,-6.34672 -0.94077,-2.22433 -1.67012,-4.50463 -2.32103,-6.82972 -0.59211,-1.96281 -1.18981,-3.9288 -1.91953,-5.8444 -0.79154,-2.26758 -1.64245,-4.51498 -2.34347,-6.81395 -0.89892,-2.485 -1.94496,-4.90338 -3.36635,-7.14218 -1.31975,-1.7373 -2.84782,-3.29201 -4.64049,-4.55083 -1.41107,-0.95721 -2.86062,-1.86968 -4.0871,-3.07188 -1.463,-1.09702 -2.5463,-2.49753 -3.66159,-3.93385 -1.38775,-2.23745 -2.87672,-4.40825 -4.04038,-6.77924 -1.32894,-2.24575 -2.69938,-4.48626 -4.29226,-6.55552 -3.42183,-4.10619 -9.22886,0.73301 -5.80703,4.8392 z" />
    <path
       style="fill:#000000;fill-opacity:1;fill-rule:nonzero;stroke:none"
       id="path6444"
       d="m 279.11667,319.21018 c -3.62423,-0.1365 -7.2209,0.20764 -10.78252,0.85331 -2.24376,0.40414 -4.44231,1.01311 -6.69649,1.35748 -2.13268,0.10511 -4.1935,0.61432 -6.25558,1.12811 -3.17599,0.84591 -5.99789,2.53113 -8.78428,4.21883 -2.34225,1.51296 -4.6231,3.10166 -6.67961,4.98751 -1.63979,1.6794 -2.87621,3.68215 -4.09073,5.67528 -1.31348,1.89997 -1.96365,4.11214 -2.54966,6.31675 -0.65509,1.84548 -1.17583,3.72748 -1.68125,5.61857 -0.49092,1.72576 -1.27932,3.25409 -2.23412,4.75475 -5.63418,9.08485 7.21374,17.05278 12.84792,7.96793 v 0 c 1.69905,-2.77994 3.11884,-5.66613 3.99198,-8.82035 0.511,-1.91317 1.07235,-3.80087 1.69779,-5.68103 0.30629,-1.19116 0.22618,-1.42614 0.88334,-2.36566 0.4922,-0.84441 1.10831,-1.7059 1.55968,-2.51739 1.00746,-1.26951 2.89719,-1.94227 4.09376,-3.00943 1.46603,-0.89026 2.96172,-1.95773 4.60468,-2.47725 1.63924,-0.40941 3.23497,-0.81616 4.9436,-0.86189 2.40212,-0.38438 4.759,-0.96267 7.14426,-1.43478 2.63375,-0.52909 5.30328,-0.68538 7.98723,-0.59264 10.69011,0 10.69011,-15.1181 0,-15.1181 z" />
    <path
       style="fill:#000000;fill-opacity:1;fill-rule:nonzero;stroke:none"
       id="path6446"
       d="m 352.0729,330.66127 c 2.92271,0.47809 5.86655,0.81167 8.81828,1.04413 1.99962,0.14301 4.00463,0.16228 6.00838,0.16947 1.72577,0.001 3.45154,-0.003 5.17731,-0.005 1.95389,0.0877 3.94537,-0.20482 5.87689,0.16786 1.59756,0.19264 3.08997,0.7265 4.59803,1.25447 1.4887,0.68093 2.78402,1.73066 4.13541,2.65035 1.67363,1.13389 3.16389,2.49927 4.55287,3.9662 1.55305,1.74459 2.98326,3.59291 4.52168,5.35236 1.41889,1.84621 2.90716,3.63234 4.30819,5.49386 1.02003,1.2826 1.99621,2.63828 2.80119,4.07059 0.83841,1.23528 1.56638,2.53657 2.37671,3.78904 1.37104,1.8528 2.86415,3.61284 4.27487,5.43672 6.56112,8.43979 18.49679,-0.83904 11.93567,-9.27883 v 0 c -1.1728,-1.50318 -2.35356,-3.00248 -3.57782,-4.46279 -0.71786,-1.04249 -1.27011,-2.19402 -2.01906,-3.21766 -1.14218,-1.88026 -2.36387,-3.73437 -3.73264,-5.45515 -1.62752,-2.14516 -3.33285,-4.2242 -4.99743,-6.34007 -1.70699,-1.942 -3.25392,-4.01839 -5.02742,-5.90148 -2.13062,-2.17591 -4.37659,-4.24944 -6.91156,-5.9515 -2.44558,-1.66405 -4.84475,-3.45682 -7.67345,-4.43043 -2.41444,-0.83601 -4.85004,-1.60594 -7.39443,-1.93711 -2.6827,-0.34948 -5.36402,-0.37883 -8.06704,-0.32452 -1.7018,0.002 -3.4036,0.007 -5.10541,0.006 -1.62919,-0.005 -3.2595,-0.0149 -4.8858,-0.12382 -2.43959,-0.18781 -4.87147,-0.46667 -7.28901,-0.84602 -10.51768,-1.9123 -13.22209,12.96194 -2.70441,14.87425 z" />
    <path
       style="fill:#000000;stroke:none;stroke-width:0.615385"
       d="m 308,425.43865 c 0,-0.32815 -1.17692,-1.24865 -2.61538,-2.04557 -7.53689,-4.17548 -9.41926,-5.90109 -12.13829,-11.12741 -3.11383,-5.98517 -6.16448,-14.71061 -8.44805,-24.16305 -1.5335,-6.34762 -1.66178,-7.88119 -1.68154,-20.10262 -0.024,-14.81195 0.50791,-19.18279 3.74409,-30.76923 3.6066,-12.91268 6.53169,-19.42934 12.40303,-27.63209 l 3.70096,-5.17055 8.70617,0.1354 c 6.2074,0.0965 10.22599,-0.16619 14.00149,-0.91537 6.19679,-1.22965 5.13539,-1.94943 10.50084,7.12107 1.90199,3.21539 4.61099,7.09231 6.02001,8.61539 1.6005,1.73007 2.71487,3.61177 2.96966,5.01449 0.59295,3.26455 2.48433,5.30813 5.79904,6.2657 l 2.88412,0.83318 4.98153,14.40485 c 2.73984,7.92267 5.6903,16.06639 6.55659,18.09716 0.86628,2.03077 2.58692,7.56923 3.82363,12.30769 1.23671,4.73846 2.90644,10.96923 3.71052,13.84616 2.47309,8.84851 2.54364,13.25209 0.3432,21.42389 l -0.6841,2.54055 -8.47434,2.72874 C 354.0847,420.073 343.98262,422.4132 332.94246,424.06559 323.53178,425.47409 308,426.3291 308,425.43865 Z"
       id="path6485" />
    <path
       style="fill:#000000;fill-opacity:1;fill-rule:nonzero;stroke:none"
       id="path6705"
       d="m 314.06527,298.54756 c -3.93179,-1.55321 -8.25389,-1.00075 -11.80619,1.24829 -0.6909,0.43743 -1.30176,0.99003 -1.95264,1.48505 -2.5442,2.20705 -4.18088,5.11886 -5.48879,8.16989 -0.78042,2.27907 -1.70436,4.50574 -2.67923,6.70814 -0.90183,2.2589 -1.98264,4.43889 -2.88619,6.69621 -0.71021,1.73629 -1.07361,3.58486 -1.63601,5.36368 -0.26809,1.07477 -0.54016,2.12874 -1.02981,3.12467 -1.01979,2.11042 -1.38544,4.43594 -1.80212,6.71947 -0.44617,1.63985 -0.81426,3.30402 -1.29137,4.93491 -0.69792,2.66927 -0.99864,5.41904 -1.47331,8.13103 -0.35347,2.32624 -0.76429,4.64294 -1.10048,6.97152 -0.11994,1.80517 -0.4885,3.56874 -0.75609,5.35388 -0.29807,2.09825 -0.31051,4.22227 -0.33445,6.33729 -0.19134,1.61747 -0.37371,3.23514 -0.49199,4.85972 -0.10886,1.76039 -0.12082,3.52482 -0.12918,5.28797 0.0936,2.26853 0.51941,4.46805 1.23658,6.61522 0.2843,1.02877 0.97169,1.96258 1.14293,3.02029 0.40979,1.49046 1.03995,2.90459 1.50387,4.3767 0.3658,1.43555 0.71656,2.87493 1.092,4.30801 0.36786,1.88498 1.15361,3.63035 1.81338,5.42002 0.49852,1.30733 0.95205,2.60291 1.30288,3.94964 0.48502,1.84751 1.42554,3.51728 2.13004,5.27708 0.74384,1.57778 1.44675,3.17787 2.22081,4.75024 1.02345,2.6263 2.9122,4.65617 4.99778,6.48261 1.5461,1.53805 3.33745,2.79811 5.17435,3.95854 2.06856,1.29361 4.35669,2.13273 6.66471,2.88266 2.30735,0.62838 4.67395,0.9926 7.01644,1.4679 3.20448,0.65902 6.47506,0.80506 9.73508,0.9046 3.27742,0.16763 6.54535,-0.0282 9.815,-0.23131 3.53585,-0.4199 7.09032,-0.61635 10.63639,-0.91484 3.77663,-0.43945 7.51755,-1.14817 11.25583,-1.8342 2.97956,-0.50806 5.79417,-1.56167 8.52167,-2.8316 1.92226,-0.96536 3.83584,-1.94122 5.65612,-3.08918 1.36537,-0.99552 2.77155,-1.92993 4.15612,-2.89661 0.55163,-0.52442 1.17057,-0.98612 1.65491,-1.57326 2.59613,-3.14717 2.84661,-6.41508 2.36893,-10.28949 -0.48146,-2.26241 -1.12279,-4.49089 -1.87217,-6.67842 -0.36327,-0.818 -0.53574,-1.64907 -0.586,-2.5306 -0.0753,-1.6689 -0.0674,-3.34015 -0.0669,-5.01033 5.7e-4,-0.99753 -0.0455,-1.998 0.26704,-2.95976 0.45874,-1.72277 0.71695,-3.48379 0.872,-5.25688 0.20845,-2.34715 0.11414,-4.65639 -0.30229,-6.97226 -0.52826,-2.22616 -1.36713,-4.37163 -2.26888,-6.46896 -0.86948,-2.06341 -1.67214,-4.15383 -2.56914,-6.20566 -0.55938,-1.27971 -0.98818,-2.61927 -1.30752,-3.97865 -0.51282,-1.94063 -1.21257,-3.82372 -2.00525,-5.66499 -0.70965,-1.60997 -1.34746,-3.23557 -2.13473,-4.81063 -0.66905,-1.18303 -1.1847,-2.44496 -1.64742,-3.72098 -0.5936,-1.66459 -1.61184,-3.13268 -2.1117,-4.83064 -0.56088,-1.88745 -1.30718,-3.71611 -1.79636,-5.62409 -0.39416,-1.56869 -0.73608,-3.15055 -1.12404,-4.72054 -0.41235,-1.90808 -1.23432,-3.69089 -1.96558,-5.49084 -0.78845,-1.93597 -1.71351,-3.78216 -2.84446,-5.54147 -0.96309,-1.55114 -2.05291,-2.99521 -3.26811,-4.35665 -1.69237,-1.41974 -3.29824,-2.91569 -4.91283,-4.42032 -1.01799,-1.0077 -2.2363,-1.84781 -3.13184,-2.9765 -0.60442,-0.74367 -0.89968,-0.75206 -1.75085,-2.24387 -2.22587,-2.89098 -5.2639,-4.8919 -8.21765,-6.94933 -1.49499,-1.04021 -2.93929,-2.14911 -4.46215,-3.1489 -1.06748,-0.74373 -2.14897,-1.46281 -3.20194,-2.22786 -8.70836,-6.20024 -17.47682,6.11525 -8.76846,12.31548 v 0 c 1.26909,0.89453 2.53913,1.78471 3.82883,2.65097 1.41283,0.77805 2.57719,1.99161 3.96377,2.81629 0.95328,0.66379 1.93735,1.2969 2.86893,1.99101 0.2968,0.22114 0.58575,0.45283 0.87156,0.688 0.23836,0.19612 0.4026,0.525 0.70057,0.60555 0.17447,0.0472 -0.16443,-0.32189 -0.24664,-0.48284 0.96825,1.44536 2.00847,2.87025 3.20741,4.13285 1.28353,1.38304 2.63603,2.69617 4.06962,3.92455 1.36058,1.24471 2.62596,2.64376 4.1608,3.6737 -0.0603,-0.32023 -0.0102,1.2e-4 0.45092,0.53356 0.0221,0.0256 -0.0494,-0.12425 -0.0295,-0.0969 0.31958,0.43815 0.58238,0.91509 0.88193,1.36718 0.0863,0.1303 0.18058,0.25518 0.27087,0.38278 0.61133,0.94968 1.12764,1.96994 1.55986,3.07015 0.48548,1.18765 1.07471,2.33723 1.33541,3.59569 0.5153,1.55162 0.65624,3.2448 1.14723,4.80846 0.58861,2.15951 1.34712,4.26227 2.02434,6.39503 0.62583,1.86365 1.41084,3.64844 2.30458,5.38724 0.70638,1.89879 1.48029,3.78104 2.46527,5.55467 0.23752,0.27489 0.10355,0.093 0.34114,0.69044 0.43649,1.09765 0.87628,2.19418 1.37591,3.26541 0.54004,0.93834 0.73443,2.0725 1.11242,3.07898 0.5531,2.19322 1.21972,4.36481 2.14223,6.4339 0.9337,2.1161 1.73746,4.28654 2.65972,6.40799 0.47484,0.67168 0.89247,2.42699 1.23212,3.32505 0.12691,-0.21947 0.0535,1.88787 0.0462,2.11052 -0.005,0.15822 -0.0135,0.31632 -0.0203,0.47448 -0.0794,1.07363 -0.26382,2.12968 -0.55025,3.16904 -0.43696,2.07221 -0.73565,4.17067 -0.6408,6.29599 -5.8e-4,2.08397 -0.0106,4.1701 0.11749,6.2511 0.19604,2.16119 0.58538,4.28701 1.39264,6.31293 0.45347,1.20143 0.70686,2.51236 1.15159,3.68822 0.0278,0.16008 -0.0659,0.41638 0.0835,0.48022 0.12697,0.0543 0.0582,-0.27031 0.0992,-0.40217 0.0623,-0.20058 0.12239,-0.40321 0.21026,-0.59398 0.37256,-0.80872 1.02913,-1.45456 1.76119,-1.94008 -1.08209,0.87885 -2.37668,1.50701 -3.44316,2.416 -1.27019,0.81033 -2.62737,1.46026 -3.96138,2.16169 -1.56434,0.733 -3.12975,1.39974 -4.85528,1.66049 -3.26133,0.59875 -6.52399,1.21435 -9.81281,1.6406 -3.42885,0.29801 -6.86988,0.46066 -10.28759,0.88912 -2.80739,0.17445 -5.60939,0.36863 -8.42425,0.20901 -2.40381,-0.0706 -4.82027,-0.13695 -7.18631,-0.61036 -1.79604,-0.36327 -3.59572,-0.69762 -5.39362,-1.04419 -1.21263,-0.3824 -2.42985,-0.76578 -3.5113,-1.45298 -0.66798,-0.15063 -2.5213,-1.96115 -3.04462,-2.41372 -0.95406,-0.81341 -0.63671,-0.7407 -0.55551,-0.23726 0.0118,0.0732 -0.1033,-0.10805 -0.14122,-0.17173 -0.16737,-0.28103 -0.5934,-1.21871 -0.66753,-1.37685 -0.65921,-1.30871 -1.26163,-2.65128 -1.86587,-3.98197 -0.45908,-1.04778 -0.93774,-2.09535 -1.39702,-3.13612 -0.48865,-1.87388 -1.12351,-3.68023 -1.79509,-5.49377 -0.50862,-1.32321 -1.1088,-2.58739 -1.35329,-3.99708 -0.4802,-1.66296 -0.79672,-3.37209 -1.30538,-5.02809 -0.40861,-1.2455 -0.88699,-2.46101 -1.3026,-3.7013 -0.42921,-1.49077 -0.9917,-2.92374 -1.57597,-4.35894 0.19435,1.26798 -0.2513,-1.72378 -0.27077,-1.22737 0.007,-1.43184 0.0126,-2.86472 0.0919,-4.29476 0.12871,-1.92323 0.44576,-3.82821 0.52852,-5.75536 0.0156,-1.43037 0.005,-2.86832 0.1723,-4.29078 0.26417,-1.81793 0.64582,-3.61858 0.77074,-5.45518 0.29717,-2.18372 0.71205,-4.35129 1.03184,-6.53205 0.37139,-2.20079 0.64782,-4.42131 1.12884,-6.60168 0.5757,-2.09692 1.12548,-4.20322 1.61094,-6.32298 0.19549,-1.09077 0.28306,-2.23386 0.73018,-3.24896 0.72779,-1.67618 1.36084,-3.38593 1.77165,-5.16973 0.36688,-1.34111 0.69175,-2.68926 1.17715,-3.99601 0.74867,-2.07319 1.87705,-4.00432 2.63002,-6.07919 1.00974,-2.29339 1.99864,-4.60844 2.79754,-6.98359 0.32483,-0.83521 0.70921,-1.70396 1.20936,-2.37747 -0.55688,-0.10495 -1.10485,-0.10396 -1.66088,-0.27097 -0.0948,-0.0285 -0.34657,-0.17826 -0.24883,-0.16231 0.23984,0.0391 0.46023,0.15623 0.69035,0.23434 10.00946,3.75355 15.31778,-10.40197 5.30831,-14.15552 z" />
    <path
       style="fill:#000000;fill-opacity:1;fill-rule:nonzero;stroke:none"
       id="path20704"
       d="m 303.10753,420.61035 c -3.47937,1.5457 -6.60247,3.80148 -9.78281,5.87721 -2.74195,1.87888 -5.49709,3.78966 -7.36971,6.60785 -0.5218,0.78527 -0.93439,1.63786 -1.40159,2.45679 -1.8308,3.71204 -2.91898,7.7213 -3.8036,11.74701 -0.58419,2.97559 -0.81477,6.00633 -1.15645,9.01712 -0.2417,2.45309 -0.26498,4.91781 -0.64693,7.35613 -0.61089,2.41834 -1.01844,4.87944 -1.4484,7.33454 -0.48475,2.88365 -0.63691,5.80333 -0.71784,8.72133 -0.0438,2.04554 -0.0431,4.09163 -0.0397,6.13752 0.002,1.05013 10e-4,0.52734 0.003,1.56838 0.0218,10.69009 15.13991,10.6592 15.11807,-0.0309 v 0 c -0.002,-1.03936 -10e-4,-0.51837 -0.003,-1.56298 -0.003,-1.90027 -0.005,-3.80071 0.0341,-5.70068 0.0581,-2.18365 0.14897,-4.3697 0.49776,-6.53017 0.45195,-2.59257 0.92545,-5.17679 1.51394,-7.74241 0.36791,-2.60615 0.53611,-5.22253 0.71073,-7.84674 0.28406,-2.50516 0.48252,-5.02495 0.90767,-7.50932 0.57627,-2.68979 1.26503,-5.37723 2.39627,-7.89368 0.11255,-0.36117 0.25877,-0.89467 0.5423,-1.16722 0.93437,-0.89822 2.14169,-1.47466 3.1301,-2.30487 2.1734,-1.42047 1.04513,-0.69236 3.3866,-2.18154 1.5844,-1.02878 3.08691,-2.19684 4.89048,-2.83134 9.56152,-4.78077 2.8005,-18.30281 -6.76102,-13.52204 z" />
    <path
       style="fill:#000000;fill-opacity:1;fill-rule:nonzero;stroke:none"
       id="path20706"
       d="m 355.119,418.34673 c -3.43589,2.2451 -5.84349,5.52968 -8.01665,8.93728 -2.00858,3.09324 -3.21041,6.59123 -4.27638,10.09534 -0.91272,3.86336 -1.54116,7.78054 -2.46526,11.6414 -0.99611,4.40518 -1.97721,8.81372 -2.79834,13.25522 -0.67452,4.27541 -1.13369,8.58351 -1.44411,12.89993 -0.22612,3.56008 -0.27297,7.12789 -0.29809,10.694 -0.0938,2.07913 0.23278,4.1358 0.52969,6.18523 1.53532,10.57929 16.49669,8.40802 14.96137,-2.17127 v 0 c -0.18873,-1.29799 -0.46266,-2.58841 -0.37333,-3.90832 0.0225,-3.24296 0.0608,-6.48752 0.26025,-9.72534 0.26489,-3.75976 0.66998,-7.5104 1.23254,-11.23744 0.76632,-4.18469 1.70614,-8.33386 2.63568,-12.48478 0.85107,-3.57958 1.52335,-7.19105 2.23862,-10.79949 0.64634,-2.19384 1.33113,-4.41398 2.56942,-6.35552 0.54353,-0.86723 1.07594,-1.78062 1.71033,-2.58635 0.36883,-0.46845 0.87825,-0.82276 1.20656,-1.32044 0.0315,-0.0478 -0.11441,0.004 -0.17162,0.007 9.28162,-5.30378 1.78094,-18.42997 -7.50068,-13.12619 z" />
  </g>
</svg>
