<?xml version="1.0" encoding="UTF-8" standalone="no"?>
<!-- Created with Inkscape (http://www.inkscape.org/) -->

<svg
   width="512"
   height="512"
   viewBox="0 0 512 512"
   version="1.1"
   id="svg5"
   inkscape:version="1.1.1 (3bf5ae0d25, 2021-09-20)"
   sodipodi:docname="ikona.svg"
   xmlns:inkscape="http://www.inkscape.org/namespaces/inkscape"
   xmlns:sodipodi="http://sodipodi.sourceforge.net/DTD/sodipodi-0.dtd"
   xmlns="http://www.w3.org/2000/svg"
   xmlns:svg="http://www.w3.org/2000/svg">
  <sodipodi:namedview
     id="namedview7"
     pagecolor="#ffffff"
     bordercolor="#666666"
     borderopacity="1.0"
     inkscape:pageshadow="2"
     inkscape:pageopacity="0.0"
     inkscape:pagecheckerboard="0"
     inkscape:document-units="px"
     showgrid="false"
     inkscape:zoom="1.625"
     inkscape:cx="255.69231"
     inkscape:cy="206.76923"
     inkscape:window-width="1684"
     inkscape:window-height="1040"
     inkscape:window-x="2108"
     inkscape:window-y="0"
     inkscape:window-maximized="0"
     inkscape:current-layer="layer1" />
  <defs
     id="defs2" />
  <g
     inkscape:label="Vrstva 1"
     inkscape:groupmode="layer"
     id="layer1">
    <ellipse
       style="fill:#000000;stroke-width:1.27849"
       id="path53"
       cx="251.99998"
       cy="244.30769"
       rx="238.46155"
       ry="233.23076" />
    <ellipse
       style="fill:#ffffff;stroke-width:1.58699"
       id="path1841"
       cx="300.30768"
       cy="232.30769"
       rx="190.15384"
       ry="191.69231" />
    <ellipse
       style="fill:#ffffff;stroke-width:2.645"
       id="path1945"
       cx="347.07693"
       cy="251.07693"
       rx="157.53847"
       ry="131.69231" />
    <ellipse
       style="fill:#000000;stroke-width:1.15108"
       id="path2151"
       cx="318.76926"
       cy="225.23077"
       rx="68.92308"
       ry="67.076927"
       inkscape:transform-center-x="-51.076923"
       inkscape:transform-center-y="6.1538462" />
    <ellipse
       style="fill:#ffffff"
       id="path2379"
       cx="319.38461"
       cy="224.61537"
       rx="50.46154"
       ry="52.307693"
       inkscape:transform-center-x="-24.615385"
       inkscape:transform-center-y="27.692308" />
    <path
       style="fill:none;stroke:#000000;stroke-width:1px;stroke-linecap:butt;stroke-linejoin:miter;stroke-opacity:1"
       d="m 299.69231,289.84615 c -2.284,1.24262 -1.02332,4.50817 -1.84616,6.15385 -0.0917,0.18347 -0.47033,-0.14505 -0.61538,0 -0.26795,0.26795 -0.34026,2.04885 -0.61539,2.46154 -0.85377,1.28067 -2.2117,2.39449 -3.07692,3.69231 -0.35982,0.53972 -0.1567,1.38747 -0.61538,1.84615 -0.14505,0.14505 -0.47034,-0.14505 -0.61539,0 -0.59804,0.59805 -0.10792,1.78493 -0.61538,2.46154 -0.27521,0.36694 -0.95556,0.24844 -1.23077,0.61538 -0.86043,1.14725 -0.8271,3.28864 -1.84616,4.3077 -0.14504,0.14504 -0.52364,-0.18348 -0.61538,0 -0.77421,1.54841 -0.10001,1.01544 -0.61538,3.07692 -0.26065,1.04259 -1.45804,1.91257 -1.84616,3.07692 -0.34386,1.03159 -0.27152,2.04533 -0.61538,3.07692 -1.08893,3.2668 -3.42508,6.23477 -4.92308,9.23077 -0.69952,1.39904 -0.47537,3.41228 -1.23077,4.92308 -0.33076,0.66152 -0.90001,1.18464 -1.23077,1.84615 -0.46655,0.93311 -0.15587,2.77329 -0.61538,3.69231 -0.0917,0.18347 -0.47034,-0.14505 -0.61539,0 -0.28447,0.28447 0.18578,1.4746 0,1.84616 -0.30525,0.6105 -1.01829,1.20872 -1.23077,1.84615 -0.45898,1.37696 0.64624,3.6306 0,4.92308 -0.8173,1.6346 0.16717,3.97336 -0.61538,5.53846 -1.32796,2.65592 -0.76465,7.8324 -1.84616,11.07692 -0.61538,1.84616 0.61539,4.30769 0,6.15385 -0.74167,2.22503 -0.95747,21.19637 -0.61538,21.53846 0.14505,0.14505 0.52365,-0.18347 0.61538,0 0.66385,1.32769 0.67251,3.74943 1.84616,4.92308 0.0723,0.0723 1.22404,0.5952 1.23077,0.61538 0.1946,0.58381 -0.14926,1.24914 0,1.84615 0.1609,0.64361 1.93871,3.16949 2.46154,3.69231 0.14504,0.14505 0.52364,-0.18347 0.61538,0 0.18347,0.36695 -0.18347,0.86383 0,1.23077 0.0917,0.18347 0.47034,-0.14505 0.61539,0 0.41025,0.41026 -0.41026,0.82051 0,1.23077 0.14504,0.14505 0.47033,-0.14505 0.61538,0 0.75886,0.75886 0.95632,2.25357 1.23077,3.07692 0.64027,1.92082 0.41026,-0.20512 1.23077,0.61539 0.41025,0.41025 -0.41026,0.82051 0,1.23077 1.27325,1.27325 -0.0498,-1.9457 1.23077,0.61538 0.31737,0.63475 0.36207,1.41181 1.23077,1.84616 0.36694,0.18347 0.94067,-0.2901 1.23077,0 1.73276,0.0382 0.1567,1.38747 0.61538,1.84615 0.2901,0.2901 0.86383,-0.18347 1.23077,0 0.73846,0.36923 1.10769,1.47692 1.84615,1.84615 0.37296,0.18648 1.58828,0.35752 1.84616,0.61539 0.14505,0.14505 -0.14505,0.47034 0,0.61538 0.29009,0.2901 0.94067,-0.29009 1.23077,0 0.32433,0.32434 0.23374,0.97634 0.61538,1.23077 0.34136,0.22757 0.86383,-0.18347 1.23077,0 0.18347,0.0917 -0.18347,0.52365 0,0.61539 0.36695,0.18347 0.84157,-0.12974 1.23077,0 0.018,0.006 4.75571,3.52494 4.92308,3.6923"
       id="path2527" />
    <path
       style="fill:none;stroke:#000000;stroke-width:1px;stroke-linecap:butt;stroke-linejoin:miter;stroke-opacity:1"
       d="m 348.92308,284.92308 c 1.02564,1.23077 1.94406,2.55945 3.07692,3.6923 0.74953,0.74953 1.3749,0.28826 1.84615,1.23077 0.47082,0.94164 1.04032,2.27109 1.84616,3.07693 0.41025,0.41025 0.74802,0.90893 1.23077,1.23077 0.17067,0.11378 0.52365,-0.18348 0.61538,0 0.55596,1.11191 0.32353,1.86727 1.23077,3.07692 1.03385,1.37846 2.65846,2.31385 3.69231,3.69231 0.17724,0.23632 3.03178,4.83279 3.07692,4.92307 0.97493,1.94986 -1.27348,0.57268 0.61539,2.46154 0.32433,0.32434 0.97634,0.23374 1.23077,0.61539 0.7147,1.07206 1.51962,10.34851 1.84615,12.30769 0.35893,2.15359 1.43157,4.08093 1.84615,6.15385 0.35053,1.75265 0.1834,3.81051 0.61539,5.53846 0.0704,0.28143 0.41025,0.41025 0.61538,0.61538 0.20513,0.61539 0.48817,1.21008 0.61539,1.84616 0.43921,2.19606 0.67898,4.56207 1.23077,6.76923 -0.37091,1.11381 0.99688,1.1445 1.23077,1.84615 0.36516,1.09551 0.25021,2.5968 0.61538,3.69231 0.25806,0.77419 0.92811,1.55356 1.23077,2.46154 1.57942,4.73826 0.21353,10.08489 1.23077,14.15384 0.62446,2.49786 0.246,4.79896 0.61538,7.38462 1.69745,11.88211 0.25684,21.64016 -4.92307,32 -1.50141,3.00281 -4.11593,2.88515 -6.15385,4.92307 -0.14505,0.14505 0.18347,0.52365 0,0.61539 -0.36694,0.18347 -0.84157,-0.12974 -1.23077,0 -1.23695,0.41232 0.006,1.43384 -1.23077,1.84615 -0.90931,0.30311 -2.38319,0.53704 -3.07692,1.23077 -0.14505,0.14505 0.14505,0.47034 0,0.61539 -2.6761,2.6761 -1.915,1.64172 -3.69231,4.30769 -1.19492,1.79239 -3.16064,2.22361 -4.92308,3.69231 -0.35236,0.29364 -0.29104,0.90643 -0.61538,1.23077 -1.72155,1.72155 -3.77886,2.0657 -6.15385,2.46153"
       id="path2529" />
    <path
       style="fill:#000000;stroke-width:0.615385"
       d="m 298.36693,421.69231 c -1.62775,-1.1 -3.31082,-2 -3.74016,-2 -0.42934,0 -0.78062,-0.24537 -0.78062,-0.54527 0,-0.2999 -0.9,-0.99107 -2,-1.53594 -2.68522,-1.3301 -4.15384,-2.52202 -4.15384,-3.37125 0,-0.38576 -0.5265,-0.70139 -1.16999,-0.70139 -1.11048,0 -1.97576,-1.09056 -5.4462,-6.86422 -0.76199,-1.26769 -2.07737,-3.0515 -2.92308,-3.96404 -0.84571,-0.91253 -1.53766,-2.28139 -1.53766,-3.04191 0,-0.76052 -0.38657,-1.53111 -0.85904,-1.71241 -0.47247,-0.18131 -1.3456,-1.79453 -1.94028,-3.58494 -0.95969,-2.88936 -1.03116,-4.74476 -0.6358,-16.50543 0.24499,-7.28757 0.68566,-14.91166 0.97927,-16.94243 0.29361,-2.03077 0.85768,-6.6 1.2535,-10.15385 0.39581,-3.55385 1.10519,-7.33416 1.57639,-8.40069 0.4712,-1.06654 0.85673,-2.35168 0.85673,-2.85588 0,-0.50419 0.54777,-2.12388 1.21726,-3.5993 0.66949,-1.47543 1.22333,-3.18812 1.23077,-3.80599 0.007,-0.61787 1.09238,-2.97172 2.41099,-5.23077 1.31861,-2.25905 2.73037,-5.34547 3.13725,-6.8587 0.40687,-1.51323 1.12801,-3.30562 1.60252,-3.98308 0.47451,-0.67746 0.86275,-1.83281 0.86275,-2.56745 0,-0.73463 0.38927,-1.48507 0.86505,-1.66764 0.47578,-0.18257 1.04655,-1.1583 1.26837,-2.16828 0.22183,-1.00998 0.80179,-1.98923 1.2888,-2.17611 0.48701,-0.18689 0.88547,-0.90233 0.88547,-1.58987 0,-0.68755 0.27693,-1.25009 0.61539,-1.25009 0.33846,0 0.61538,-0.3063 0.61538,-0.68067 0,-0.37437 0.83077,-1.72961 1.84616,-3.01163 1.01538,-1.28203 1.84615,-2.77573 1.84615,-3.31933 0,-0.5436 0.27692,-0.98837 0.61539,-0.98837 0.33846,0 0.61538,-0.9163 0.61538,-2.03622 0,-1.11993 0.35818,-2.52607 0.79595,-3.12475 0.75079,-1.02678 1.08629,-1.03345 5.91413,-0.11762 6.68733,1.26856 19.87301,1.27226 26.54059,0.007 2.79342,-0.5299 7.66705,-1.88848 10.83031,-3.01907 l 5.75137,-2.05562 2.42506,2.55754 c 5.06742,5.34423 6.20413,6.66964 6.20413,7.23401 0,0.31999 1.05732,1.75253 2.3496,3.18343 3.35955,3.71991 5.03501,6.29505 5.03501,7.73866 0,0.6901 0.51904,1.61827 1.15343,2.06261 0.88165,0.61753 1.38624,2.40196 2.14153,7.57336 0.54346,3.721 1.40904,8.27966 1.9235,10.13034 0.51447,1.85069 0.93539,4.11896 0.93539,5.04061 0,0.92165 0.24826,1.82916 0.55168,2.01668 0.30343,0.18753 0.86567,2.21156 1.24944,4.49786 0.38377,2.28629 1.07429,4.98767 1.53449,6.00305 2.72429,6.01078 3.53462,12.04141 4.42389,32.92308 0.42714,10.03014 -0.18908,13.93757 -3.50931,22.25229 -1.77756,4.45146 -2.10237,4.85614 -5.83549,7.2704 -2.17424,1.40611 -3.95316,2.81565 -3.95316,3.13232 0,0.31667 -0.431,0.57576 -0.95777,0.57576 -0.52677,0 -1.70369,0.81061 -2.61538,1.80135 -3.91451,4.25392 -31.26305,10.09896 -51.60977,11.03024 l -8.72138,0.39918 z"
       id="path2568" />
    <path
       style="fill:#000000"
       id="path2673"
       d="m 293.46368,306.98717 c -2.59816,0.19524 -5.19384,0.40597 -7.79691,0.53255 -3.46051,-0.0903 -6.79452,0.83388 -10.09188,1.77299 -2.53462,0.7557 -5.10156,1.41173 -7.59516,2.29795 -7.04969,3.50596 -13.80876,7.70709 -20.59374,11.64561 -2.25432,1.86756 -4.10754,4.0894 -5.78683,6.46977 -0.94488,1.56034 -2.05523,3.06723 -2.8133,4.73578 -1.41271,3.10938 0.52082,-0.70603 -1.02613,2.26968 -0.98691,1.95904 -1.76642,4.00009 -2.58307,6.03241 -0.87492,1.63269 -1.73057,3.26421 -2.55461,4.92157 -0.9299,1.4108 -1.46066,2.94587 -1.58056,4.62136 -0.12438,1.89355 -0.14317,3.79275 -0.16053,5.68984 0.0816,2.20328 0.0326,4.40772 0.0479,6.61162 0.008,1.50266 0.007,0.7575 0.002,2.23548 0,0 13.21196,-6.73337 13.21196,-6.73337 v 0 c -0.008,-1.4752 -0.007,-0.72973 -0.003,-2.2364 0.008,-2.2132 -0.0555,-4.42675 0.0211,-6.63957 -0.007,-1.83116 -0.0238,-3.67232 0.24402,-5.48858 0.36332,-1.50266 1.01769,-2.8602 1.77504,-4.20585 0.8137,-1.67576 1.79478,-3.27089 2.4758,-5.00999 0.79453,-1.9945 1.60401,-3.98128 2.57356,-5.89957 1.10639,-2.34914 2.30733,-4.65838 3.87893,-6.73807 1.7399,-2.25142 3.6438,-4.41669 6.05938,-5.96783 -22.55515,12.95348 -10.14447,5.78197 -4.85409,2.88338 2.45708,-1.17082 5.14889,-1.73441 7.72229,-2.59318 3.16603,-0.97355 6.36686,-2.00892 9.71639,-1.93752 2.53838,-0.10274 5.07435,-0.26533 7.6061,-0.47517 0,0 12.10513,-8.79489 12.10513,-8.79489 z" />
    <path
       style="fill:#000000"
       id="path2675"
       d="m 355.15171,316.39744 c 2.91832,-0.0199 5.8263,-0.28184 8.74007,-0.42649 3.49017,-0.11167 7.01733,-0.4731 10.49443,-0.0231 1.88567,0.31487 3.60665,1.05296 5.29511,1.9093 1.42731,0.87415 2.94175,1.55679 4.50565,2.14325 1.34561,0.45772 2.64679,1.03626 3.89676,1.71119 0.98219,0.54711 1.81257,1.3182 2.60385,2.10749 0.98251,1.07563 2.05164,2.06494 3.08407,3.09099 0.8199,0.86053 1.85906,1.44502 2.74173,2.23023 1.09077,0.88249 2.19489,1.71027 3.12179,2.76935 0.88005,1.22536 1.73926,2.51132 2.34086,3.90036 0.7022,1.29296 1.27365,2.64016 1.86155,3.98774 0.4141,1.16868 0.80044,2.33534 0.99676,3.56235 0.34597,1.5411 -0.48355,2.79752 -1.00321,4.17843 -0.39675,1.65043 -0.86068,3.27104 -1.09698,4.95708 -0.39492,1.16326 -1.25298,2.08518 -1.83701,3.16117 -0.88728,1.18353 -1.90793,2.2292 -2.58342,3.56919 -0.72369,1.70116 -0.62105,3.53699 -0.31816,5.31895 0.63236,2.34048 1.71069,4.42854 3.1249,6.37924 1.29772,1.88838 3.10873,3.25805 4.8406,4.70959 0,0 12.5861,-7.84608 12.5861,-7.84608 v 0 c -1.61666,-1.41587 -3.4418,-2.60012 -4.67148,-4.413 -1.28354,-1.73549 -2.30944,-3.6147 -2.74276,-5.75416 -0.16064,-1.55809 -0.0581,-3.10615 0.82851,-4.4501 0.85107,-1.20522 1.89577,-2.2702 2.59452,-3.58022 0.72832,-1.13673 1.45678,-2.27849 1.57817,-3.66091 0.27976,-1.59001 0.69268,-3.15772 1.23181,-4.67966 0.60962,-1.59269 1.0294,-3.16256 0.64089,-4.87904 -0.2343,-1.34588 -0.63374,-2.65024 -1.15104,-3.91515 -0.61594,-1.32845 -1.18344,-2.67547 -1.89276,-3.95799 -0.67995,-1.51596 -1.61267,-2.91415 -2.53304,-4.29322 -0.94205,-1.12189 -2.01493,-2.04958 -3.1906,-2.917 -0.84142,-0.82896 -1.80465,-1.44626 -2.71374,-2.19193 -1.02006,-1.02748 -2.16917,-1.92483 -3.09136,-3.05136 -0.83766,-0.90939 -1.71536,-1.83683 -2.79415,-2.45693 -1.25904,-0.81809 -2.6852,-1.40061 -4.09869,-1.89233 -1.50466,-0.58367 -3.05083,-1.09845 -4.40154,-2.0075 -1.81081,-0.96207 -3.64177,-1.8228 -5.67792,-2.20458 -0.48758,-0.10131 -0.96839,-0.24378 -1.46273,-0.30392 -1.03939,-0.12645 -2.36638,-0.0533 -3.39879,-0.0289 -1.96363,0.0463 -3.92763,0.0746 -5.89082,0.13794 -2.81367,0.16185 -5.63415,0.3854 -8.45281,0.31488 0,0 -12.10512,8.79488 -12.10512,8.79488 z" />
    <path
       style="fill:#666666;fill-opacity:1;fill-rule:nonzero;stroke:none"
       id="path4164"
       d="m 296.32793,418.57342 c -2.86176,1.48186 -5.62404,3.12124 -8.28173,4.94253 -2.55006,1.83308 -4.81061,4.07252 -6.23737,6.90468 -0.29492,0.58543 -0.52291,1.20224 -0.78437,1.80336 -0.96993,2.40011 -1.61307,4.8887 -2.01827,7.44019 -0.28365,2.2286 -0.50081,4.47197 -0.85228,6.69134 -0.48827,2.24197 -0.39088,4.56658 -0.7405,6.82089 -0.16624,1.63496 -0.56549,3.22685 -0.85635,4.84141 -0.20441,1.35626 -0.54264,2.69114 -0.85029,4.02956 -0.51227,2.21673 -0.66819,4.49289 -0.762,6.75956 -0.0631,2.30896 -0.0508,4.6192 -0.0495,6.92879 0.002,2.63589 0.005,5.27179 0.006,7.90768 6.5e-4,1.20766 8.4e-4,2.41532 9.9e-4,3.62298 10e-4,10.69004 15.11934,10.68815 15.118,-0.002 v 0 c -1.5e-4,-1.20985 -3.5e-4,-2.41969 -9.9e-4,-3.62954 -0.001,-2.63583 -0.004,-5.27165 -0.006,-7.90748 -10e-4,-2.10688 -0.0119,-4.21426 0.0376,-6.32071 0.0495,-1.32889 0.10684,-2.67066 0.38988,-3.97354 0.36352,-1.58235 0.73852,-3.16679 1.00086,-4.76883 0.32583,-1.87217 0.78935,-3.72021 0.97348,-5.61616 0.24494,-2.14217 0.31136,-4.30345 0.6867,-6.43111 0.3294,-2.23748 0.59572,-4.48674 0.85845,-6.73245 0.17179,-1.40495 0.60426,-2.74292 1.1078,-4.06317 -0.28638,-0.52038 1.31811,-1.65549 1.55701,-1.85737 2.46276,-1.71078 5.08908,-3.12941 7.71541,-4.57068 9.06514,-5.66571 1.05262,-18.48575 -8.01252,-12.82004 z" />
    <path
       style="fill:#666666;fill-opacity:1;fill-rule:nonzero;stroke:none"
       id="path4298"
       d="m 338.37328,417.07265 c -1.16177,2.13656 -2.2853,4.29131 -3.39633,6.45454 -1.06879,2.22525 -1.95453,4.52543 -3.11647,6.70506 -1.54788,2.70472 -2.39865,5.69468 -3.16552,8.69179 -0.70491,2.86161 -1.15744,5.77437 -1.38814,8.71032 -0.12959,2.21929 -0.1145,4.44359 -0.11135,6.66568 0.005,1.69927 0.01,3.39854 0.0127,5.09782 0.002,1.89245 0.002,3.7849 0.002,5.67735 4e-5,2.16809 -3e-5,4.33617 -6e-5,6.50425 -0.0283,2.13905 -0.29949,4.26894 -0.43184,6.40553 -0.14332,2.4315 -0.16669,4.86757 -0.18233,7.30252 -0.0641,1.63015 0.0397,3.25013 0.22179,4.86905 1.24932,10.61678 16.26373,8.84997 15.0144,-1.76681 v 0 c -0.12851,-1.00125 -0.16633,-1.99351 -0.1185,-3.00598 0.0136,-2.15857 0.0302,-4.31825 0.15433,-6.47392 0.14789,-2.44409 0.4718,-4.87939 0.46015,-7.33015 3e-5,-2.16839 1e-4,-4.33677 6e-5,-6.50516 -9e-5,-1.90056 2.7e-4,-3.80112 -0.002,-5.70169 -0.003,-1.69818 -0.008,-3.39635 -0.0127,-5.09452 -0.003,-1.83713 -0.0167,-3.67568 0.0689,-5.51133 0.14267,-2.05967 0.48759,-4.09821 0.96181,-6.10727 0.47532,-1.8715 0.91311,-3.76125 1.92029,-5.43547 1.14581,-2.22383 2.15367,-4.50668 3.16266,-6.79435 1.00632,-1.96216 2.02238,-3.91746 3.07229,-5.85663 5.30374,-9.28155 -7.82236,-16.78218 -13.1261,-7.50063 z" />
    <path
       style="fill:#ffffff;stroke-width:0.615385"
       d="m 277.70202,492.97478 -2.00971,-1.79444 -0.18926,-12.69214 c -0.14386,-9.64739 0.04,-13.83022 0.76643,-17.43632 0.52564,-2.6093 1.51964,-9.12601 2.2089,-14.48156 1.31214,-10.19542 2.5101,-14.36101 5.27909,-18.35666 1.83383,-2.64621 8.04412,-7.03803 13.45525,-9.51533 3.24914,-1.4875 3.65223,-1.53959 5.74636,-0.74255 3.15876,1.20223 5.23837,4.42242 4.83663,7.48932 -0.38341,2.927 -2.03729,4.73698 -6.83996,7.48551 -6.87901,3.9368 -6.6499,3.46729 -8.34739,17.10667 -0.68194,5.4795 -1.53898,11.07041 -1.90452,12.42426 -0.36554,1.35384 -0.84652,8.36929 -1.06884,15.58988 l -0.40423,13.12835 -2.00971,1.79473 c -2.83053,2.52775 -6.68826,2.52786 -9.51904,2.8e-4 z"
       id="path4520" />
    <path
       style="fill:#000000;stroke-width:0.615385"
       d="m 332.19256,496.54594 c -2.34103,-0.6697 -4.33349,-3.0176 -4.82462,-5.68529 -0.19619,-1.06567 -0.10444,-12.59911 0.20387,-25.62988 0.63374,-26.78399 0.56052,-26.34454 6.48497,-38.92308 1.55429,-3.3 2.69659,-6 2.53845,-6 -0.15815,0 0.13261,-0.48461 0.64612,-1.07692 0.51351,-0.59231 1.75759,-2.08036 2.76463,-3.30677 3.04653,-3.71021 7.87657,-3.53753 10.96762,0.39211 2.16442,2.75162 1.72266,5.07988 -2.60098,13.70816 -6.42147,12.81473 -6.37016,12.48703 -6.77925,43.29639 -0.21178,15.94925 -0.40213,19.09066 -1.23365,20.35973 -1.68758,2.57557 -5.05309,3.75641 -8.16716,2.86555 z"
       id="path4559" />
    <path
       style="fill:#000000;stroke-width:0.615385"
       d="m 280.30801,494.07788 c -0.84598,-0.33734 -2.16137,-1.19883 -2.92308,-1.91442 C 276.0336,490.89394 276,490.54783 276,477.89578 c 0,-13.02897 1.04279,-22.96571 4.06765,-38.76069 1.46611,-7.65563 4.28604,-12.02741 10.49878,-16.27637 2.80851,-1.92078 9.19413,-5.01257 10.35269,-5.01257 1.80849,0 4.58673,1.84421 5.532,3.67217 2.19962,4.25359 0.73882,7.1937 -5.39261,10.85358 -4.83909,2.88847 -5.98034,3.87067 -6.70729,5.77256 -1.39366,3.64618 -4.27869,26.81509 -4.90539,39.394 -0.71992,14.44982 -0.8092,14.76409 -4.65683,16.39263 -2.27973,0.9649 -2.41795,0.96943 -4.48099,0.14679 z"
       id="path4635" />
    <path
       style="fill:#000000;stroke-width:0.615385"
       d="m 331.23851,495.65207 c -3.23147,-1.75337 -3.54778,-3.30507 -3.52946,-17.31382 0.0249,-19.00649 0.96579,-36.79537 2.15416,-40.7255 1.54111,-5.0967 7.16131,-17.33818 9.16236,-19.95672 3.55736,-4.65509 8.00405,-5.25674 11.15707,-1.50959 2.32852,2.76729 1.85928,5.35797 -2.72208,15.02878 -5.31599,11.22154 -5.57148,12.83965 -6.14187,38.89948 -0.3432,15.67997 -0.70112,22.33454 -1.25652,23.36201 -0.79815,1.47655 -4.09562,3.19777 -6.0424,3.15403 -0.60318,-0.0135 -1.85475,-0.43595 -2.78126,-0.93867 z"
       id="path4674" />
    <path
       style="fill:none;stroke-width:0.615385"
       d="m 279.01408,492.7478 -2.091,-1.40604 -0.3077,-6.44011 c -0.85559,-17.90786 2.29726,-44.81688 6.17743,-52.72323 2.25181,-4.58835 6.35059,-8.38373 12.43271,-11.51239 5.27696,-2.71449 7.16991,-2.79131 9.57271,-0.38851 4.05447,4.05447 2.85185,7.19396 -4.70119,12.27262 -3.04858,2.04986 -5.69202,4.2185 -5.87431,4.81921 -1.62988,5.37099 -3.7738,22.38215 -5.01032,39.75506 -0.50174,7.0492 -1.19568,13.34633 -1.54211,13.99363 -0.7311,1.36607 -3.69836,3.03581 -5.39489,3.03581 -0.64368,0 -2.11128,-0.63272 -3.26133,-1.40605 z"
       id="path4713" />
    <path
       style="fill:#000000;fill-opacity:1;fill-rule:nonzero;stroke:none"
       id="path4851"
       d="m 297.04115,413.18977 c -0.204,1.373 -0.15097,2.9202 -0.81889,4.1803 -3.80228,9.99098 10.3271,15.36821 14.12938,5.37723 v 0 c 0.88881,-2.48416 1.52554,-5.03775 1.69076,-7.68238 1.32594,-10.60749 -13.67532,-12.48264 -15.00125,-1.87515 z" />
    <circle
       id="path4853"
       style="fill:#000000;stroke:#000000"
       cx="302.76923"
       cy="412.30768"
       r="0.30980271" />
    <circle
       id="path4855"
       style="fill:#000000;stroke:#000000"
       cx="302.76923"
       cy="412.30768"
       r="0.30980271" />
    <circle
       id="path4857"
       style="fill:#000000;stroke:#000000"
       cx="344.61539"
       cy="407.38461"
       r="0.30980271" />
    <circle
       id="path4859"
       style="fill:#000000;stroke:#000000"
       cx="344.61539"
       cy="407.38461"
       r="0.30980271" />
    <path
       style="fill:#000000;fill-opacity:1;fill-rule:nonzero;stroke:none"
       id="path4861"
       d="m 337.65653,407.03592 c -0.10136,1.01735 -0.21488,2.04088 -0.59864,2.9946 -3.25788,10.18152 11.14096,14.78885 14.39883,4.60734 v 0 c 0.56353,-1.87512 1.05946,-3.76408 1.20107,-5.72678 1.32593,-10.60749 -13.67532,-12.48265 -15.00126,-1.87516 z" />
    <path
       style="fill:#000000;fill-opacity:1;fill-rule:nonzero;stroke:none"
       id="path4863"
       d="m 337.76973,404.1025 c -0.63831,2.50091 -1.22645,5.01456 -1.8164,7.52763 -0.76401,3.62407 -0.86481,8.1245 2.57378,10.7164 1.60731,1.21154 3.83566,1.22181 5.75349,1.83272 1.45746,-0.54244 3.01554,-0.86745 4.37238,-1.62732 0.79762,-0.44669 1.37177,-1.2186 1.95956,-1.91876 1.6724,-1.99211 2.19544,-4.55056 2.55491,-7.03806 0.0404,-0.4699 0.0808,-0.9398 0.12124,-1.4097 0.8581,-10.65554 -14.21111,-11.86909 -15.06921,-1.21354 v 0 c -0.0171,0.24374 -0.0341,0.48749 -0.0512,0.73123 -0.004,0.11785 -0.0331,0.23728 -0.0133,0.35354 0.004,0.0256 0.0517,-0.0194 0.0666,-0.0408 0.30777,-0.44158 0.26779,-0.56909 0.70699,-0.97635 1.72805,-1.60238 1.57806,-1.06809 4.64282,-1.96161 1.63016,0.62442 3.5549,0.74917 4.89047,1.87325 1.17487,0.98883 1.52567,2.67013 2.16603,4.06585 0.20953,0.45667 -0.2875,1.41342 0.0461,0.0565 0.51498,-2.21156 1.05295,-4.41757 1.57619,-6.62689 3.07176,-10.2392 -11.40866,-14.58333 -14.48042,-4.34413 z" />
    <path
       style="fill:#000000;fill-opacity:1;fill-rule:nonzero;stroke:none"
       id="path4865"
       d="m 223.559,14.106735 c 0,-2.751786 0,-5.5035731 0,-8.2553598 0,-1.7086599 0,-3.4173197 0,-5.12597957 0,-10.69004033 -15.118,-10.69004033 -15.118,0 v 0 c 0,1.70865987 0,3.41731967 0,5.12597957 0,2.7517867 0,5.5035738 0,8.2553598 0,10.690041 15.118,10.690041 15.118,0 z" />
  </g>
</svg>
