<?xml version="1.0" encoding="UTF-8" standalone="no"?>
<!-- Created with Inkscape (http://www.inkscape.org/) -->

<svg
   width="210mm"
   height="297mm"
   viewBox="0 0 210 297"
   version="1.1"
   id="svg5"
   inkscape:version="1.1.1 (3bf5ae0d25, 2021-09-20)"
   sodipodi:docname="ikona.svg"
   xmlns:inkscape="http://www.inkscape.org/namespaces/inkscape"
   xmlns:sodipodi="http://sodipodi.sourceforge.net/DTD/sodipodi-0.dtd"
   xmlns="http://www.w3.org/2000/svg"
   xmlns:svg="http://www.w3.org/2000/svg">
  <sodipodi:namedview
     id="namedview7"
     pagecolor="#ffffff"
     bordercolor="#666666"
     borderopacity="1.0"
     inkscape:pageshadow="2"
     inkscape:pageopacity="0.0"
     inkscape:pagecheckerboard="0"
     inkscape:document-units="mm"
     showgrid="false"
     inkscape:lockguides="false"
     inkscape:zoom="0.94316065"
     inkscape:cx="256.05394"
     inkscape:cy="565.12112"
     inkscape:window-width="1684"
     inkscape:window-height="1040"
     inkscape:window-x="1944"
     inkscape:window-y="1"
     inkscape:window-maximized="0"
     inkscape:current-layer="layer1" />
  <defs
     id="defs2">
    <clipPath
       clipPathUnits="userSpaceOnUse"
       id="clipPath2233">
      <path
         id="path2235"
         style="fill:#ff0000;fill-opacity:1;fill-rule:nonzero;stroke:none;stroke-width:0.264583"
         d="M 4.1640868,38.107234 V 233.86531 H 200.35211 v -65.2632 c -0.23192,0.0139 -0.4644,-0.0309 -0.68368,-0.13333 -0.033,0.0985 -0.0425,0.15104 -0.0842,0.27027 -0.0556,0.14243 -0.11322,0.28423 -0.16692,0.42737 -0.16404,0.43686 -0.30081,0.86648 -0.50178,1.28932 -0.0215,0.0453 -0.0584,0.13104 -0.0915,0.20412 0.004,0.0924 0.009,0.18496 0.005,0.27699 -0.008,0.16258 -0.0515,0.33143 -0.14056,0.46767 -0.78215,1.19644 -1.16751,1.44647 -2.20607,2.00505 -0.0642,0.35433 -0.0596,0.19052 -0.50798,1.08314 -0.55418,0.48536 -0.47373,0.43918 -0.72347,0.59841 -0.0469,0.1619 -0.0902,0.32529 -0.14418,0.48421 -0.41158,0.43304 -0.49574,0.54518 -0.92397,0.91519 -0.0937,0.081 -0.20035,0.14727 -0.29197,0.22996 0.0217,0.007 0.0184,0.0416 0.0274,0.0625 -0.16543,0.35742 -0.43107,0.64237 -0.68316,0.93586 0.0398,-0.12426 0.0777,-0.24896 0.11627,-0.37363 -0.0145,-0.16144 -0.0138,-0.644 -0.0439,-0.48472 -0.0773,0.40995 -0.10651,0.69498 -0.12351,0.91984 0.0166,-0.0196 0.0329,-0.0395 0.0496,-0.0589 -0.009,0.0284 -0.0168,0.0571 -0.0263,0.0853 -0.003,0.009 -0.0207,0.0206 -0.0295,0.0315 0.001,-0.0165 0.004,-0.0407 0.006,-0.0579 -0.0435,0.0515 -0.0894,0.10158 -0.13074,0.15451 -0.0349,0.0448 0.0743,-0.0324 0.12454,-0.0956 -0.0446,0.63904 -0.002,0.72047 -0.67489,1.47846 -0.0123,-0.4531 -0.37261,-1.51999 -0.39946,-1.19682 -0.0404,0.48652 0.0118,0.97578 0.0517,1.46451 0.0592,-0.0431 0.11753,-0.086 0.16226,-0.13488 0.016,0.015 0.0272,0.0201 0.0408,0.03 -0.0161,0.0179 -0.0253,0.0293 -0.0424,0.0481 -0.0373,0.041 -0.0973,0.11599 -0.15193,0.18397 0.0241,0.32271 0.0415,0.6452 0.0129,0.96635 -0.0279,0.3131 -0.32198,0.54375 -0.43202,0.83819 0.0375,-0.11181 0.17637,-0.43458 0.11266,-0.33538 -0.19963,0.31066 -0.29154,0.69607 -0.50746,0.99064 -0.0433,0.13716 -0.0859,0.27484 -0.13229,0.41083 -0.10577,0.16943 -0.18442,0.35886 -0.3173,0.50798 -0.51446,0.57725 -0.73623,0.77126 -1.14721,1.03611 -0.11296,0.26582 -0.22842,0.53013 -0.35916,0.78755 -0.0807,0.15897 -1.19826,1.7637 -1.341,1.6955 -3.26754,-1.56138 -3.24286,-0.9415 -2.72386,-2.58899 -0.0517,-10e-4 -0.12833,0.0403 -0.15503,-0.003 -0.0683,-0.11325 -0.0786,-0.25638 -0.0806,-0.38861 -0.0259,-1.39061 0.0561,-0.97696 1.07694,-2.33216 0.68706,-0.91206 0.92003,-0.62289 0.98082,0.0992 0.3088,-0.20231 0.74298,-0.13348 0.8754,-0.57877 0.0117,0.16161 -0.0461,0.62522 0.0346,0.48472 0.1053,-0.18335 0.0335,-0.42173 0.0501,-0.63252 0.0591,-0.06 0.1182,-0.11986 0.17725,-0.17983 0.0229,-0.0866 0.0452,-0.1694 0.11059,-0.42375 0.16371,-0.35995 0.28697,-0.70436 0.40204,-0.86661 -0.004,-0.23018 0.0334,-0.47881 0.0506,-0.88625 0.21447,-0.38355 0.40945,-0.7783 0.64337,-1.15032 0.0374,-0.0594 0.0985,-0.10691 0.16381,-0.13281 0.0222,-0.009 0.0319,0.039 0.0548,0.046 0.007,0.002 0.0114,-0.007 0.0165,-0.0129 0.0388,-0.23925 0.0705,-0.48047 0.13384,-0.71417 0.18525,-0.68431 0.70314,-0.94386 0.98444,-1.53531 0.0269,-0.0368 0.054,-0.0735 0.0806,-0.11058 -1.69383,0.2487 -2.68017,-1.68649 -0.75861,-3.60805 0.32728,-0.32728 0.67954,-0.63137 0.98185,-0.98185 0.2237,-0.25935 0.40942,-0.55069 0.59067,-0.8413 0.13039,-0.20908 0.20915,-0.46402 0.32607,-0.69349 -0.0899,-0.50645 -0.005,-1.13837 0.34262,-1.86656 0.73584,-1.5416 0.98242,-3.21082 1.23093,-4.66379 0.042,-0.15666 0.0718,-0.31744 0.12609,-0.47026 0.086,-0.24192 0.14911,-0.40049 0.21653,-0.54622 5.3e-4,-0.18571 -1.4e-4,-0.37141 0,-0.55707 0.0125,-0.87247 0.53328,-1.77788 0.84387,-2.62723 -0.002,-0.0199 -0.005,-0.0395 -0.006,-0.0594 -0.0214,-0.30225 -5.3e-4,-0.60598 0,-0.90899 0.003,-1.4151 0.0237,-2.8301 0.0217,-4.24522 -0.002,-0.1544 -0.008,-0.30906 -0.0114,-0.46354 -0.1766,-0.40525 -0.2868,-0.91053 -0.2868,-1.52703 v -3.19102 -2.49391 c -0.0482,-1.00335 0.53234,-1.76649 1.31981,-2.27635 0.0708,-0.0459 0.14028,-0.1484 0.21704,-0.15037 0.011,-2.7e-4 0.0223,0.002 0.0336,0.006 0.29661,0.11226 0.58632,0.24094 0.87385,0.37465 0.0107,-5.3e-4 0.0214,-0.002 0.032,-0.003 0.20586,-0.005 0.40688,0.0383 0.5948,0.12247 0.0254,-0.7606 0.23908,-1.50192 0.46663,-2.22829 0.005,-0.0894 0.0365,-0.2138 0.0858,-0.3607 -0.0144,-0.24559 -0.0278,-0.42656 -0.045,-0.92914 -0.01,-0.31071 0.0163,-0.62244 -0.002,-0.93276 -0.0308,-0.51122 -0.20305,-0.99136 -0.33796,-1.48053 -0.0452,-0.15783 -0.0869,-0.31652 -0.1354,-0.47336 -0.0789,-0.25527 -0.22173,-0.49365 -0.25993,-0.75809 -0.1444,-1.00061 -0.11536,-1.7244 -0.0444,-2.69803 0.0549,-0.64703 0.003,-1.2647 5.3e-4,-1.94045 0.008,-0.79887 0.007,-1.59785 0.006,-2.39675 -0.0697,-0.82132 0.0864,-1.66677 -5.3e-4,-2.48615 -0.0254,-0.23964 -0.0809,-0.47507 -0.12144,-0.71262 -0.37652,-1.5204 -0.17676,-3.07739 -0.14056,-4.61832 -0.003,-0.2236 -0.002,-0.44717 -0.005,-0.67077 -0.98773,-0.0778 -1.82759,-1.14153 -1.38648,-2.99051 0.12395,-0.5195 0.21195,-1.04537 0.27596,-1.57458 -0.0901,-0.25131 -0.10905,-0.54376 -0.18449,-0.8015 -0.28468,-0.9726 -0.42886,-1.9978 -0.87591,-2.91352 -0.31129,-0.90055 -0.39904,-1.84401 -0.57568,-2.77296 -0.0528,-0.27785 -0.0921,-0.52063 -0.23564,-0.76429 -0.4938,-1.62114 -1.10172,-3.19656 -1.57355,-4.82658 -0.25054,-0.75831 -0.34676,-1.18583 -0.32556,-2.03088 0.005,-0.19518 0.13172,-0.38792 0.0904,-0.57878 -0.0211,-0.0979 -0.0602,0.24925 -0.16019,0.25425 -0.0941,0.004 -0.10028,-0.15946 -0.15038,-0.23926 -0.35947,-0.70585 -0.55699,-1.459367 -0.72451,-2.222089 -0.62241,-0.180948 -1.26974,-0.739492 -1.73788,-1.769401 -0.7229,-1.590379 -0.74382,-1.565166 -1.37045,-3.245794 -0.40121,-1.075989 -0.16768,-0.63781 -0.51419,-1.408184 -0.01,-0.02148 0.0302,0.08836 0.0171,0.06873 -0.0943,-0.141922 -0.17533,-0.292108 -0.26303,-0.438216 -0.47934,-0.800708 -0.68485,-1.686023 -1.12242,-2.507858 -0.37266,-0.5217 -0.48105,-1.170178 -0.73793,-1.74098 -0.051,-0.113289 -0.18078,-0.176453 -0.23978,-0.285771 -0.18466,-0.342006 -0.34956,-0.694208 -0.52452,-1.041278 -0.67462,-1.768023 -1.81198,-3.295782 -2.79518,-4.894276 -0.25415,-0.413205 -0.49486,-0.834445 -0.73897,-1.25367 -0.55878,-0.103761 -1.18358,-0.460864 -1.78542,-1.162203 -0.51604,-0.601351 -1.05395,-1.186387 -1.61179,-1.752349 -1.07359,0.158165 -2.23467,-0.653804 -2.574,-1.734259 -0.33388,-0.648184 -0.0226,-0.118015 -0.67386,-0.811321 -0.12427,-0.02889 -0.24274,-0.05814 -0.37879,-0.08681 -0.0332,-0.007 -0.004,-0.06796 -0.0109,-0.101288 -0.0214,-0.108077 -0.0455,-0.215693 -0.0682,-0.323493 -0.0319,-0.03717 -0.0646,-0.07362 -0.0961,-0.111106 -0.024,-0.01905 -0.0482,-0.03783 -0.0724,-0.05684 -0.37024,-0.05872 -0.64832,-0.407694 -1.60093,-1.490348 -0.16752,-0.190378 0.0768,-0.547312 0.0579,-0.791167 -0.0388,-0.05706 -0.0767,-0.114814 -0.11523,-0.172083 -0.1222,0.01326 -0.12959,0.635879 -0.33435,0.599964 -0.18306,-0.0321 -0.30599,-0.174064 -0.41858,-0.336931 -0.14234,0.152413 -0.29333,0.296317 -0.45889,0.426331 -0.37242,0.208791 -0.69271,0.58089 -1.11724,0.626319 -2.74513,0.29378 -3.23847,-2.21669 -3.88814,-4.202327 -0.21765,-0.64938 -0.42902,-1.280326 -0.61185,-1.918747 -0.0164,-0.01249 -0.0327,-0.02522 -0.0491,-0.03772 -0.35333,-0.20638 -0.63126,-0.501219 -0.9126,-0.790133 -0.39939,0.03844 -0.79821,0.05005 -1.1958,-0.0011 -0.27051,-0.03476 -0.2175,-0.503914 -0.2775,-0.769977 -0.024,-0.106547 -0.0431,-0.204644 -0.0589,-0.297656 -0.0879,-0.05667 -0.17503,-0.114578 -0.25787,-0.178284 -0.25548,-0.196472 -0.40866,-0.388192 -0.6258,-0.627354 -0.0769,-0.08652 -0.12387,-0.214841 -0.23047,-0.259932 -0.0616,-0.02604 0.0911,0.127852 0.0656,0.189654 -0.0175,0.04236 -0.0954,0.0029 -0.13643,-0.01757 -0.3072,-0.152979 -0.61539,-0.308004 -0.90072,-0.498676 -0.53067,-0.464968 -0.3075,-0.322717 -0.61392,-0.504362 -0.38722,-0.137689 -0.61358,-0.545446 -0.92035,-0.792718 -0.0205,-0.01651 -0.0511,0.03082 -0.076,0.02222 -0.0834,-0.02864 -0.16346,-0.0652 -0.24546,-0.09767 -0.057,-0.02096 -0.12475,-0.02318 -0.17105,-0.06253 -0.0821,-0.06981 -0.16488,-0.140044 -0.24805,-0.209291 -0.74278,0.282408 -1.50462,0.510379 -2.28875,0.558107 -0.44439,0.02705 -0.29455,-2.386394 -0.26665,-2.452563 0.008,-0.05181 0.0157,-0.10372 0.0238,-0.155546 -0.0123,0.01868 -0.0241,0.0378 -0.0367,0.05633 -0.12397,0.182144 -0.21247,0.565338 -0.42478,0.506428 -1.10759,-0.307292 -2.07457,-0.989949 -3.11144,-1.486214 0.002,0.1032 0.002,0.127553 -0.008,-0.0036 0.003,0.0013 0.005,0.0024 0.008,0.0036 -10e-4,-0.06967 -0.004,-0.154025 -0.005,-0.33073 -0.0124,-0.248639 -0.0382,-0.496707 -0.0537,-0.745172 -0.002,-0.03619 -0.004,-0.07233 -0.007,-0.108522 -0.51756,0.01125 -1.28388,-0.01828 -2.42827,-0.02429 -0.24117,-0.0013 -0.1702,-1.089359 -0.0966,-1.83038 -0.18636,0.378756 -0.38356,0.751904 -0.59014,1.117246 -0.20715,0.366307 -0.30409,0.519583 -0.3576,0.595828 -0.008,0.11535 -0.0147,0.234918 -0.0961,0.235646 -0.031,0.05235 -0.0893,0.115713 -0.10956,0.163814 0.0418,-0.09905 0.0508,-0.120703 0.0698,-0.165881 -1.20192,-0.139729 -2.4219,-0.336237 -3.54036,-0.79685 -0.16877,-0.06951 0.0491,-0.324877 0.14366,-0.520899 -0.01,-0.04394 0.069,-0.128455 0.0848,-0.186552 0.11017,-0.405966 0.18484,-0.821479 0.308,-1.223698 0.19271,-0.629436 0.39922,-1.254451 0.60254,-1.880505 -0.56196,0.587949 -1.61783,0.297595 -1.90014,-1.138949 -0.0186,-0.09475 -0.0372,-0.189471 -0.0558,-0.284221 -0.0235,-0.112768 -0.0182,-0.234506 -0.0667,-0.338997 -0.22947,-0.494488 -0.68915,-0.842463 -1.00408,-1.287259 -0.13109,-0.06072 -0.2614,-0.146532 -0.48524,-0.366387 -0.64682,-0.635347 -0.62873,-1.042612 -0.58963,-1.982825 0.005,-0.115094 0.058,-0.220826 0.10491,-0.328144 -0.003,-0.0046 -0.006,-0.0094 -0.009,-0.01394 -0.0181,0.04054 -0.0245,0.04789 -0.0367,0.07183 7.9e-4,-0.03566 0.009,-0.0705 0.0119,-0.105936 -0.08,-0.109575 -0.1517,-0.220896 -0.23668,-0.328147 -0.10481,-0.03219 -0.2684,-0.08366 -0.30954,-0.09663 -0.0331,-0.0048 -0.0806,-0.01045 -0.11989,-0.0155 -0.0231,0.358934 -0.0873,0.73274 -0.22066,1.166855 -0.0626,0.203579 -0.69087,0.714301 -0.72968,0.749308 -0.29667,0.06107 -0.61836,0.316701 -0.89038,0.183452 -0.7149,-0.350179 -0.9535,-0.729732 -1.02629,-1.172022 -0.044,0.164258 -0.0972,0.326723 -0.16382,0.486793 -0.0234,0.05635 -0.68281,1.10199 -0.68781,1.109493 -0.12333,0.175948 -0.19327,0.30507 -0.22893,0.397907 0.0232,0.02514 0.0457,0.05071 0.0677,0.077 0.10514,0.125855 -0.19336,0.249719 -0.0677,-0.077 -0.1485,-0.160962 -0.31962,-0.300987 -0.47645,-0.454236 -1.58901,-1.552694 0.90162,3.543659 -0.78807,2.101164 -0.22806,-0.194707 -0.49705,-0.349647 -0.6842,-0.583943 -0.52355,-0.655339 -0.17137,-2.05042 0.27751,-2.655136 0.13403,-0.212979 0.26148,-0.42999 0.40204,-0.63872 0.0595,-0.0883 0.21035,-0.11489 0.23203,-0.219107 0.0379,-0.180112 -0.008,-0.368617 0.008,-0.551905 0.0496,-0.568124 0.10175,-0.952661 0.16588,-1.341519 -0.0191,0.07495 -0.0588,0.173535 -0.0956,0.269232 -0.0296,0.143502 -0.0592,0.286887 -0.11162,0.42323 -0.0758,0.197151 -0.0937,0.497017 -0.29507,0.560689 -0.0329,0.0104 -0.0663,0.01828 -0.10026,0.02479 -0.005,0.008 -0.008,0.01254 -0.0124,0.02066 0.12543,-0.02674 -0.27577,1.320607 -0.28578,1.357024 -0.25833,0.939827 -0.82875,1.346222 -1.33325,1.32705 -0.0181,0.03794 -0.0347,0.07621 -0.0491,0.115755 -0.57368,1.43115 -0.88286,1.563809 -2.60294,0.243396 -0.0496,-0.03805 0.0663,-0.687134 0.0894,-0.827339 0.01,-0.05783 0.02,-0.115803 0.03,-0.173633 0.12273,-0.71369 0.4414,-1.15189 0.80099,-1.345655 -0.004,-0.168204 -0.0166,-0.78645 0.061,-0.608232 -0.2082,-0.751742 -0.1428,-0.88329 0.23151,-1.392679 -0.0225,0.03448 -0.0445,0.07186 -0.0496,0.09612 -0.006,0.02989 0.0656,-0.02127 0.077,-0.04961 0.0529,-0.131675 0.073,-0.274611 0.10904,-0.411861 0.0702,-0.243464 0.26461,-0.950685 0.3607,-1.024742 0.0347,-0.02674 0.0707,-0.05004 0.10852,-0.0708 0.21939,-0.610854 0.57912,-1.504151 0.99426,-1.799373 0.0895,-0.06365 0.19059,-0.102333 0.29714,-0.130225 0.19231,-0.506061 0.29738,-0.858092 0.54053,-1.5875 h 5.3e-4 c 0.29628,-0.88886 0.84634,-1.277041 1.33067,-1.270207 h 5.3e-4 c 0.66387,0.0097 1.20405,0.761233 0.79788,1.979724 -0.003,0.0081 -0.005,0.01622 -0.008,0.02429 0.20279,0.34272 0.25046,0.873884 -0.007,1.557525 -0.0183,0.04874 -0.0271,0.07117 -0.0439,0.115755 0.23915,-0.213032 0.51761,-0.315497 0.7829,-0.311607 h 5.3e-4 c 0.12094,0.0019 0.23589,0.03236 0.34571,0.07596 0.0313,-0.207891 0.086,-0.389075 0.1571,-0.544669 0.006,-0.870561 0.6144,-1.493287 1.48053,-1.509469 0.6275,-0.01172 1.38722,0.294273 2.14509,1.052132 l 1.82366,1.823146 c 0.18704,0.187007 0.34475,0.40921 0.5612,0.561205 0.0155,0.01085 0.031,0.01487 0.0465,0.02429 0.44522,-0.409393 1.16105,-0.698151 2.16835,-0.698151 h 2.52491 c 0.0754,0 0.1244,-7.94e-4 0.19172,-0.0016 0.19908,-0.45875 0.39491,-0.918982 0.6041,-1.373042 0.31233,-0.67796 0.44177,-0.916704 0.50436,-1.017508 0.0257,-0.155183 0.0502,-0.310727 0.0791,-0.465087 0.0415,-0.221612 0.006,-0.646472 0.23099,-0.635622 1.21361,0.05848 2.44656,0.314317 3.55224,0.818039 0.22771,0.103738 -0.0906,0.491858 -0.13591,0.737939 -0.0668,0.179654 -0.12858,0.361365 -0.19275,0.542086 -0.0306,0.272457 -0.0844,0.643781 -0.13229,1.160137 -0.0666,0.717677 -0.13234,1.435539 -0.19844,2.153356 0.46955,0.247955 0.94305,0.489543 1.4025,0.758609 0.14268,0.09623 0.2765,0.207002 0.42788,0.288872 0.0353,0.01915 0.1448,0.01579 0.19741,0.0155 0.29502,0.228322 0.62832,0.416139 0.91312,0.655259 0.59533,0.184497 1.05148,0.520899 1.60507,0.964798 0.28528,0.29141 0.22178,0.213704 0.45372,0.492477 0.0199,0.02392 0.03,0.03784 0.0584,0.07286 -0.33981,-0.06098 -1.13116,-0.06112 -0.85938,0.04651 0.44786,0.177348 0.94032,0.19435 1.42059,0.260451 -0.15976,-0.115152 -0.30853,-0.253847 -0.49661,-0.298691 -0.0146,-0.0035 -0.0427,-0.0046 -0.0605,-0.0078 0,0 5.3e-4,5.29e-4 5.3e-4,5.29e-4 0.0246,0.0293 0.0187,0.02907 0.0506,0.06563 0.0187,0.02127 -0.0274,-0.03426 -0.0532,-0.06615 5.3e-4,6.1e-5 10e-4,-9.5e-5 0.002,0 -0.40368,-0.481764 0.13466,-0.05267 0.45475,0.14418 0.0531,0.04581 0.16152,0.123729 0.24856,0.189134 0.12241,0.02013 0.24475,0.03979 0.36381,0.07286 0.16635,0.04622 0.49224,0.307964 0.74517,0.517797 0.68459,0.0048 0.64052,0.01331 1.75855,0.722953 0.44284,0.445709 0.96,0.602279 1.51205,0.843878 0.7014,0.328766 1.3719,0.685258 1.99678,1.141016 0.11922,0.13453 0.22343,0.283959 0.3576,0.403593 0.0901,0.08036 -0.16237,-0.181055 -0.22427,-0.28474 -0.0125,-0.02101 0.0489,0.01064 0.0687,0.02482 0.24473,0.173916 0.48963,0.348377 0.72244,0.537951 0.13094,0.106632 0.21619,0.273153 0.3669,0.349332 0.0481,0.02426 0.003,-0.107442 0.005,-0.161229 0.81365,0.118602 1.5761,0.59241 2.281,0.999937 0.18124,0.10477 0.35981,0.214953 0.53589,0.328147 0.0927,0.05961 0.19955,0.105555 0.27026,0.190169 0.21902,0.26226 0.4098,0.546497 0.60565,0.826823 0.0539,0.0204 0.147,0.05211 0.36277,0.104902 0.0676,0.01656 0.14033,0.01688 0.20361,0.04599 0.34236,0.157585 0.67214,0.341018 1.0082,0.511595 0.49789,0.28389 1.69657,1.477457 2.22157,1.494483 0.64281,0.07655 1.22233,0.561981 1.64228,1.088824 1.01392,0.158586 1.13501,0.841793 1.6738,1.494999 0.0219,0.02661 0.007,-0.10034 0.0413,-0.09509 0.0732,0.01146 0.12884,0.07643 0.18035,0.129707 0.20162,0.208426 0.3838,0.434748 0.57568,0.652158 0.22425,0.474618 0.37529,0.569368 0.73174,0.892969 0.0705,0.064 0.16003,0.111183 0.21393,0.189653 0.24071,0.350327 0.44257,0.725504 0.66405,1.088306 0.0666,0.227248 0.1642,0.447532 0.19999,0.681611 0.007,0.04586 0.0108,0.09314 0.0176,0.139526 0.12178,0.07592 0.2343,0.16315 0.32505,0.278019 0.48906,0.619088 0.40743,1.161949 0.1018,1.619022 0.20264,0.196802 0.39197,0.40821 0.59015,0.609783 0.44754,0.430522 0.67596,1.023567 0.92242,1.577681 0.0377,0.08479 0.0495,0.186743 0.11266,0.254765 0.0301,0.03248 7e-5,-0.08902 0,-0.133324 0.44563,0.240853 0.6002,0.755954 0.86558,1.142566 0.0128,0.01855 0.0468,0.0044 0.0651,0.01757 0.15397,0.110924 0.27588,0.260546 0.41496,0.389642 0.37164,0.3318 0.38649,0.318558 0.75964,0.92139 0.10443,0.168677 0.14468,0.37121 0.24547,0.542086 0.0217,0.03675 -0.0362,-0.103589 -10e-4,-0.12764 0.0304,-0.02074 0.0638,0.04018 0.0842,0.0708 0.15711,0.2363 0.29712,0.483645 0.44545,0.725535 0.005,0.08642 0.004,0.173927 0.005,0.260967 0.028,0.02495 0.0615,0.07157 0.0879,0.09095 0.62003,0.356206 0.77668,0.981665 0.95498,1.578716 0.0157,0.01077 0.0325,0.0232 0.0434,0.02842 0.78179,0.526716 1.01615,0.893561 1.21595,1.836581 0.46326,0.480071 0.75135,1.023131 1.04386,1.625222 0.0766,0.157533 0.11858,0.255137 0.14728,0.327628 0.11696,0.04845 0.20104,0.221858 0.30799,0.308509 0.79972,0.647904 1.04165,1.154817 1.49603,2.016932 0.19864,0.363522 0.17412,0.316021 0.38654,0.720368 0.0404,0.0769 0.13561,0.316953 0.11989,0.231511 -0.0229,-0.124669 -0.15231,-0.226613 -0.14211,-0.352949 0.005,-0.05921 0.12294,0.02508 0.16485,0.06718 0.3473,0.348671 0.66112,0.729364 0.99167,1.093989 0.42609,1.162775 0.21172,0.50537 0.72761,1.287777 0.004,0.0061 0.013,0.01984 0.0181,0.02739 0.32576,0.311597 0.66273,0.613106 0.93173,0.973069 0.15491,0.207319 0.15366,0.495898 0.26252,0.730705 0.0207,0.0447 0.10804,0.0095 0.14004,0.04702 0.14017,0.164695 0.26977,0.338389 0.40462,0.507463 0.37432,0.491109 0.81596,0.867127 1.14154,1.403533 0.22824,0.376036 0.29428,0.73883 0.41289,1.160653 0.11096,0.59182 0.43474,1.130628 0.79168,1.609719 0.0547,0.07337 0.13388,0.130003 0.17467,0.211874 0.1846,0.370003 0.33214,0.75715 0.49816,1.135848 0.18458,0.257212 0.13833,1.231098 0.31781,1.521354 0.019,0.03081 0.0322,-0.08813 0.0682,-0.08423 0.0504,0.0055 0.0841,0.06091 0.11111,0.10387 0.17013,0.270674 0.31786,0.55471 0.47697,0.831991 0.32703,0.62947 0.36985,1.342316 0.51108,2.022615 0.0445,0.21413 0.15052,0.413025 0.18862,0.628385 0.0523,0.29595 0.0806,0.595643 0.12092,0.893488 -0.006,0.184724 -0.0342,0.369927 -0.017,0.553971 0.002,0.02238 0.0516,-0.02175 0.0672,-0.0057 0.0342,0.03565 0.0469,0.08836 0.0584,0.136427 0.0246,0.103124 0.002,0.01699 0.0202,0.09353 V 38.107234 Z M 148.83898,57.97114 c 0.01,0.0011 0.02,0.0024 0.03,0.0036 0.004,5.3e-4 0.006,-0.0016 0.01,-0.0016 0.0229,-0.03861 0.0311,-0.07127 -0.004,-0.08682 -0.006,0.01352 -0.026,0.06167 -0.0357,0.08475 z m 49.24505,82.83267 c -0.007,0.14069 0.0397,0.21309 0.12454,0.23771 -0.0122,-0.11911 -0.0266,-0.38785 -0.0351,-0.524 -0.0298,0.0953 -0.0594,0.19072 -0.0894,0.28629 z M 151.39179,40.461613 c -0.0157,0.0105 -0.0646,0.02463 -0.047,0.03152 0.0117,0.0046 0.021,0.0079 0.0326,0.01241 0.008,-0.02328 0.006,-0.01873 0.0145,-0.04393 z m -16.7659,3.428214 c -0.19743,0.04781 -0.41458,0.126674 -0.5023,0.216524 -0.0207,0.02125 -0.0396,0.04436 -0.0579,0.06821 0.19838,-0.0641 0.41588,-0.09261 0.61805,-0.152445 -0.0234,-0.04341 -0.0427,-0.08758 -0.0579,-0.132291 z m -1.89601,4.721677 c -0.007,0.0075 -0.0455,0.09128 -0.13178,0.297656 0.0415,-0.08627 0.0814,-0.173206 0.12196,-0.259934 0.009,-0.02606 0.0106,-0.04126 0.01,-0.03772 z m -0.30903,0.668176 c -0.0413,0.0013 -0.0741,0.07539 -0.0656,0.117822 0.008,0.04126 0.0467,-0.01527 0.0961,-0.111622 -0.007,-0.0016 -0.0148,-0.0036 -0.0222,-0.0052 -0.003,-5.29e-4 -0.006,-0.0011 -0.008,-0.0011 z m 28.11302,0.351399 c -0.1978,-7.94e-4 -0.44935,0.04884 -0.3266,0.05581 0.27831,0.01574 0.42096,0.0141 0.60307,0.01704 -0.038,-0.01693 -0.0737,-0.03639 -0.11266,-0.05168 -0.0382,-0.01497 -0.0979,-0.02093 -0.16381,-0.02119 z m -13.75885,2.425176 c 0.009,0.08187 0.0139,0.160163 0.015,0.236159 0.0237,-0.06976 0.0472,-0.139554 0.0708,-0.209288 -0.0205,-0.0064 -0.041,-0.01326 -0.0615,-0.01963 -0.008,-0.0019 -0.016,-0.0053 -0.0243,-0.0072 z m 14.62133,1.077452 c -0.2067,0.0258 -0.28246,0.04657 -0.40411,0.06976 0.009,0.0033 0.0176,0.0065 0.0263,0.0098 0.20715,-0.04033 0.50543,-0.09552 0.37775,-0.07958 z m 6.30297,4.030763 c 0.25527,0.230595 0.49845,0.47334 0.709,0.748792 0.66557,0.761563 1.3547,1.436576 1.94097,2.272213 0.10978,0.156472 0.16383,0.459986 0.27802,0.61133 0.12814,0.169841 0.29417,0.307298 0.44131,0.460954 0.21119,0.27178 0.43325,0.535565 0.63356,0.815454 0.0177,0.02469 0.25547,0.505021 0.26717,0.518832 0.17957,0.212125 0.42136,0.368557 0.58911,0.590145 0.65586,0.866363 0.59795,0.812599 0.82475,1.535306 0.0567,0.162645 0.0892,0.335733 0.17002,0.487826 0.0846,0.159289 0.21296,0.291123 0.32091,0.435633 0.0368,0.04933 0.075,0.09765 0.11214,0.146759 0.21765,-0.01452 0.41904,0.01908 0.57154,0.161232 0.46143,0.430091 0.66701,1.046631 0.86971,1.665015 0.0378,0.04695 0.0754,0.0941 0.11317,0.141076 0.54644,0.756626 1.0451,1.539865 1.51051,2.34301 0.91507,-1.084482 1.07743,-1.335741 3.25871,0.3483 -0.31917,-0.399762 -0.32678,-0.364125 -0.53071,-0.82269 -0.0554,-0.124497 -0.11231,-0.248028 -0.1664,-0.373102 -0.0165,-0.03834 -0.0871,-0.112689 -0.0455,-0.11679 0.0592,-0.0058 0.11683,0.160565 0.14263,0.106971 0.0268,-0.05568 -0.0875,-0.0871 -0.13126,-0.130744 -0.25412,-0.261578 -0.42477,-0.499396 -0.62942,-0.6258 -0.44649,-0.355076 -0.7399,-0.694751 -1.03611,-1.19321 -0.0163,-0.0275 -0.0562,-0.11937 -0.0873,-0.200504 -0.53852,-0.319641 -1.05547,-0.69069 -1.35496,-1.26297 -0.61549,-0.769993 -1.28367,-1.344724 -1.99316,-2.033985 -0.57545,-0.559051 -0.9895,-0.992468 -1.55546,-1.622642 -0.28459,-0.316872 -0.55566,-0.645202 -0.83302,-0.968414 -0.32644,-0.247521 -0.68262,-0.72272 -0.88006,-0.962734 -0.0623,-0.08483 -0.10558,-0.13783 -0.15864,-0.206187 -0.0835,-0.05673 -0.17848,-0.112671 -0.13384,-0.173633 -0.26217,-0.333452 -0.33977,-0.451356 -0.13333,-0.61495 -0.13273,-0.03126 -0.26612,-0.05915 -0.39532,-0.10232 -0.79631,-0.266015 -1.81259,-0.656907 -2.04639,-1.607137 -0.0353,-0.02146 -0.0699,-0.04402 -0.10542,-0.06511 -0.18098,-0.107559 -0.35886,-0.204801 -0.53692,-0.305925 z m 0.88212,0.519348 c 0.0345,0.02503 0.0685,0.05086 0.10335,0.07545 0.014,0.0098 -0.0233,-0.02543 -0.0377,-0.03462 -0.0217,-0.01394 -0.0439,-0.02699 -0.0656,-0.04082 z m 11.0479,5.640999 c -0.0371,-7.94e-4 -0.0416,0.01198 0.004,0.04548 0.30634,0.222552 0.69911,0.327221 1.06453,0.462503 -0.10824,-0.100799 -0.21896,-0.203087 -0.38809,-0.359667 -0.16904,-0.02569 -0.56865,-0.146278 -0.68006,-0.148312 z m -15.26005,2.713013 c 0.002,0.0024 0.007,0.0082 0.009,0.01035 0.0249,0.02341 0.0763,0.05492 0.11368,0.07596 -0.005,-0.0055 -0.0112,-0.01053 -0.0165,-0.01603 -0.0354,-0.02352 -0.071,-0.04682 -0.10646,-0.07028 z m 13.44104,4.841047 c -0.0906,-8.4e-5 -0.20141,0.0034 -0.31832,0.0067 0.0289,0.0528 0.0577,0.105693 0.0863,0.158646 0.069,0.02484 0.13885,0.04772 0.20877,0.07028 0.0701,-0.02682 0.13821,-0.05956 0.20257,-0.103354 0.16005,-0.108898 0.0474,-0.132078 -0.17932,-0.132292 z m 3.04064,0.129191 c -0.0271,0.242025 -0.32497,0.57054 -0.36276,0.838711 -0.0355,0.251946 0.0288,0.508854 0.0248,0.763259 -0.006,0.374595 -0.0378,0.74825 -0.0568,1.122413 -0.006,0.291489 0.0319,0.745016 0.0243,1.214395 0.32747,0.333751 0.64689,0.674613 0.9617,1.019577 0.4346,0.175625 0.65918,0.0068 0.40979,-0.958083 -0.044,-0.170307 -0.0883,-0.340254 -0.13229,-0.510561 -0.0729,-0.100711 -0.17489,-0.185925 -0.21859,-0.302307 -0.0351,-0.09326 0.13012,0.151103 0.19172,0.229444 0.14623,0.186102 0.29017,0.373927 0.4315,0.56379 0.75412,1.013132 1.47597,2.056455 2.04638,3.186366 0.28167,0.480769 0.5529,0.967746 0.84491,1.442292 1.07281,1.743366 2.30006,3.41581 3.04581,5.339725 0.2615,0.644221 0.64691,1.140727 0.94362,1.782318 0.0983,0.21263 0.0696,0.473485 0.22892,0.664559 0.0772,0.16677 0.1747,0.323017 0.262,0.484725 0.25652,0.493133 0.48152,0.933699 0.65939,1.457793 0.0446,0.131347 0.0963,0.401185 0.15141,0.518832 0.0578,0.123463 0.14024,0.233995 0.21033,0.350883 0.12364,0.206044 0.3878,0.632415 0.49041,0.857311 0.38243,0.838171 0.21514,0.594587 0.53795,1.467612 0.48117,1.301276 0.64056,1.638818 1.05471,2.539381 0.14739,-0.322445 0.31947,-0.53875 0.53537,-0.535369 0.20456,0.0032 0.44777,0.2003 0.74362,0.680577 0.43899,0.712581 0.23393,0.313653 0.58395,1.211813 0.22745,0.996135 0.33953,2.024372 0.74621,2.969845 0.56472,1.141501 0.40955,0.658231 0.67127,2.341461 0.006,0.0376 0.002,0.116 -0.0346,0.108 -0.0544,-0.0115 -0.0896,-0.19111 -0.0966,-0.13591 -0.0436,0.3338 0.55406,0.61705 0.2837,0.96945 0.17593,0.61093 0.36784,1.3016 0.57257,1.89601 0.27853,0.80866 0.6549,1.58793 0.81753,2.43396 0.43461,1.01218 0.61573,2.08876 0.75912,3.17448 0.39238,-0.0993 0.7168,-0.18501 0.94878,-0.19224 0.34526,-0.0107 0.50731,0.14911 0.47026,0.68265 -0.002,0.0221 -0.002,0.0312 -0.004,0.0517 -0.0175,0.66501 0.002,0.0705 0.26252,2.00814 0.0947,0.7049 0.17101,1.41222 0.27957,2.11512 0.065,0.42078 0.13688,0.83965 0.21187,1.2578 v -7.57886 c -0.0395,-0.15263 -0.11522,-0.45374 -0.12712,-0.50643 -0.11303,-0.21415 -0.21864,-0.41278 -0.2403,-0.44545 -0.45041,-1.04164 -0.83628,-2.11851 -1.2113,-3.1874 -0.0559,-0.18968 -0.11151,-0.37926 -0.16743,-0.56896 -0.0254,-0.0898 -0.0745,-0.17645 -0.0765,-0.26975 -5.3e-4,-0.024 0.0783,0.0111 0.0713,-0.0119 -0.0887,-0.30516 -0.66259,-0.60177 -0.60979,-0.94516 -0.2267,-0.63237 -0.35732,-1.22654 -0.51883,-1.87741 -0.0359,-0.14487 -0.0835,-0.28704 -0.11679,-0.43253 -0.0197,-0.0861 -0.0111,-0.17906 -0.0429,-0.26148 -0.0606,-0.156987 -0.15379,-0.299475 -0.23099,-0.449068 -0.0781,-0.303009 -0.15651,-0.605981 -0.23461,-0.908989 0.0293,0.07456 0.017,0.06391 0.0284,-0.04134 -0.11023,-0.436618 -0.4609,-1.143592 -0.2868,-1.56166 0.16844,-0.151175 0.0374,-0.0074 -0.0951,-0.496094 -0.14976,-0.552458 -0.23887,-1.104673 -0.33486,-1.666565 -0.0767,-0.430295 0.0502,0.141059 -0.43977,-0.673862 -0.40121,-0.667256 -0.71917,-1.390743 -0.73897,-2.180744 0.24954,-0.167211 0.0846,-0.01397 -0.25632,-0.505396 -0.56742,-0.818005 -1.06587,-1.727687 -1.28519,-2.706296 -0.0197,-0.08996 -0.0659,-0.177949 -0.0589,-0.269751 0.003,-0.0412 0.0415,0.07341 0.0729,0.100769 0.0279,0.02466 0.12316,0.07926 0.0992,0.05064 -0.31479,-0.378079 -0.73629,-0.67542 -0.99529,-1.104326 -0.50274,-0.635418 -0.80976,-1.007483 -1.18235,-1.774052 -0.004,-0.0084 0.009,-0.01394 0.0212,-0.01601 -0.23749,-0.206177 -0.47784,-0.409398 -0.70745,-0.62425 -0.0798,-0.07463 -0.1059,-0.191786 -0.1695,-0.280604 -0.43983,-0.614418 -0.38434,-0.416476 -0.75448,-1.258322 -0.0177,-0.04026 0.0658,0.0587 0.0987,0.08785 0.1311,0.05543 0.5035,0.255894 0.39326,0.165883 -0.17159,-0.140068 -0.40948,-0.181343 -0.58188,-0.320394 -0.88773,-0.715995 -1.0598,-1.018683 -1.50689,-1.907376 -0.0979,-0.191709 -0.20903,-0.376841 -0.29403,-0.574644 -0.0148,-0.03443 0.0434,0.07383 0.0806,0.07803 0.0238,0.0026 0.0432,-0.04874 0.0269,-0.06615 -0.39336,-0.419246 -0.98207,-0.646735 -1.28157,-1.166853 -0.1125,-0.191614 -0.23477,-0.377592 -0.33745,-0.574643 -0.18517,-0.355354 -0.16997,-0.444947 -0.3328,-0.787032 -0.17278,-0.363056 -0.59052,-0.595098 -0.76687,-0.939477 -0.0609,-0.261975 -0.11843,-0.525061 -0.17726,-0.787549 -0.0436,-0.0329 -0.0826,-0.06414 -0.13591,-0.09973 -0.44142,-0.370023 -0.62516,-0.456872 -0.91725,-0.961184 -0.12497,-0.215749 -0.21389,-0.451022 -0.30489,-0.683162 -0.0183,-0.04674 -0.062,-0.140372 -0.0687,-0.188103 -0.11362,-0.09358 -0.22072,-0.192648 -0.30541,-0.299207 -0.27073,-0.340624 -0.55325,-0.817112 -0.68936,-1.309997 -0.23178,-0.321053 -0.46131,-0.702495 -0.493,-0.752408 -0.0214,-0.0336 0.0418,0.07034 0.0734,0.09457 0.033,0.02532 0.14072,0.08168 0.11421,0.04961 -0.0811,-0.09811 -0.189,-0.169714 -0.2837,-0.254764 -0.20032,-0.189643 -0.55849,-0.512752 -0.74259,-0.74104 -0.16964,-0.210362 -0.32549,-0.431072 -0.48163,-0.65164 -0.015,-0.02117 0.0957,0.01844 0.078,-5.29e-4 -0.0232,-0.02487 -0.051,-0.04511 -0.0755,-0.06873 z m 5.25705,1.268659 c 0.003,0.31759 -5.3e-4,0.636058 0.0729,0.943094 0.0528,0.220937 0.0279,-0.454189 0.0636,-0.678511 0.002,-0.01188 0.0115,0.01019 0.0202,0.03204 -0.0256,-0.0791 -0.0488,-0.159554 -0.0873,-0.233061 -0.0127,-0.02439 -0.0431,-0.04391 -0.0692,-0.06356 z m -6.87297,1.462958 c 0.12752,0.117371 0.25467,0.235092 0.38034,0.354502 0.0817,-0.02297 0.16347,-0.04591 0.25063,-0.07287 0.38603,-0.119372 -0.0262,-0.234889 -0.63097,-0.281635 z m 7.96282,0.290422 c 0.0173,0.05463 0.0324,0.111435 0.0512,0.164849 0.006,0.01804 0.0287,-0.0363 0.0207,-0.05375 -0.018,-0.03992 -0.0455,-0.07534 -0.0718,-0.111104 z m -6.9944,0.490927 c -0.0374,0.0019 -0.0792,0.0088 -0.12506,0.02066 0.10678,0.105376 0.21187,0.212633 0.3173,0.319361 0.0464,-0.247627 -0.028,-0.347975 -0.19224,-0.34003 z m 4.63382,1.356505 c -0.008,0.03224 -0.008,0.15567 0.0114,0.200504 0.0349,0.07888 0.0626,0.133652 0.0946,0.202573 -0.0318,-0.132871 -0.0611,-0.266208 -0.0956,-0.398426 -0.004,-0.01582 -0.008,-0.01492 -0.0104,-0.0047 z m 8.54522,6.936528 c 0.0522,0.05508 0.10974,0.105257 0.16381,0.158647 -0.0179,-0.02601 -0.0351,-0.05262 -0.0537,-0.07803 -0.0366,-0.02693 -0.14137,-0.113702 -0.11007,-0.08061 z m 6.19497,28.231863 c -0.003,0.0448 -0.005,0.0914 -0.006,0.11421 v 5.3e-4 c 7.9e-4,0.003 0.002,0.006 0.003,0.009 0.002,-0.0329 0.004,-0.0815 0.003,-0.12351 z m -4.37545,32.97577 c -0.01,-0.009 0.0193,0.2179 0.0403,0.39584 0.01,-0.0241 0.0189,-0.0493 0.0289,-0.0729 -0.0189,-0.0933 -0.0336,-0.18751 -0.0558,-0.28009 -0.007,-0.0273 -0.011,-0.0406 -0.0134,-0.0429 z m 0.44287,24.58609 c -0.008,-0.003 0.007,0.0888 0.0212,0.18345 0.008,-0.0203 0.0135,-0.0412 0.0212,-0.0615 -0.01,-0.0252 -0.0391,-0.12091 -0.0424,-0.12196 z m 3.16932,0.61134 c -0.007,0.004 -0.013,0.0252 -0.0202,0.0677 -0.069,0.4134 0.002,0.8356 0.0284,1.25626 0.0366,-0.0769 0.079,-0.1523 0.11059,-0.23048 -0.0405,-0.29919 -0.0733,-1.12076 -0.11886,-1.09347 z m -3.44527,0.77101 c -0.0255,0.0265 -0.0507,0.0515 -0.076,0.077 0.16792,0.30744 0.36161,1.55863 0.076,-0.077 z m -0.1049,0.10645 c -0.0224,0.0223 -0.0454,0.0467 -0.0677,0.0682 -0.0216,0.0674 -0.0386,0.13179 0.005,0.17209 0.0513,0.0456 0.051,-0.14725 0.0625,-0.2403 z m 0.58911,3.34398 c -0.0101,5.3e-4 -0.0222,0.0129 -0.0362,0.0398 -0.23037,0.44422 -0.36929,0.92703 -0.50694,1.41077 0.19139,-0.21449 0.38928,-0.42386 0.50539,-0.68316 0.0408,-0.0907 0.063,-0.26339 0.0724,-0.42323 -0.0303,0.004 -0.055,-0.005 -0.0698,-0.0413 -0.0219,-0.0537 0.0181,-0.0822 0.0739,-0.10491 -0.002,-0.10931 -0.0125,-0.19907 -0.0388,-0.19792 z m -6.33863,5.69785 c -0.0789,0.0175 -0.23439,0.10982 -0.39119,0.21394 0.0223,0.0552 0.0475,0.14181 0.0713,0.21859 0.11702,-0.11881 0.23386,-0.23776 0.35088,-0.35657 0.0409,-0.0679 0.0228,-0.0879 -0.031,-0.076 z m 2.98845,0.17983 c 0.004,0.15739 -0.0328,0.2412 -0.14367,0.16175 0.0551,-0.0609 0.0961,-0.10815 0.14367,-0.16175 z m -3.65404,0.23823 c -0.0482,0.0404 -0.10655,0.0843 -0.13643,0.1173 -0.16338,0.18019 -0.31158,0.55849 -0.39481,0.78755 0.2079,-0.21106 0.41584,-0.42197 0.62374,-0.63303 -0.0419,-0.0999 -0.0708,-0.1885 -0.0925,-0.27182 z m 2.8732,1.57406 c -0.004,1.2e-4 -0.0103,0.008 -0.0171,0.0238 -0.0762,0.18078 -0.13748,0.36676 -0.19947,0.55294 0.0492,-0.045 0.0974,-0.0913 0.14107,-0.14107 0.0802,-0.0913 0.10671,-0.43648 0.0754,-0.43564 z m -3.03754,1.84175 c -0.002,0.001 -0.002,0.006 -10e-4,0.0176 0.0208,0.16552 0.0291,0.18879 0.045,0.29249 0.006,-0.011 0.0127,-0.021 0.0181,-0.032 0.0345,-0.0702 -0.0482,-0.28485 -0.062,-0.27802 z m -1.46864,2.05259 c 0.0531,0.0827 0.12791,0.10171 0.23099,0.0424 -0.0832,-0.0143 -0.15397,-0.0283 -0.23099,-0.0424 z" />
    </clipPath>
    <clipPath
       clipPathUnits="userSpaceOnUse"
       id="clipPath2243">
      <path
         id="path2245"
         style="fill:#ff0000;fill-opacity:1;fill-rule:nonzero;stroke:none;stroke-width:0.264583"
         d="m 134.52047,42.833044 -86.531152,5.29e-4 V 217.53867 H 204.21906 V 150.1252 c -0.10889,0.21679 -0.26752,0.38646 -0.46923,0.56999 0.11572,0.64875 0.0588,1.47297 -0.25321,1.99885 -0.0114,0.0193 -0.0264,0.0376 -0.0382,0.0568 0.11032,0.45827 -0.0599,1.23925 -0.11576,1.5012 -0.1684,0.78985 -0.29483,0.35066 -0.18035,0.68316 0.0221,0.70953 -0.26121,1.43473 -0.51573,2.0867 -0.05,0.12818 -0.13133,0.24641 -0.15813,0.38137 -0.007,0.0328 0.0608,-0.029 0.091,-0.0434 0.2475,0.44584 -0.30208,1.78374 -0.67386,2.58382 0.055,0.70657 0.0592,-0.12521 0.17932,0.90744 0.1057,0.9092 0.10336,1.78065 0.0667,2.69028 -0.0755,0.60606 -0.0364,1.21525 -0.0274,1.82314 0.002,0.19085 -2.6e-4,0.38179 -0.004,0.57257 -0.0431,2.18952 -1.40409,3.02024 -2.45102,2.53163 -0.033,0.0985 -0.0419,0.15099 -0.0837,0.27027 -0.0556,0.14243 -0.11323,0.28423 -0.16692,0.42737 -0.16405,0.43686 -0.30081,0.86648 -0.50178,1.28932 -0.0215,0.0453 -0.0589,0.13104 -0.092,0.20412 0.004,0.0924 0.009,0.18496 0.005,0.27699 -0.008,0.16258 -0.0515,0.33143 -0.14056,0.46767 -0.78215,1.19644 -1.16752,1.44647 -2.20607,2.00505 -0.0642,0.35433 -0.0596,0.19052 -0.50798,1.08314 -0.55418,0.48536 -0.47373,0.43918 -0.72347,0.59841 -0.0469,0.1619 -0.0902,0.32529 -0.14418,0.48421 -0.41158,0.43304 -0.49574,0.54518 -0.92397,0.91519 -0.0937,0.081 -0.20035,0.14727 -0.29197,0.22996 0.0217,0.007 0.0184,0.0416 0.0274,0.0625 -0.16543,0.35742 -0.43108,0.64237 -0.68317,0.93586 0.0398,-0.12426 0.0777,-0.24896 0.11628,-0.37363 -0.0145,-0.16144 -0.0138,-0.644 -0.0439,-0.48472 -0.0773,0.40995 -0.1065,0.69498 -0.12351,0.91984 0.0166,-0.0196 0.0329,-0.0395 0.0496,-0.0589 -0.009,0.0284 -0.017,0.0571 -0.0264,0.0853 -0.003,0.009 -0.0207,0.0206 -0.0294,0.0315 10e-4,-0.0165 0.004,-0.0407 0.006,-0.0579 -0.0435,0.0515 -0.0894,0.10158 -0.13074,0.15451 -0.0349,0.0448 0.0743,-0.0324 0.12454,-0.0956 -0.0446,0.63904 -0.002,0.72047 -0.6749,1.47846 -0.0123,-0.4531 -0.37261,-1.51999 -0.39946,-1.19682 -0.0404,0.48652 0.0118,0.97578 0.0517,1.46451 0.0592,-0.0431 0.11753,-0.086 0.16226,-0.13488 0.016,0.015 0.0272,0.0201 0.0408,0.03 -0.0161,0.0179 -0.0253,0.0293 -0.0424,0.0481 -0.0373,0.041 -0.0973,0.11599 -0.15192,0.18397 0.0241,0.32271 0.0415,0.6452 0.0129,0.96635 -0.0279,0.3131 -0.32198,0.54375 -0.43202,0.83819 0.0375,-0.11181 0.17637,-0.43458 0.11266,-0.33538 -0.19963,0.31066 -0.29153,0.69607 -0.50747,0.99064 -0.0433,0.13716 -0.0859,0.27484 -0.13229,0.41083 -0.10577,0.16943 -0.1844,0.35886 -0.31729,0.50798 -0.51445,0.57725 -0.73624,0.77126 -1.14722,1.03611 -0.11296,0.26582 -0.22841,0.53013 -0.35915,0.78755 -0.0807,0.15897 -1.19826,1.7637 -1.341,1.6955 -3.26754,-1.56138 -3.24287,-0.9415 -2.72387,-2.58899 -0.0517,-0.001 -0.12832,0.0403 -0.15502,-0.003 -0.0683,-0.11325 -0.0786,-0.25638 -0.0806,-0.38861 -0.0259,-1.39061 0.0561,-0.97696 1.07694,-2.33216 0.68706,-0.91206 0.92003,-0.62289 0.98081,0.0992 0.30883,-0.20231 0.74297,-0.13348 0.87541,-0.57877 0.0117,0.16161 -0.0461,0.62522 0.0346,0.48472 0.1053,-0.18335 0.033,-0.42173 0.0496,-0.63252 0.0591,-0.06 0.1182,-0.11986 0.17725,-0.17983 0.0229,-0.0866 0.0452,-0.1694 0.11059,-0.42375 0.1637,-0.35995 0.28697,-0.70436 0.40204,-0.86661 -0.004,-0.23018 0.0334,-0.47881 0.0506,-0.88625 0.21447,-0.38355 0.40945,-0.7783 0.64337,-1.15032 0.0374,-0.0594 0.0985,-0.10691 0.16382,-0.13281 0.0222,-0.009 0.0319,0.039 0.0548,0.046 0.007,0.002 0.0114,-0.007 0.0165,-0.0129 0.0388,-0.23925 0.0705,-0.48047 0.13384,-0.71417 0.18527,-0.68431 0.70314,-0.94386 0.98444,-1.53531 0.0269,-0.0368 0.054,-0.0735 0.0806,-0.11058 -1.69383,0.2487 -2.68017,-1.68649 -0.75861,-3.60805 0.32728,-0.32728 0.67955,-0.63137 0.98186,-0.98185 0.2237,-0.25935 0.40941,-0.55069 0.59066,-0.8413 0.13039,-0.20908 0.20917,-0.46402 0.32607,-0.69349 -0.0899,-0.50645 -0.005,-1.13837 0.34262,-1.86656 0.73584,-1.5416 0.98242,-3.21082 1.23093,-4.66379 0.042,-0.15666 0.0718,-0.31744 0.12609,-0.47026 0.086,-0.24192 0.14911,-0.40049 0.21653,-0.54622 5.3e-4,-0.18571 -1.4e-4,-0.37141 0,-0.55707 0.0125,-0.87218 0.53325,-1.77709 0.84387,-2.6262 -0.002,-0.0202 -0.005,-0.0402 -0.007,-0.0605 -0.0214,-0.30225 -5.3e-4,-0.60598 0,-0.90899 0.003,-1.4151 0.0237,-2.8301 0.0217,-4.24522 -0.002,-0.1544 -0.008,-0.30906 -0.0114,-0.46354 -0.17659,-0.40525 -0.2868,-0.91053 -0.2868,-1.52703 v -3.19102 -2.49391 c -0.0482,-1.00335 0.53235,-1.76649 1.31981,-2.27635 0.0708,-0.0459 0.14029,-0.1484 0.21704,-0.15037 0.011,-2.7e-4 0.0223,0.002 0.0336,0.006 0.29659,0.11226 0.58632,0.24094 0.87385,0.37465 0.0107,-5.3e-4 0.0214,-0.002 0.032,-0.003 0.20602,-0.005 0.40728,0.0382 0.59531,0.12247 0.0255,-0.76059 0.2391,-1.50192 0.46664,-2.22829 0.005,-0.0894 0.036,-0.21381 0.0853,-0.3607 -0.0144,-0.24559 -0.0278,-0.42656 -0.045,-0.92914 -0.01,-0.31071 0.0163,-0.62244 -0.002,-0.93276 -0.0308,-0.51122 -0.20305,-0.99136 -0.33796,-1.48053 -0.0452,-0.15783 -0.0869,-0.31652 -0.13539,-0.47336 -0.0789,-0.25527 -0.22174,-0.49365 -0.25994,-0.75809 -0.1444,-1.00061 -0.11536,-1.7244 -0.0444,-2.69803 0.0549,-0.64703 0.003,-1.2647 5.3e-4,-1.94045 0.008,-0.79887 0.007,-1.59785 0.006,-2.39675 -0.0697,-0.82132 0.0864,-1.66677 -5.3e-4,-2.48615 -0.0254,-0.23964 -0.0809,-0.47507 -0.12144,-0.71262 -0.37652,-1.5204 -0.17676,-3.07739 -0.14056,-4.61832 -0.003,-0.2236 -0.002,-0.44717 -0.005,-0.67077 -0.98751,-0.0781 -1.82699,-1.14185 -1.38596,-2.99051 0.12386,-0.51917 0.21196,-1.04467 0.27595,-1.57355 -0.0905,-0.25157 -0.10944,-0.54439 -0.185,-0.80253 -0.28468,-0.9726 -0.42886,-1.9978 -0.87591,-2.91352 -0.31129,-0.90055 -0.39904,-1.84401 -0.57568,-2.77296 -0.0528,-0.27785 -0.0921,-0.52063 -0.23564,-0.76429 -0.4938,-1.62114 -1.10172,-3.19656 -1.57355,-4.82658 -0.25054,-0.75831 -0.34676,-1.18583 -0.32556,-2.03088 0.005,-0.19518 0.13172,-0.38792 0.0904,-0.57878 -0.0211,-0.0979 -0.0602,0.24925 -0.1602,0.25425 -0.0941,0.004 -0.10027,-0.15946 -0.15037,-0.23926 -0.3594,-0.70572 -0.55702,-1.459507 -0.72451,-2.222089 -0.62226,-0.181102 -1.26934,-0.739762 -1.73736,-1.769401 -0.7229,-1.590379 -0.74381,-1.565166 -1.37046,-3.245794 -0.40119,-1.075989 -0.16767,-0.63781 -0.51418,-1.408184 -0.01,-0.02148 0.0301,0.08836 0.0171,0.06873 -0.0943,-0.141922 -0.17533,-0.292108 -0.26304,-0.438216 -0.47934,-0.800708 -0.68484,-1.686023 -1.12241,-2.507858 -0.37267,-0.5217 -0.48106,-1.170178 -0.73794,-1.74098 -0.051,-0.113289 -0.18078,-0.176453 -0.23978,-0.285771 -0.18466,-0.342006 -0.34955,-0.694208 -0.52451,-1.041278 -0.67462,-1.768023 -1.81198,-3.295782 -2.79518,-4.894276 -0.25415,-0.413205 -0.49486,-0.834445 -0.73897,-1.25367 -0.55878,-0.103761 -1.18358,-0.460864 -1.78542,-1.162203 -0.51605,-0.601351 -1.05395,-1.186387 -1.61179,-1.752349 -1.0736,0.158165 -2.23467,-0.653804 -2.574,-1.734259 -0.33388,-0.648184 -0.0226,-0.118015 -0.67387,-0.811321 -0.12426,-0.02889 -0.24274,-0.05814 -0.37878,-0.08681 -0.0332,-0.007 -0.004,-0.06796 -0.0109,-0.101288 -0.0214,-0.108077 -0.0455,-0.215693 -0.0682,-0.323493 -0.0319,-0.03717 -0.0646,-0.07362 -0.0961,-0.111106 -0.024,-0.01905 -0.0483,-0.03783 -0.0724,-0.05684 -0.37024,-0.05872 -0.64832,-0.407694 -1.60094,-1.490348 -0.16751,-0.190378 0.0768,-0.547312 0.0579,-0.791167 -0.0388,-0.05706 -0.0767,-0.114814 -0.11524,-0.172083 -0.12219,0.01326 -0.12958,0.635879 -0.33435,0.599964 -0.18305,-0.0321 -0.30599,-0.174064 -0.41857,-0.336931 -0.14234,0.152413 -0.29333,0.296317 -0.45889,0.426331 -0.37242,0.208791 -0.69271,0.58089 -1.11724,0.626319 -2.74513,0.29378 -3.23847,-2.21669 -3.88814,-4.202327 -0.21765,-0.64938 -0.42903,-1.280326 -0.61185,-1.918747 -0.0164,-0.01249 -0.0327,-0.02522 -0.0491,-0.03772 -0.35334,-0.20638 -0.63126,-0.501219 -0.91261,-0.790133 -0.39938,0.03844 -0.7982,0.05005 -1.19579,-0.0011 -0.27051,-0.03476 -0.2175,-0.503914 -0.2775,-0.769977 -0.024,-0.106547 -0.0431,-0.204644 -0.0589,-0.297656 -0.0879,-0.05667 -0.17503,-0.114578 -0.25787,-0.178284 -0.25549,-0.196472 -0.40866,-0.388192 -0.6258,-0.627354 -0.0769,-0.08652 -0.12388,-0.214841 -0.23048,-0.259932 -0.0616,-0.02604 0.0911,0.127852 0.0656,0.189654 -0.0175,0.04236 -0.0954,0.0029 -0.13642,-0.01757 -0.3072,-0.152979 -0.61539,-0.308004 -0.90072,-0.498676 -0.53067,-0.464968 -0.3075,-0.322717 -0.61392,-0.504362 -0.38722,-0.137689 -0.61359,-0.545446 -0.92036,-0.792718 -0.0205,-0.01651 -0.0511,0.03082 -0.076,0.02222 -0.0834,-0.02864 -0.16346,-0.0652 -0.24547,-0.09767 -0.057,-0.02096 -0.12474,-0.02318 -0.17104,-0.06253 -0.0821,-0.06981 -0.16488,-0.140044 -0.24805,-0.209291 -0.74278,0.282408 -1.50462,0.510379 -2.28875,0.558107 -0.44439,0.02705 -0.29455,-2.386394 -0.26665,-2.452563 0.008,-0.05181 0.0157,-0.10372 0.0238,-0.155546 -0.0124,0.01868 -0.0241,0.0378 -0.0367,0.05633 -0.12397,0.182144 -0.21247,0.565338 -0.42478,0.506428 -1.10759,-0.307292 -2.07457,-0.989949 -3.11144,-1.486214 0.002,0.1032 0.002,0.127553 -0.008,-0.0036 0.003,0.0013 0.005,0.0024 0.008,0.0036 -0.001,-0.06967 -0.004,-0.154025 -0.005,-0.33073 -0.0124,-0.248639 -0.0382,-0.496707 -0.0537,-0.745172 -0.002,-0.03619 -0.004,-0.07233 -0.007,-0.108522 -0.51756,0.01125 -1.28388,-0.01828 -2.42828,-0.02429 -0.24116,-0.0013 -0.17019,-1.089359 -0.0966,-1.83038 -0.18636,0.378756 -0.38356,0.751904 -0.59015,1.117246 -0.20714,0.366307 -0.30408,0.519583 -0.3576,0.595828 -0.008,0.11535 -0.0147,0.234918 -0.0961,0.235646 -0.031,0.05235 -0.0893,0.115713 -0.10956,0.163814 0.0418,-0.09905 0.0508,-0.120703 0.0698,-0.165881 -1.20191,-0.139729 -2.42189,-0.336237 -3.54035,-0.79685 -0.16878,-0.06951 0.0491,-0.324877 0.14366,-0.520899 -0.01,-0.04394 0.069,-0.128455 0.0848,-0.186552 0.11017,-0.405966 0.18484,-0.821479 0.30799,-1.223698 0.19292,-0.630113 0.39953,-1.255842 0.60307,-1.882574 -0.56154,0.590275 -1.61911,0.30108 -1.9017,-1.13688 -0.0186,-0.09475 -0.0372,-0.189471 -0.0558,-0.284221 -0.0235,-0.112768 -0.0181,-0.234506 -0.0667,-0.338997 -0.23113,-0.49806 -0.70204,-0.843423 -1.01699,-1.292945 -0.1264,-0.06082 -0.25459,-0.147857 -0.47129,-0.360701 -0.64682,-0.635347 -0.62873,-1.042612 -0.58963,-1.982825 0.005,-0.114935 0.058,-0.220467 0.10491,-0.327628 -0.003,-0.0045 -0.007,-0.0089 -0.01,-0.01344 -0.0179,0.04001 -0.0242,0.0472 -0.0362,0.0708 7.9e-4,-0.0353 0.008,-0.06982 0.0114,-0.104904 -0.0802,-0.109847 -0.152,-0.221663 -0.23719,-0.329179 -0.10477,-0.03219 -0.26839,-0.08366 -0.30954,-0.09663 -0.0331,-0.0048 -0.0806,-0.01045 -0.1199,-0.0155 -0.023,0.358931 -0.0873,0.732739 -0.22065,1.166854 -0.0625,0.203579 -0.69088,0.714301 -0.72967,0.749308 -0.29668,0.06107 -0.61836,0.316701 -0.89039,0.183452 -0.71436,-0.349914 -0.95329,-0.729131 -1.02629,-1.170988 -0.044,0.163888 -0.0968,0.326046 -0.1633,0.485759 -0.0234,0.05635 -0.68282,1.10199 -0.68781,1.109494 -0.12333,0.175947 -0.19326,0.305069 -0.22893,0.397906 0.0232,0.02514 0.0457,0.05071 0.0677,0.077 0.10513,0.125855 -0.19336,0.249719 -0.0677,-0.077 -0.1485,-0.160962 -0.31962,-0.300992 -0.47646,-0.454236 -1.589,-1.552694 0.90163,3.54366 -0.78806,2.101164 -0.22806,-0.194706 -0.49703,-0.349646 -0.6842,-0.583943 -0.52353,-0.655338 -0.17137,-2.050423 0.2775,-2.655136 0.13403,-0.212979 0.2615,-0.42999 0.40205,-0.63872 0.0595,-0.0883 0.21034,-0.11489 0.23202,-0.219107 0.0379,-0.180115 -0.008,-0.368617 0.008,-0.551905 0.0491,-0.562237 0.10013,-0.948886 0.1633,-1.33377 -0.0186,0.07208 -0.0576,0.167841 -0.0925,0.259416 -0.0297,0.144198 -0.0595,0.288296 -0.11214,0.425297 -0.0758,0.197149 -0.0937,0.497017 -0.29507,0.560689 -0.033,0.01045 -0.0666,0.01828 -0.10077,0.02479 -0.005,0.008 -0.008,0.01254 -0.0129,0.02066 0.12545,-0.02674 -0.27577,1.320607 -0.28577,1.357025 -0.25835,0.939826 -0.82822,1.346221 -1.33273,1.327049 -0.0181,0.03794 -0.0352,0.07621 -0.0496,0.115755 -0.57368,1.431147 -0.88286,1.563809 -2.60294,0.243396 -0.0496,-0.03805 0.0658,-0.687134 0.0889,-0.827339 0.01,-0.05783 0.0205,-0.115803 0.0305,-0.173633 0.12279,-0.714065 0.44069,-1.152565 0.80047,-1.346171 -0.004,-0.168899 -0.016,-0.785778 0.0615,-0.607716 -0.20823,-0.751745 -0.14331,-0.88329 0.231,-1.392679 -0.0225,0.03448 -0.044,0.07186 -0.0491,0.09612 -0.006,0.02989 0.0656,-0.02127 0.077,-0.04961 0.0529,-0.131678 0.0725,-0.274611 0.10852,-0.411861 0.0702,-0.243467 0.2646,-0.950682 0.3607,-1.024742 0.0347,-0.02674 0.0712,-0.05004 0.10904,-0.0708 0.15784,-0.439494 0.38802,-1.022292 0.65939,-1.426271 z m 14.31851,15.138096 c 0.01,0.0011 0.02,0.0024 0.03,0.0036 0.004,5.3e-4 0.006,-0.0016 0.01,-0.0016 0.0229,-0.03861 0.0311,-0.07127 -0.004,-0.08682 -0.006,0.01352 -0.026,0.06167 -0.0357,0.08475 z M 137.8753,42.83356 c -0.0199,0.06559 -0.0415,0.131948 -0.0672,0.200506 -0.0183,0.04874 -0.0271,0.07117 -0.0439,0.115756 0.23915,-0.213035 0.5176,-0.3155 0.7829,-0.311611 h 5.3e-4 c 0.12069,0.0019 0.23554,0.032 0.3452,0.07545 0.004,-0.02729 0.009,-0.05371 0.0139,-0.0801 z m 5.72213,0 0.90176,0.901755 c 0.18702,0.187019 0.34475,0.40921 0.5612,0.561205 0.0155,0.01085 0.031,0.01487 0.0465,0.02429 0.4452,-0.40939 1.16103,-0.698148 2.16835,-0.698148 h 2.52491 c 0.0758,0 0.12511,-7.94e-4 0.19275,-0.0016 0.11418,-0.263099 0.22832,-0.526103 0.34623,-0.787551 z m 10.96833,0 c -0.0224,0.185449 -0.0402,0.307417 -0.0631,0.553974 -0.0666,0.717865 -0.13284,1.435867 -0.19895,2.153872 0.46953,0.247949 0.94254,0.489546 1.40198,0.758611 0.14269,0.09623 0.2765,0.206999 0.42788,0.288869 0.0353,0.01916 0.1448,0.0158 0.1974,0.0155 0.29503,0.228325 0.62832,0.416137 0.91313,0.655256 0.59532,0.184497 1.05146,0.520902 1.60507,0.964798 0.28526,0.291412 0.2218,0.213704 0.45371,0.492477 0.0199,0.02392 0.03,0.03784 0.0584,0.07286 -0.33981,-0.06098 -1.13116,-0.06112 -0.85938,0.04651 0.44786,0.17735 0.94032,0.19435 1.42059,0.260451 -0.15977,-0.115152 -0.30855,-0.253844 -0.49661,-0.298691 -0.0144,-0.0035 -0.0416,-0.0046 -0.0594,-0.0078 0.0246,0.0293 0.0187,0.02907 0.0506,0.06563 0.0187,0.02127 -0.0274,-0.03426 -0.0532,-0.06615 8e-4,9.8e-5 0.002,2.65e-4 0.003,5.29e-4 -0.40369,-0.481764 0.13466,-0.05267 0.45475,0.144177 0.0531,0.04581 0.16152,0.12373 0.24856,0.189135 0.12241,0.02014 0.24473,0.03979 0.36381,0.07286 0.16635,0.04622 0.49224,0.307965 0.74517,0.517798 0.68459,0.0048 0.6405,0.01331 1.75855,0.722955 0.44283,0.44571 0.96,0.602277 1.51205,0.843876 0.7014,0.328768 1.3719,0.685257 1.99678,1.141015 0.11921,0.13453 0.22343,0.283959 0.3576,0.403593 0.0901,0.08036 -0.16238,-0.181057 -0.22427,-0.284737 -0.0125,-0.02101 0.0494,0.01066 0.0692,0.02479 0.24472,0.173921 0.48964,0.348377 0.72244,0.537951 0.13095,0.106632 0.21618,0.273156 0.3669,0.349332 0.0481,0.02426 0.003,-0.10744 0.005,-0.161229 0.81364,0.118602 1.5761,0.592399 2.281,0.999939 0.18122,0.104767 0.3598,0.214951 0.53588,0.328145 0.0927,0.05961 0.19958,0.105558 0.27027,0.190169 0.219,0.26226 0.4098,0.546497 0.60565,0.826823 0.0539,0.0204 0.147,0.05211 0.36277,0.104902 0.0676,0.01656 0.1403,0.01688 0.2036,0.04599 0.34236,0.157586 0.67213,0.341022 1.00821,0.511599 0.49789,0.28389 1.6966,1.477454 2.22157,1.49448 0.64284,0.07655 1.22233,0.561991 1.64227,1.088824 1.01392,0.158594 1.13501,0.841798 1.6738,1.494999 0.0219,0.02661 0.006,-0.100338 0.0398,-0.09509 0.0732,0.01146 0.12935,0.07643 0.18086,0.129709 0.20162,0.208415 0.38378,0.434745 0.57568,0.652156 0.22425,0.474617 0.37529,0.569367 0.73174,0.892969 0.0705,0.064 0.16004,0.111183 0.21394,0.189653 0.24071,0.35033 0.44256,0.725506 0.66404,1.088305 0.0666,0.227248 0.16419,0.447532 0.19999,0.681612 0.007,0.04585 0.0118,0.09314 0.0186,0.139528 0.12178,0.07592 0.2338,0.16315 0.32452,0.278019 0.48908,0.619088 0.40797,1.161949 0.10232,1.619022 0.20265,0.196795 0.39145,0.408213 0.58963,0.60978 0.44754,0.430522 0.67649,1.023567 0.92294,1.577684 0.0377,0.08478 0.0495,0.186743 0.11266,0.254765 0.0301,0.03248 8e-5,-0.08902 0,-0.133326 0.44563,0.240855 0.59967,0.755959 0.86506,1.142566 0.0128,0.01855 0.0468,0.0044 0.0651,0.01757 0.15396,0.110924 0.27589,0.260543 0.41496,0.389639 0.37165,0.3318 0.38597,0.318558 0.75913,0.92139 0.10442,0.16868 0.1452,0.371213 0.24598,0.542086 0.0217,0.03675 -0.0362,-0.103589 -0.001,-0.12764 0.0304,-0.02074 0.0633,0.04019 0.0837,0.0708 0.15711,0.236305 0.2971,0.483648 0.44545,0.725538 0.005,0.08642 0.004,0.173924 0.005,0.260964 0.028,0.02495 0.0619,0.07157 0.0884,0.09095 0.62002,0.356206 0.77668,0.981665 0.95498,1.578716 0.0157,0.01077 0.0325,0.0232 0.0434,0.02842 0.7818,0.526716 1.01615,0.893564 1.21595,1.836581 0.46326,0.480076 0.75135,1.023131 1.04386,1.625224 0.0766,0.157531 0.11858,0.255133 0.14728,0.327629 0.11696,0.04845 0.20103,0.221855 0.30799,0.308506 0.79971,0.647904 1.04166,1.154817 1.49603,2.016932 0.19864,0.363522 0.1741,0.316024 0.38655,0.720371 0.0404,0.0769 0.13558,0.31695 0.11988,0.23151 -0.0229,-0.124669 -0.15232,-0.226615 -0.14211,-0.352951 0.005,-0.05921 0.12295,0.02508 0.16485,0.06718 0.34731,0.348676 0.66114,0.729372 0.99167,1.093989 0.42612,1.162775 0.21171,0.50537 0.72761,1.287777 0.004,0.0061 0.013,0.01984 0.0181,0.02739 0.32574,0.311594 0.66276,0.613103 0.93173,0.973066 0.15493,0.207319 0.15367,0.495898 0.26252,0.730705 0.0207,0.0447 0.10803,0.0095 0.14004,0.04703 0.14016,0.164698 0.26976,0.338386 0.40463,0.50746 0.3743,0.491109 0.81595,0.867127 1.14153,1.403533 0.22824,0.376036 0.29428,0.73883 0.41289,1.160653 0.11096,0.59182 0.43474,1.130628 0.79169,1.609719 0.0547,0.07337 0.13388,0.130006 0.17466,0.211876 0.1846,0.370001 0.33216,0.757145 0.49817,1.135846 0.1846,0.257212 0.13833,1.231106 0.31781,1.521354 0.019,0.03081 0.0322,-0.08813 0.0682,-0.08423 0.0504,0.0055 0.0841,0.06091 0.1111,0.10387 0.17012,0.270674 0.31787,0.554713 0.47698,0.831991 0.32707,0.629472 0.36988,1.342316 0.51108,2.022617 0.0445,0.21413 0.15052,0.413023 0.18862,0.628386 0.0523,0.295947 0.0806,0.595648 0.12092,0.893485 -0.006,0.184729 -0.0335,0.369929 -0.0165,0.553971 0.002,0.02238 0.0516,-0.02183 0.0672,-0.0057 0.0342,0.03565 0.0474,0.08836 0.0589,0.136428 0.36383,1.524563 -0.0201,-0.05283 0.15968,1.117245 0.0162,0.102399 -0.003,-0.207507 -0.005,-0.311094 -0.002,-0.01868 -0.0151,-0.07342 -0.007,-0.05581 0.28128,0.742611 0.33882,0.86896 0.50953,1.540992 0.0726,0.285962 0.15932,0.898162 0.30076,1.290362 0.002,-8e-4 2.6e-4,-0.003 0.003,-0.004 0.0792,-0.0193 0.0951,0.13202 0.14314,0.19792 0.0335,0.046 0.0762,0.0869 0.10129,0.13798 0.32863,0.66925 0.52573,1.27557 0.73328,1.97972 0.0376,0.12835 0.068,0.2596 0.11318,0.38551 0.1672,0.46633 0.31407,0.76196 0.49402,1.21491 0.14957,0.37637 0.26572,0.82345 0.45837,1.187 -0.052,-0.15559 -0.0264,-0.0693 0.15296,0.24599 0.26085,0.45835 0.25347,0.42796 0.37931,1.2609 0.005,0.0303 0.008,0.0898 0.0129,0.13384 0.14291,0.0588 0.25019,0.11331 0.33745,0.17415 V 42.83356 Z m -19.93987,1.056267 c -0.19743,0.04781 -0.41458,0.126677 -0.5023,0.216524 -0.0207,0.02125 -0.0396,0.04436 -0.0579,0.06821 0.19838,-0.0641 0.41588,-0.09261 0.61805,-0.152445 -0.0234,-0.04341 -0.0427,-0.08758 -0.0579,-0.132291 z m -1.89601,4.721677 c -0.007,0.0075 -0.0455,0.09128 -0.13178,0.297656 0.0415,-0.08627 0.0814,-0.173206 0.12196,-0.259934 0.009,-0.02606 0.0106,-0.04126 0.01,-0.03772 z m -0.30903,0.668176 c -0.0413,0.0013 -0.0741,0.07539 -0.0656,0.117822 0.008,0.04126 0.0467,-0.01527 0.0961,-0.111622 -0.007,-0.0016 -0.0148,-0.0036 -0.0222,-0.0052 -0.003,-5.29e-4 -0.006,-0.0011 -0.008,-0.0011 z m 28.11302,0.351399 c -0.1978,-7.94e-4 -0.44935,0.04884 -0.3266,0.05581 0.27831,0.01574 0.42096,0.0141 0.60307,0.01704 -0.038,-0.01693 -0.0737,-0.03639 -0.11266,-0.05168 -0.0382,-0.01497 -0.0979,-0.02093 -0.16381,-0.02119 z m -13.75937,2.425176 c 0.009,0.08262 0.0135,0.161589 0.0145,0.238228 0.0239,-0.07048 0.048,-0.140898 0.0718,-0.211357 -0.0205,-0.0064 -0.041,-0.01326 -0.0615,-0.01963 -0.009,-0.0019 -0.0163,-0.0053 -0.0248,-0.0072 z m 14.62133,1.077452 c -0.20685,0.02582 -0.28242,0.04655 -0.40411,0.06976 0.009,0.0033 0.0179,0.0065 0.0269,0.0098 0.2068,-0.04026 0.50474,-0.0955 0.37724,-0.07958 z m 6.2761,4.007509 c 0.26533,0.237395 0.51852,0.487018 0.73639,0.772046 0.66557,0.761563 1.3547,1.436576 1.94097,2.272213 0.10978,0.156472 0.16383,0.459986 0.27802,0.61133 0.12814,0.169841 0.29417,0.307298 0.44131,0.460954 0.21119,0.27178 0.43325,0.535565 0.63356,0.815454 0.0177,0.02469 0.25547,0.505021 0.26717,0.518832 0.17957,0.212125 0.42136,0.368557 0.58911,0.590145 0.65586,0.866363 0.59795,0.812599 0.82475,1.535306 0.0567,0.162645 0.0892,0.335733 0.17002,0.487826 0.0846,0.159289 0.21296,0.291123 0.32091,0.435633 0.0368,0.04933 0.075,0.09765 0.11214,0.146759 0.21765,-0.01452 0.41904,0.01908 0.57154,0.161232 0.46143,0.430091 0.66701,1.046631 0.86971,1.665015 0.0378,0.04695 0.0754,0.0941 0.11317,0.141076 0.54644,0.756626 1.0451,1.539865 1.51051,2.34301 0.91471,-1.084051 1.07734,-1.33558 3.25613,0.346231 -0.31702,-0.396857 -0.32561,-0.362924 -0.52917,-0.820621 -0.0554,-0.124505 -0.1123,-0.248028 -0.1664,-0.373102 -0.0165,-0.03834 -0.0876,-0.112689 -0.046,-0.11679 0.0592,-0.0058 0.11682,0.160565 0.14263,0.106971 0.0268,-0.05568 -0.0875,-0.0871 -0.13126,-0.130744 -0.25412,-0.261578 -0.42477,-0.499396 -0.62942,-0.6258 -0.44649,-0.355076 -0.73991,-0.694751 -1.03611,-1.19321 -0.0163,-0.0275 -0.0557,-0.119378 -0.0868,-0.200504 -0.53852,-0.319643 -1.05546,-0.690692 -1.35495,-1.26297 -0.6155,-0.769993 -1.28365,-1.344724 -1.99316,-2.033985 -0.57546,-0.559051 -0.98899,-0.992468 -1.55495,-1.622642 -0.28457,-0.316872 -0.55617,-0.645204 -0.83354,-0.968414 -0.32643,-0.247521 -0.6826,-0.72272 -0.88005,-0.962734 -0.0623,-0.08483 -0.10509,-0.137832 -0.15813,-0.206187 -0.0835,-0.05673 -0.17844,-0.112671 -0.13384,-0.173633 -0.26215,-0.333452 -0.34029,-0.451356 -0.13384,-0.61495 -0.13274,-0.03125 -0.2656,-0.05915 -0.39481,-0.10232 -0.79631,-0.266012 -1.81309,-0.656907 -2.0469,-1.607137 -0.0353,-0.02146 -0.0699,-0.04402 -0.10542,-0.06511 -0.19019,-0.113025 -0.37604,-0.223793 -0.56328,-0.329179 z m 0.90951,0.542602 c 0.0345,0.02503 0.0685,0.05086 0.10335,0.07545 0.014,0.0098 -0.0233,-0.02543 -0.0377,-0.03462 -0.0217,-0.01394 -0.0439,-0.02699 -0.0656,-0.04082 z m 11.0479,5.640999 c -0.0371,-7.94e-4 -0.0416,0.01198 0.004,0.04548 0.30634,0.222549 0.69911,0.327221 1.06453,0.462503 -0.10824,-0.100799 -0.21896,-0.203087 -0.38809,-0.359667 -0.16904,-0.02569 -0.56865,-0.146278 -0.68006,-0.148312 z m -15.26005,2.713013 c 0.002,0.0024 0.007,0.0082 0.009,0.01035 0.0249,0.02341 0.0763,0.05492 0.11368,0.07596 -0.005,-0.0055 -0.0112,-0.01053 -0.0165,-0.01603 -0.0354,-0.02352 -0.071,-0.04682 -0.10646,-0.07028 z m 13.44104,4.841047 c -0.0906,-8.4e-5 -0.20141,0.0034 -0.31832,0.0067 0.0289,0.0528 0.0577,0.105693 0.0863,0.158646 0.069,0.02484 0.13885,0.04772 0.20877,0.07028 0.0701,-0.02682 0.13821,-0.05956 0.20257,-0.103354 0.16005,-0.108898 0.0474,-0.132078 -0.17932,-0.132292 z m 3.04013,0.130226 c -0.0278,0.241929 -0.32451,0.569867 -0.36225,0.837676 -0.0355,0.251946 0.0288,0.508854 0.0248,0.763259 -0.006,0.374595 -0.0378,0.74825 -0.0568,1.122413 -0.006,0.291489 0.0319,0.745016 0.0243,1.214395 0.32764,0.333925 0.64725,0.674944 0.96222,1.020093 0.43397,0.174988 0.65848,0.0056 0.40927,-0.958599 -0.044,-0.170307 -0.0883,-0.340254 -0.13229,-0.510561 -0.0729,-0.100711 -0.17488,-0.185925 -0.21859,-0.302307 -0.035,-0.09326 0.13012,0.151103 0.19172,0.229444 0.14623,0.186102 0.29017,0.373927 0.4315,0.56379 0.75412,1.013132 1.47595,2.056455 2.04638,3.186366 0.28167,0.480769 0.5529,0.967746 0.84491,1.442292 1.07281,1.743366 2.30006,3.41581 3.04581,5.339725 0.2615,0.644221 0.64691,1.140727 0.94362,1.782318 0.0983,0.21263 0.0696,0.473485 0.22892,0.664559 0.0772,0.16677 0.1747,0.323017 0.262,0.484725 0.25652,0.493133 0.48152,0.933699 0.65939,1.457793 0.0446,0.131347 0.0963,0.401185 0.15141,0.518832 0.0578,0.123463 0.14023,0.233995 0.21033,0.350883 0.12363,0.206044 0.3878,0.632415 0.49041,0.857311 0.38243,0.838171 0.21514,0.594587 0.53795,1.467612 0.48089,1.300511 0.64067,1.638633 1.0542,2.53783 0.14723,-0.321479 0.31933,-0.537194 0.53485,-0.533818 0.20457,0.0032 0.44775,0.2003 0.74362,0.680577 0.43899,0.712581 0.23393,0.313653 0.58395,1.211813 0.22745,0.996135 0.33951,2.024372 0.7462,2.969845 0.56472,1.141501 0.40955,0.658231 0.67128,2.341461 0.006,0.0376 0.002,0.116 -0.0351,0.108 -0.0544,-0.0115 -0.0891,-0.19111 -0.0961,-0.13591 -0.0436,0.3338 0.55407,0.61705 0.28371,0.96945 0.17593,0.61093 0.36785,1.3016 0.57257,1.89601 0.27853,0.80866 0.65489,1.58793 0.81752,2.43396 0.43468,1.01235 0.61574,2.08911 0.75913,3.175 0.39266,-0.0994 0.71719,-0.18553 0.94929,-0.19276 0.34526,-0.0107 0.50732,0.14911 0.47026,0.68265 -0.002,0.0221 -0.002,0.0312 -0.004,0.0517 -0.0175,0.66501 0.002,0.0705 0.26252,2.00814 0.0947,0.7049 0.17101,1.41222 0.27957,2.11512 0.0746,0.48304 0.15831,0.9636 0.24546,1.44332 0.21134,0.57106 0.2894,1.20237 0.31368,1.69292 0.12546,0.67494 0.24792,1.35042 0.35088,2.03089 0.13952,1.60428 0.24365,3.2087 0.5085,4.79454 v -0.45114 c 0,-0.70123 9e-5,-1.40251 0,-2.10375 -1e-4,-0.84409 -5e-5,-1.68802 0,-2.53214 0,-0.93801 -0.004,-1.87575 0.002,-2.81378 0.003,-0.78577 -0.003,-1.57108 -0.0191,-2.35645 0.03,-0.58672 0.009,-0.40465 0.0625,-0.85886 8e-4,-0.006 5.3e-4,-0.0202 0.001,-0.0284 -0.0286,-0.0852 -0.0532,-0.14759 -0.0966,-0.31678 -0.22502,-0.86781 -0.32304,-1.15086 -0.19378,-1.99678 0.0551,-0.36046 -0.0224,-0.24526 0.0801,-0.37982 0.0764,0.11002 0.14284,0.22803 0.22944,0.33021 0.0557,0.0657 -0.0896,-0.14714 -0.13539,-0.22014 -0.0636,-0.10135 -0.12934,-0.20104 -0.19224,-0.30282 -0.27491,-0.4448 -0.57177,-0.90626 -0.60151,-1.44074 -0.0673,-0.0835 -0.11434,-0.14284 -0.20257,-0.24701 -0.16353,-0.6786 -0.24355,-0.95935 -0.26872,-1.07074 -0.11303,-0.21413 -0.21812,-0.41279 -0.23978,-0.44545 -0.4504,-1.04163 -0.8368,-2.11854 -1.21181,-3.1874 -0.0559,-0.18968 -0.11153,-0.37926 -0.16743,-0.56896 -0.0254,-0.0898 -0.0745,-0.17645 -0.0765,-0.26975 -5.3e-4,-0.024 0.0783,0.0111 0.0713,-0.0119 -0.0887,-0.30516 -0.66259,-0.60176 -0.60978,-0.94516 -0.22671,-0.63238 -0.35734,-1.22654 -0.51883,-1.87741 -0.036,-0.14487 -0.083,-0.28704 -0.11628,-0.43253 -0.0197,-0.0861 -0.0111,-0.17906 -0.0429,-0.26148 -0.0606,-0.157008 -0.15379,-0.299473 -0.23099,-0.449068 -0.0781,-0.303009 -0.15651,-0.605981 -0.23461,-0.908989 0.0293,0.07456 0.017,0.06391 0.0284,-0.04134 -0.11023,-0.436618 -0.46091,-1.143592 -0.2868,-1.56166 0.16845,-0.151173 0.0374,-0.0074 -0.0951,-0.496094 -0.14977,-0.552458 -0.23886,-1.104673 -0.33486,-1.666565 -0.0767,-0.430295 0.0502,0.141059 -0.43977,-0.673862 -0.4012,-0.667258 -0.71917,-1.390748 -0.73897,-2.180744 0.24955,-0.167214 0.0846,-0.01397 -0.25632,-0.505396 -0.56742,-0.818005 -1.06585,-1.727687 -1.28519,-2.706296 -0.0197,-0.08996 -0.0659,-0.177943 -0.0589,-0.269751 0.003,-0.0412 0.0418,0.07341 0.0729,0.100769 0.0279,0.02466 0.12262,0.07926 0.0987,0.05064 -0.31481,-0.378079 -0.73578,-0.67542 -0.99478,-1.104326 -0.50274,-0.635418 -0.81029,-1.00748 -1.18287,-1.774052 -0.004,-0.0084 0.009,-0.01394 0.0212,-0.01601 -0.23751,-0.206177 -0.47783,-0.409396 -0.70745,-0.62425 -0.0797,-0.07463 -0.1059,-0.191786 -0.1695,-0.280604 -0.43983,-0.614418 -0.38433,-0.416476 -0.75447,-1.258322 -0.0177,-0.04026 0.0658,0.0587 0.0987,0.08785 0.13109,0.05543 0.50351,0.255894 0.39326,0.165883 -0.17158,-0.140068 -0.40948,-0.181343 -0.58188,-0.320394 -0.88773,-0.715995 -1.05979,-1.018683 -1.50688,-1.907376 -0.0979,-0.191715 -0.20904,-0.376838 -0.29404,-0.574644 -0.0148,-0.03443 0.0434,0.07383 0.0806,0.07803 0.0238,0.0026 0.0432,-0.04874 0.0269,-0.06615 -0.39336,-0.419249 -0.98206,-0.646735 -1.28158,-1.166853 -0.1125,-0.191614 -0.23427,-0.377592 -0.33693,-0.574643 -0.18518,-0.355354 -0.1705,-0.444947 -0.33332,-0.787032 -0.17278,-0.363056 -0.5905,-0.59509 -0.76687,-0.939477 -0.0609,-0.261972 -0.11842,-0.525061 -0.17725,-0.787549 -0.0436,-0.0329 -0.0826,-0.06414 -0.13591,-0.09973 -0.44142,-0.370025 -0.62465,-0.456872 -0.91674,-0.961184 -0.12499,-0.215757 -0.2144,-0.451022 -0.30541,-0.683162 -0.0183,-0.04674 -0.0615,-0.140372 -0.0682,-0.188103 -0.11362,-0.09358 -0.2207,-0.192648 -0.30541,-0.299207 -0.27074,-0.340624 -0.55325,-0.817118 -0.68936,-1.309997 -0.23179,-0.321056 -0.4613,-0.702495 -0.493,-0.752408 -0.0214,-0.0336 0.0423,0.07034 0.0739,0.09457 0.033,0.02532 0.14071,0.08168 0.11421,0.04961 -0.0811,-0.09812 -0.18901,-0.169714 -0.28371,-0.254764 -0.20032,-0.18964 -0.5585,-0.512752 -0.74259,-0.74104 -0.16965,-0.210362 -0.32549,-0.431072 -0.48162,-0.65164 -0.015,-0.02117 0.0952,0.01844 0.0775,-5.29e-4 -0.023,-0.02461 -0.0508,-0.04431 -0.0749,-0.0677 z m 5.25756,1.267624 c 0.003,0.31759 -5.3e-4,0.636058 0.0729,0.943094 0.0528,0.220937 0.0279,-0.454189 0.0636,-0.678511 0.002,-0.01188 0.0115,0.01019 0.0202,0.03204 -0.0256,-0.0791 -0.0488,-0.159554 -0.0873,-0.233061 -0.0127,-0.02439 -0.0431,-0.04391 -0.0692,-0.06356 z m -6.87297,1.462958 c 0.12752,0.117371 0.25467,0.235092 0.38034,0.354502 0.0817,-0.02297 0.16347,-0.04591 0.25063,-0.07287 0.38603,-0.119372 -0.0262,-0.234889 -0.63097,-0.281635 z m 7.96282,0.290422 c 0.0173,0.05463 0.0324,0.111435 0.0512,0.164849 0.006,0.01804 0.0287,-0.0363 0.0207,-0.05375 -0.018,-0.03992 -0.0455,-0.07534 -0.0718,-0.111104 z m -6.9944,0.490927 c -0.0374,0.0019 -0.0792,0.0088 -0.12506,0.02066 0.10678,0.105376 0.21187,0.212633 0.3173,0.319361 0.0464,-0.247627 -0.028,-0.347975 -0.19224,-0.34003 z m 4.63382,1.356505 c -0.008,0.03224 -0.008,0.15567 0.0114,0.200504 0.0349,0.07888 0.0626,0.133652 0.0946,0.202573 -0.0318,-0.132871 -0.0611,-0.266208 -0.0956,-0.398426 -0.004,-0.01582 -0.008,-0.01492 -0.0104,-0.0047 z m 8.54522,6.936528 c 0.0522,0.05508 0.10974,0.105257 0.16381,0.158647 -0.0179,-0.02601 -0.0351,-0.05262 -0.0537,-0.07803 -0.0366,-0.02693 -0.14137,-0.113702 -0.11007,-0.08061 z m 8.77672,23.747903 c -0.16417,-0.003 -0.3649,0.0261 -0.28008,0.0909 0.87947,0.67313 1.49134,0.9325 1.90117,1.10019 0.003,-0.0746 0.0109,-0.15021 0.003,-0.22118 -0.51676,-0.72187 -0.35399,-0.70671 -1.48363,-0.95704 -0.0348,-0.008 -0.0853,-0.0121 -0.14004,-0.0129 z m -2.58175,4.48396 c -0.003,0.0448 -0.005,0.0914 -0.006,0.11421 v 5.3e-4 c 7.9e-4,0.003 0.002,0.006 0.003,0.009 0.002,-0.0329 0.004,-0.0815 0.003,-0.12351 z m 1.41025,17.36948 c 0.001,0.13843 1.6e-4,0.27691 0.0109,0.41445 0.001,0.79719 0.002,1.59443 -0.006,2.39159 0.001,0.73838 0.0561,1.4785 -0.01,2.21485 -0.025,0.34103 -0.01,0.68749 -0.0775,1.02267 -0.0127,0.0626 -0.0903,0.10798 -0.0853,0.17157 0.011,0.12929 0.0897,0.24345 0.13126,0.36639 0.20677,0.6118 0.18629,0.56403 0.34985,1.13688 0.0848,0.30918 0.29633,1.03801 0.34933,1.37924 0.10715,0.68961 0.11691,1.38536 0.13332,2.08049 0.2015,0.11944 0.27275,0.43789 0.13436,1.06402 -0.0424,0.19168 -0.0475,0.21814 -0.062,0.28784 0.0257,0.2593 0.0582,0.51801 0.11007,0.77566 h -10e-4 c 0.008,0.0377 0.007,0.07 0.0139,0.10697 0.12294,0.0235 0.24342,0.0551 0.35915,0.10129 0.13548,-0.86953 0.20122,-1.18247 0.62477,-1.84072 0.002,-0.80951 -0.005,-1.61868 -0.0155,-2.42775 0.06,-1.10093 -0.011,0.10486 0.0553,-0.78032 0.0224,-0.29906 0.0137,-0.63823 0.11317,-0.68885 -0.0498,-0.2068 -0.10191,-0.413 -0.15245,-0.6196 -0.0289,-0.0276 -0.0649,-0.0672 -0.0889,-0.0868 -0.48148,-1.20206 -0.55763,-1.11192 -0.46922,-2.18385 -0.28942,-0.56628 -0.42125,-1.1192 -0.49713,-1.78955 -0.01,-0.0867 0.007,-0.17429 0.01,-0.26149 0.006,-0.66196 0.0309,0.0343 -0.1819,-0.94102 -0.13258,-0.60773 -0.17991,-1.20269 -0.18707,-1.80765 -0.15201,0.0923 -0.34529,0.0448 -0.56121,-0.0863 z m 1.77457,6.36603 c -0.0106,-0.0387 -0.0181,0.0787 -0.0191,0.11885 -0.004,0.12365 0.009,0.26375 0.0848,0.36173 0.0238,0.0309 0.0519,0.0591 0.0801,0.0873 -0.0475,-0.18955 -0.0935,-0.37964 -0.14572,-0.56792 z m 0.20257,5.37176 c -5.3e-4,0.002 -0.003,0.005 -0.003,0.007 -0.0313,0.1129 -0.0198,0.46674 5.3e-4,0.3514 0.0206,-0.11756 0.003,-0.23857 0.003,-0.35812 z m -4.79144,0.36587 c -0.0296,0.0948 -0.0591,0.18969 -0.0889,0.28474 -0.007,0.13886 0.0407,0.2079 0.1235,0.23306 -0.012,-0.11758 -0.0261,-0.38345 -0.0346,-0.5178 z m -2.9714,3.50263 c -0.01,-0.009 0.0193,0.2179 0.0403,0.39584 0.01,-0.0241 0.0189,-0.0493 0.0289,-0.0729 -0.0189,-0.0933 -0.0336,-0.18751 -0.0558,-0.28009 -0.007,-0.0273 -0.011,-0.0406 -0.0134,-0.0429 z m 9.01703,4.5992 c -0.19088,0.20915 -0.45665,0.43908 -0.50075,0.39119 -0.0556,0.0753 -0.11457,0.15107 -0.1788,0.22841 0.22621,-0.0621 0.44878,-0.13199 0.65888,-0.22893 0.0196,-0.009 0.0137,-0.0405 0.0207,-0.0605 z m -8.57416,19.98689 c -0.008,-0.003 0.007,0.0888 0.0212,0.18345 0.008,-0.0203 0.0135,-0.0412 0.0212,-0.0615 -0.01,-0.0252 -0.0391,-0.12091 -0.0424,-0.12196 z m 3.16932,0.61134 c -0.007,0.004 -0.013,0.0252 -0.0202,0.0677 -0.069,0.4134 0.002,0.8356 0.0284,1.25626 0.0366,-0.0769 0.079,-0.1523 0.11059,-0.23048 -0.0405,-0.29919 -0.0733,-1.12076 -0.11886,-1.09347 z m -3.44475,0.77049 c -0.0255,0.0265 -0.0507,0.0515 -0.076,0.077 0.16796,0.30684 0.36206,1.56086 0.076,-0.077 z m -0.10542,0.10697 c -0.0224,0.0223 -0.0454,0.0467 -0.0677,0.0682 -0.0216,0.0674 -0.0386,0.13179 0.005,0.17209 0.0513,0.0456 0.051,-0.14725 0.0625,-0.2403 z m 0.58911,3.34398 c -0.0101,5.3e-4 -0.0222,0.0129 -0.0362,0.0398 -0.23037,0.44422 -0.36929,0.92703 -0.50694,1.41077 0.19139,-0.21449 0.38928,-0.42386 0.50539,-0.68316 0.0408,-0.0907 0.063,-0.26339 0.0724,-0.42323 -0.0303,0.004 -0.055,-0.005 -0.0698,-0.0413 -0.0219,-0.0537 0.0181,-0.0822 0.0739,-0.10491 -0.002,-0.10931 -0.0125,-0.19907 -0.0388,-0.19792 z m -6.33863,5.69785 c -0.0789,0.0175 -0.23439,0.10982 -0.39119,0.21394 0.0223,0.0552 0.0475,0.14181 0.0713,0.21859 0.11703,-0.11881 0.23386,-0.23776 0.35088,-0.35657 0.0409,-0.0679 0.0228,-0.0879 -0.031,-0.076 z m 2.98845,0.17983 c 0.004,0.15739 -0.0328,0.2412 -0.14367,0.16175 0.0551,-0.0609 0.0961,-0.10815 0.14367,-0.16175 z m -3.65404,0.23823 c -0.0482,0.0404 -0.10655,0.0843 -0.13643,0.1173 -0.16338,0.18019 -0.31159,0.55849 -0.39481,0.78755 0.20789,-0.21106 0.41584,-0.42197 0.62374,-0.63303 -0.0419,-0.0999 -0.0708,-0.1885 -0.0925,-0.27182 z m 2.8732,1.57406 c -0.004,1.2e-4 -0.0103,0.008 -0.0171,0.0238 -0.0762,0.18078 -0.13748,0.36676 -0.19947,0.55294 0.0492,-0.045 0.0974,-0.0913 0.14107,-0.14107 0.0802,-0.0913 0.10672,-0.43648 0.0754,-0.43564 z m -3.03754,1.84175 c -0.002,0.001 -0.002,0.006 -10e-4,0.0176 0.0208,0.16552 0.0291,0.18879 0.045,0.29249 0.006,-0.011 0.0127,-0.021 0.0181,-0.032 0.0345,-0.0702 -0.0482,-0.28485 -0.062,-0.27802 z m -1.46864,2.05259 c 0.0531,0.0827 0.12791,0.10171 0.23099,0.0424 -0.0832,-0.0143 -0.15397,-0.0283 -0.23099,-0.0424 z" />
    </clipPath>
  </defs>
  <g
     inkscape:label="Vrstva 1"
     inkscape:groupmode="layer"
     id="layer1">
    <ellipse
       style="fill:none;fill-rule:evenodd;stroke:#ffffff;stroke-width:0.296113"
       id="path145"
       cx="102.25827"
       cy="135.98634"
       rx="97.945953"
       ry="97.731117"
       clip-path="url(#clipPath2233)" />
    <ellipse
       style="fill:none;fill-rule:evenodd;stroke:#ffffff;stroke-width:0.297427"
       id="path249"
       cx="126.10423"
       cy="130.18596"
       rx="77.966255"
       ry="87.203873"
       clip-path="url(#clipPath2243)" />
    <path
       style="fill:none;stroke:none;stroke-width:1.06026"
       d="M 355.1887,880.95535 C 244.57367,871.63423 141.87907,811.14758 80.094694,718.92623 47.464259,670.22101 28.04709,618.29509 19.956745,558.10374 c -2.618787,-19.48353 -2.580106,-69.62003 0.06862,-88.93658 3.641052,-26.5534 9.608552,-52.0118 17.6455,-75.2788 C 81.544487,266.87401 193.69882,172.32532 326.11881,150.7201 c 41.52483,-6.77506 88.0921,-6.40067 127.14438,1.02222 8.83061,1.67849 40.23331,9.19148 40.99354,9.80757 0.0953,0.0773 -8.96991,0.19114 -20.14503,0.25306 -43.2994,0.23989 -79.85017,9.14077 -119.78461,29.17008 -57.43083,28.80471 -104.53363,77.32338 -135.74908,139.82958 -66.51757,133.1956 -43.41267,298.81429 56.21695,402.96958 45.44116,47.50534 101.47734,76.81634 165.42147,86.52746 14.62972,2.2218 54.80768,2.51385 69.24079,0.5033 63.83703,-8.89258 116.92234,-35.55276 164.07597,-82.40122 9.47612,-9.41479 17.2293,-16.88893 17.2293,-16.60919 0,1.05394 -9.96903,14.41794 -19.34742,25.93622 -12.13045,14.89829 -34.87552,37.71549 -49.69123,49.84881 -67.83228,55.55126 -151.0623,85.10954 -237.70068,84.41697 -10.0275,-0.0802 -23.00301,-0.5478 -28.83446,-1.03919 z"
       id="path2913"
       transform="scale(0.26458333)" />
    <path
       style="fill:#ffffff;stroke:none;stroke-width:1.06026"
       d="M 355.1887,880.95535 C 244.57367,871.63423 141.87907,811.14758 80.094694,718.92623 47.464259,670.22101 28.04709,618.29509 19.956745,558.10374 c -2.618787,-19.48353 -2.580106,-69.62003 0.06862,-88.93658 3.641052,-26.5534 9.608552,-52.0118 17.6455,-75.2788 C 81.544487,266.87401 193.69882,172.32532 326.11881,150.7201 c 41.52483,-6.77506 88.0921,-6.40067 127.14438,1.02222 8.83061,1.67849 40.23331,9.19148 40.99354,9.80757 0.0953,0.0773 -8.96991,0.19114 -20.14503,0.25306 -43.2994,0.23989 -79.85017,9.14077 -119.78461,29.17008 -57.43083,28.80471 -104.53363,77.32338 -135.74908,139.82958 -66.51757,133.1956 -43.41267,298.81429 56.21695,402.96958 45.44116,47.50534 101.47734,76.81634 165.42147,86.52746 14.62972,2.2218 54.80768,2.51385 69.24079,0.5033 63.83703,-8.89258 116.92234,-35.55276 164.07597,-82.40122 9.47612,-9.41479 17.2293,-16.88893 17.2293,-16.60919 0,1.05394 -9.96903,14.41794 -19.34742,25.93622 -12.13045,14.89829 -34.87552,37.71549 -49.69123,49.84881 -67.83228,55.55126 -151.0623,85.10954 -237.70068,84.41697 -10.0275,-0.0802 -23.00301,-0.5478 -28.83446,-1.03919 z"
       id="path3194"
       transform="scale(0.26458333)" />
    <ellipse
       style="fill:none;fill-rule:evenodd;stroke:#ffffff;stroke-width:0.262278"
       id="path3394"
       cx="130.16518"
       cy="144.61238"
       rx="23.00448"
       ry="23.705801" />
    <path
       style="fill:#ffffff;stroke:none;stroke-width:1.06026"
       d="m 480.29994,634.41329 c -53.55353,-8.62355 -86.76948,-64.22446 -69.42725,-116.21582 9.462,-28.36675 32.09136,-49.96197 60.415,-57.65412 9.57567,-2.60057 31.83907,-2.59408 41.28899,0.012 51.81726,14.29024 78.67754,70.46653 58.01132,121.3264 -9.60923,23.64846 -32.42336,43.70394 -57.45809,50.51035 -6.33115,1.72131 -26.84801,2.98441 -32.82997,2.02116 z"
       id="path3513"
       transform="scale(0.26458333)" />
    <path
       style="fill:#ffffff;fill-opacity:1;fill-rule:nonzero;stroke:none;stroke-width:0.264583"
       id="path3622"
       d="m 123.9168,167.68051 c -0.37921,0.94693 -0.89171,1.83183 -1.30703,2.7638 -0.44165,1.12098 -1.02083,2.17736 -1.45376,3.30207 -0.35507,1.03168 -0.73062,2.0569 -0.97438,3.12163 -0.20597,0.699 -0.32743,1.41665 -0.48955,2.12593 -0.0845,0.54019 -0.23311,1.06094 -0.40172,1.58013 -0.19571,0.6582 -0.38499,1.31665 -0.56293,1.98 -0.14831,0.70969 -0.39453,1.38908 -0.54722,2.09745 -0.20486,0.64308 -0.30612,1.30855 -0.418,1.97174 -0.21247,0.86834 -0.39255,1.74249 -0.50761,2.62911 -0.0363,0.71543 -0.16739,1.41841 -0.25338,2.12857 -0.0372,0.70938 -0.11068,1.4072 -0.22385,2.10763 -0.14114,0.86017 -0.15337,1.7338 -0.16702,2.60317 -0.0114,1.03412 -0.0105,2.06833 -0.01,3.10249 -0.0178,0.84054 -0.001,1.67458 0.0906,2.51025 0.11253,0.80903 0.12447,1.62672 0.21896,2.4369 0.0808,0.75939 0.22628,1.50499 0.38299,2.25134 0.16178,0.95423 0.43956,1.88566 0.77084,2.79343 0.29916,0.89172 0.77352,1.70139 1.2297,2.51779 0.47212,0.76081 0.97525,1.50536 1.54494,2.19676 0.65268,0.75911 1.57144,1.19274 2.45706,1.61904 1.44789,0.57907 2.91435,1.10433 4.41832,1.51701 1.28181,0.31489 2.54013,0.70875 3.84839,0.89781 1.37144,0.1775 2.74917,0.11288 4.12262,0.01 1.14009,-0.14705 2.26675,-0.38359 3.37877,-0.67211 0.7321,-0.17337 1.46261,-0.35618 2.17995,-0.58369 0.67067,-0.20781 1.30707,-0.48628 1.91646,-0.83255 0.8055,-0.46604 1.41996,-1.13481 1.96105,-1.87971 0.42962,-0.68981 0.80819,-1.40294 1.16569,-2.13246 0.35479,-0.85551 0.66675,-1.73219 0.88833,-2.63213 0.20108,-0.68074 0.47762,-1.33432 0.69359,-2.01025 0.16659,-0.62485 0.35437,-1.23998 0.59607,-1.83913 0.26599,-0.76035 0.47384,-1.53933 0.7019,-2.31156 0.27065,-0.827 0.369,-1.6857 0.42001,-2.54966 0.0382,-0.84764 0.0366,-1.69636 0.0365,-2.54465 -0.001,-0.74628 -0.003,-1.49255 -0.003,-2.23883 -8e-4,-0.70355 -8e-4,-1.40711 -8e-4,-2.11066 -2e-5,-0.77177 0,-1.54353 1e-5,-2.3153 0.0422,-0.78385 -0.091,-1.5572 -0.1785,-2.33287 -0.004,-0.80757 -0.25829,-1.56824 -0.43145,-2.34711 -0.20187,-0.88073 -0.4558,-1.74813 -0.71682,-2.61286 -0.23389,-0.79533 -0.65701,-1.5101 -0.96461,-2.27386 -0.29874,-0.6832 -0.64697,-1.34473 -1.00094,-2.00081 -0.32715,-0.67089 -0.84801,-1.21426 -1.25163,-1.83566 -0.38607,-0.59196 -0.93406,-1.04678 -1.38705,-1.58127 -0.39317,-0.48814 -0.81927,-0.95814 -1.11435,-1.51485 -0.41348,-0.60316 -0.87068,-1.17361 -1.30343,-1.76452 -0.34057,-0.48276 -0.74669,-0.93327 -1.01873,-1.4604 -0.32928,-0.63409 -0.74051,-1.22244 -1.06464,-1.85878 -0.46841,-0.78325 -0.86516,-1.60586 -1.32051,-2.3965 -0.0889,-0.14767 -0.17791,-0.29535 -0.26686,-0.44303 -1.09534,-1.81666 -3.66449,-0.26762 -2.56915,1.54904 v 0 c 0.0803,0.13298 0.16053,0.26596 0.24079,0.39894 0.43792,0.74832 0.80333,1.53714 1.25511,2.27759 0.34521,0.6537 0.74908,1.27313 1.09965,1.92402 0.35724,0.6281 0.78781,1.20907 1.22531,1.78346 0.36004,0.48993 0.72224,0.97684 1.10145,1.44975 0.41534,0.72827 0.92755,1.38735 1.47178,2.02409 0.37863,0.42912 0.80187,0.81806 1.15155,1.27217 0.364,0.54106 0.80061,1.03238 1.11307,1.60524 0.3062,0.56183 0.60258,1.13117 0.86489,1.71463 0.2809,0.67183 0.63694,1.30715 0.86721,2.00074 0.24233,0.79603 0.47484,1.59538 0.66218,2.4063 0.15519,0.67479 0.38168,1.31874 0.37624,2.02134 0.0755,0.66429 0.2001,1.32378 0.15943,1.99517 -1e-5,0.77184 -2e-5,1.54367 0,2.31551 4e-5,0.70461 3e-5,1.40923 7.9e-4,2.11384 7.9e-4,0.74537 0.002,1.49075 0.003,2.23612 1.8e-4,0.79101 0.002,1.58239 -0.0316,2.37285 -0.0348,0.63611 -0.0969,1.26696 -0.30312,1.87476 -0.19908,0.67986 -0.38749,1.36304 -0.60642,2.03676 -0.26982,0.6708 -0.48705,1.35867 -0.67415,2.05684 -0.23048,0.74294 -0.55484,1.45414 -0.74894,2.20919 -0.16161,0.69009 -0.41704,1.35409 -0.6661,2.01624 -0.28654,0.58478 -0.58008,1.15518 -0.9159,1.71299 -0.27633,0.40406 -0.57745,0.75515 -1.00066,1.01189 -0.0952,0.0542 -0.19598,0.0997 -0.28561,0.16273 -0.009,0.006 0.0383,0.0139 0.0281,0.0184 -0.35668,0.15672 -0.73979,0.26683 -1.10346,0.40606 -0.65495,0.22339 -1.337,0.36039 -2.00614,0.53288 -0.93904,0.2444 -1.88917,0.44279 -2.84956,0.58416 -1.16252,0.0879 -2.32754,0.15569 -3.48945,0.01 -1.18097,-0.14874 -2.30492,-0.56555 -3.46481,-0.81938 -1.33253,-0.36316 -2.62692,-0.83339 -3.91549,-1.32973 -0.50045,-0.23733 -1.05657,-0.45559 -1.45547,-0.84363 -0.46623,-0.53043 -0.82841,-1.14713 -1.22266,-1.73038 -0.38163,-0.6815 -0.78885,-1.35208 -1.0359,-2.0985 -0.29201,-0.76375 -0.50667,-1.5598 -0.64702,-2.36542 -0.14022,-0.66597 -0.27408,-1.32905 -0.34215,-2.00771 -0.11253,-0.79137 -0.0827,-1.60113 -0.21368,-2.39212 -0.0806,-0.72672 -0.0866,-1.45144 -0.0725,-2.18315 -5.3e-4,-1.01814 -0.002,-2.0363 0.009,-3.05439 0.011,-0.72454 0.0146,-1.45355 0.12897,-2.17093 0.11953,-0.73977 0.2054,-1.47902 0.24079,-2.22794 0.0838,-0.7024 0.21537,-1.39858 0.2506,-2.10613 0.10648,-0.84842 0.30063,-1.67935 0.49034,-2.51239 0.10456,-0.62391 0.20341,-1.24684 0.39539,-1.85215 0.13202,-0.65603 0.38474,-1.28015 0.50938,-1.93892 0.16477,-0.6171 0.34005,-1.22974 0.5224,-1.84188 0.18972,-0.59975 0.368,-1.20342 0.46882,-1.82538 0.16284,-0.71268 0.28555,-1.43319 0.49178,-2.13574 0.20393,-0.92956 0.55634,-1.81639 0.85349,-2.71873 0.39733,-1.07788 0.98931,-2.07025 1.39026,-3.14736 0.41649,-0.94493 0.94591,-1.8358 1.32202,-2.79818 0.83563,-1.94981 -1.92181,-3.13157 -2.75744,-1.18176 z" />
    <path
       style="fill:#ffffff;fill-opacity:1;fill-rule:nonzero;stroke:none;stroke-width:0.264583"
       id="path3624"
       d="m 127.0039,168.11325 c 1.43089,0.52743 2.93293,0.79507 4.44019,0.98554 0.56437,0.12498 1.30035,0.0145 1.81221,0.35095 -0.27326,-0.56993 -0.82465,-1.07775 -0.81978,-1.70979 0.003,-0.42685 0.58697,-0.62275 0.84041,-0.96624 0.0237,-0.032 -0.0791,-0.0123 -0.11894,-0.0116 -0.14275,0.003 -0.28511,0.0159 -0.42778,0.0213 -0.41543,0.0157 -0.74044,0.0194 -1.15769,0.0268 -1.06522,0.0468 -2.16571,-0.13166 -3.18508,0.27003 -0.23169,0.0913 -0.43818,0.23676 -0.65728,0.35514 -0.452,0.22295 -0.73176,0.73101 -1.19702,0.93284 -0.092,0.0399 0.18029,-0.0892 0.27487,-0.12269 0.43988,-0.0103 1.24749,0.21099 1.28653,0.78746 0.0259,0.38204 -0.0592,0.7663 -0.14421,1.13966 -0.0211,0.0928 -0.1773,0.13627 -0.16786,0.23098 0.006,0.0633 0.12468,-0.0258 0.18702,-0.0388 0.85046,-0.2088 1.73338,-0.16844 2.59623,-0.066 0.83972,0.2033 1.67664,0.41552 2.52174,0.59621 0.12353,0.0273 0.44864,0.18147 0.37059,0.0819 -0.3145,-0.40121 -0.96704,-0.55399 -1.12147,-1.03982 -0.37127,-1.168 1.16686,-1.67399 -0.21156,-1.1481 -1.97899,0.76396 -0.89858,3.56267 1.0804,2.79871 v 0 c 0.16579,-0.0646 1.11539,-0.4167 1.20213,-0.53193 0.38309,-0.50891 0.93581,-1.06654 0.87211,-1.70033 -0.11598,-1.15398 -0.8644,-1.23944 -1.56639,-1.39445 -0.9437,-0.20074 -1.87278,-0.46098 -2.81994,-0.64426 -1.2901,-0.13408 -2.6002,-0.16972 -3.85912,0.19759 -0.43158,0.15651 -1.18043,0.36212 -1.43156,0.79055 -0.6227,1.06234 -0.58579,2.18414 0.57941,2.74846 0.26371,0.12772 0.57316,0.12202 0.85974,0.18303 0.21705,-0.0423 0.44001,-0.0611 0.65114,-0.12676 0.61892,-0.19261 1.11704,-0.68178 1.58508,-1.10441 0.0435,-0.0516 0.0652,-0.13884 0.1309,-0.15443 0.71302,-0.16929 1.49763,0.0667 2.21763,-0.0411 0.94888,-0.0172 3.4818,0.1712 3.6885,-1.22474 0.0979,-0.66147 -0.51935,-1.2324 -0.77903,-1.8486 -0.86053,-0.38391 -1.78013,-0.55188 -2.71858,-0.61427 -1.23053,-0.15301 -2.45466,-0.36365 -3.63178,-0.7663 -1.94981,-0.83563 -3.13157,1.92181 -1.18176,2.75744 z" />
    <path
       style="fill:#ffffff;fill-opacity:1;fill-rule:nonzero;stroke:none;stroke-width:0.264583"
       id="path3626"
       d="m 118.20901,182.29123 c -1.76539,0.1876 -3.54663,0.17632 -5.32006,0.20401 -1.83302,-0.0112 -3.66193,0.0344 -5.47191,0.33695 -1.41129,0.22119 -2.77638,0.64805 -4.11167,1.14524 -1.19737,0.45865 -2.30109,1.06081 -3.28895,1.87687 -0.802251,0.72039 -1.358384,1.52244 -1.819296,2.48973 -0.392838,0.81192 -0.560785,1.68552 -0.638511,2.57621 -0.03398,0.52769 -0.03673,1.05659 -0.03947,1.58514 -0.01069,2.12129 2.989267,2.13642 2.999967,0.0151 v 0 c 0.002,-0.45033 0.004,-0.90091 0.0291,-1.3507 0.0414,-0.53176 0.12158,-1.053 0.35874,-1.53859 0.275,-0.58118 0.55795,-1.04467 1.04742,-1.48686 0.70189,-0.62096 1.54483,-1.00193 2.40501,-1.35817 1.15443,-0.43746 2.33943,-0.803 3.56141,-0.99659 1.65689,-0.28897 3.33689,-0.29168 5.01503,-0.29471 1.88208,-0.0294 3.77232,-0.02 5.64528,-0.22682 2.10494,-0.26311 1.73284,-3.23995 -0.3721,-2.97684 z" />
    <path
       style="fill:#ffffff;fill-opacity:1;fill-rule:nonzero;stroke:none;stroke-width:0.264583"
       id="path3628"
       d="m 99.614251,191.21806 c -1.074883,-0.48478 -2.355255,-0.57899 -3.440354,-0.0553 -0.203102,0.098 -0.382759,0.23861 -0.574138,0.35792 -0.819351,0.70893 -1.196834,1.83474 -0.636198,2.83313 0.106262,0.18923 0.266197,0.34284 0.399296,0.51426 0.572341,0.5391 1.330193,0.7996 2.064014,1.04078 0.666414,0.2003 1.320708,0.38625 2.016464,0.44284 1.230935,5.3e-4 1.814095,-0.5595 2.268605,-1.64417 0.71626,-1.99674 -2.107566,-3.00969 -2.823825,-1.01294 v 0 c 0.21944,-0.14687 0.450456,-0.42816 0.753941,-0.35351 0.02524,0.006 -0.05126,0.009 -0.07689,0.0131 -0.381899,-0.0384 -0.817874,-0.20278 -1.220274,-0.30139 -0.278667,-0.0858 -0.55001,-0.23702 -0.829556,-0.2744 0.217448,0.38832 0.305634,0.95127 -0.186325,1.19379 -0.191997,-0.27893 1.221529,-0.16751 1.066827,-0.0127 1.938482,0.86155 3.156902,-1.87989 1.218417,-2.74144 z" />
    <path
       style="fill:#ffffff;fill-opacity:1;fill-rule:nonzero;stroke:none;stroke-width:0.264583"
       id="path3630"
       d="m 144.6308,180.7335 c 1.03086,0.50991 2.14152,0.81477 3.27156,1.00142 1.18845,0.23787 2.39493,0.32845 3.60337,0.38061 1.18752,-0.008 2.36655,0.12173 3.54871,0.21291 0.86018,0.0795 1.67755,0.36909 2.50135,0.60964 0.51147,0.0995 0.97665,0.3082 1.41988,0.57481 0.5755,0.36144 1.07505,0.8099 1.5603,1.28162 0.50726,0.4841 0.86599,1.09581 1.2854,1.65385 0.3983,0.55992 0.80712,1.11377 1.2449,1.64385 0.38419,0.58249 0.63468,1.23266 0.97151,1.84187 0.32866,0.52463 0.60915,1.07603 0.90143,1.62118 1.00443,1.86847 3.64683,0.44799 2.6424,-1.42047 v 0 c -0.30289,-0.56223 -0.5913,-1.13255 -0.93064,-1.67422 -0.43917,-0.75266 -0.71091,-1.60135 -1.27496,-2.28281 -0.4102,-0.49254 -0.78614,-1.01302 -1.15831,-1.53428 -0.51402,-0.68071 -0.95712,-1.42329 -1.59291,-2.0023 -0.65813,-0.63727 -1.34893,-1.23311 -2.13122,-1.71595 -0.65933,-0.3811 -1.34855,-0.70662 -2.09824,-0.86729 -1.02257,-0.29748 -2.04044,-0.63909 -3.11041,-0.72064 -1.21626,-0.0936 -2.42988,-0.22491 -3.65151,-0.21906 -1.09377,-0.0459 -2.18516,-0.12719 -3.26028,-0.34616 -0.82957,-0.12379 -1.64324,-0.35752 -2.40069,-0.72186 -1.89737,-0.94869 -3.23901,1.7346 -1.34164,2.68328 z" />
    <path
       style="fill:#ffffff;fill-opacity:1;fill-rule:nonzero;stroke:none;stroke-width:0.264583"
       id="path3632"
       d="m 166.08488,188.97877 c -1.49093,0.0399 -2.50576,0.82501 -3.29583,2.022 -0.54537,1.22367 -0.36489,2.26248 0.79676,3.03321 0.1691,0.1122 0.37672,0.15107 0.56507,0.2266 1.32068,0.39177 2.3244,-0.009 3.37007,-0.81962 0.66294,-0.63078 1.30627,-1.48131 1.27839,-2.45327 -0.007,-0.26111 -0.0715,-0.51752 -0.1072,-0.77629 -0.1348,-0.24605 -0.26961,-0.49211 -0.40441,-0.73817 -1.233,-1.72619 -3.6742,0.0175 -2.44119,1.74373 v 0 c -0.0196,-0.0848 -0.0392,-0.16959 -0.0588,-0.25439 0.008,-0.0877 0.009,-0.17656 0.0255,-0.26315 0.004,-0.0192 -0.005,0.0501 0.0135,0.057 0.0189,0.007 0.0488,-0.0531 0.0505,-0.033 0.0115,0.13148 -0.17514,0.28806 -0.23488,0.37856 -0.17977,0.15746 -0.27396,0.37428 -0.52738,0.31779 0.0343,0.20653 -0.0305,-0.14692 0.29974,0.40914 0.11599,0.19531 0.11642,0.58517 -0.0654,0.73552 0.11713,-0.32928 0.3847,-0.5769 0.73553,-0.58561 2.12133,0 2.12133,-3 0,-3 z" />
    <path
       style="fill:#ffffff;fill-opacity:1;fill-rule:nonzero;stroke:none;stroke-width:0.264583"
       id="path3634"
       d="m 124.79563,214.74177 c -1.04944,1.0068 -1.68319,2.34347 -2.29537,3.64144 -0.46454,1.02904 -0.72542,2.13635 -0.93187,3.24223 -0.15638,0.88028 -0.18239,1.77403 -0.19733,2.66553 0.0343,0.73937 -0.0831,1.46862 -0.1626,2.20117 -0.0984,1.03333 -0.12821,2.07443 -0.0782,3.11095 0.0747,1.0156 0.14535,2.02929 0.30721,3.03501 0.13952,0.83804 0.31437,1.66678 0.41143,2.51182 0.16916,0.85376 0.24976,1.71922 0.36188,2.58092 0.2775,2.1031 3.25173,1.71065 2.97422,-0.39244 v 0 c -0.11353,-0.8457 -0.18361,-1.69744 -0.35616,-2.53482 -0.1043,-0.88879 -0.27916,-1.76253 -0.42967,-2.64338 -0.14578,-0.9009 -0.20277,-1.80962 -0.2733,-2.71944 -0.0552,-0.87352 -0.006,-1.75377 0.0652,-2.62529 0.0891,-0.82296 0.21181,-1.64461 0.17967,-2.47498 0.0118,-0.72636 0.0254,-1.45507 0.14838,-2.17311 0.15326,-0.85339 0.35097,-1.7108 0.69642,-2.50833 0.42384,-0.90601 0.85305,-1.8424 1.50073,-2.61261 1.62964,-1.35804 -0.29091,-3.66271 -1.92056,-2.30467 z" />
    <path
       style="fill:#ffffff;fill-opacity:1;fill-rule:nonzero;stroke:none;stroke-width:0.264583"
       id="path3636"
       d="m 124.27897,236.88123 c -1.24708,-0.39865 -2.73031,-0.48241 -3.88367,0.25132 -0.19469,0.12386 -0.35361,0.29655 -0.53042,0.44483 -0.1321,0.20838 -0.30708,0.39512 -0.39631,0.62515 -0.54291,1.39959 0.41834,2.28134 1.4807,2.916 1.07449,0.51653 2.25801,0.70342 3.4399,0.72491 1.66325,-0.13067 2.31668,-1.0125 2.67979,-2.53246 0.45304,-2.07238 -2.47775,-2.71308 -2.93079,-0.64069 v 0 c -0.0135,0.0857 -0.0974,0.1981 -0.0346,0.258 0.0178,0.017 0.48263,-0.18335 0.40403,-0.12342 -0.0309,0.0235 -0.0732,0.0257 -0.10982,0.0386 -0.67151,0.0219 -1.35334,-0.1193 -1.98411,-0.34323 -0.0981,-0.0412 -0.19279,-0.0836 -0.19794,-0.0766 -0.0356,0.0485 0.30276,1.0642 -0.23812,1.28361 -0.0454,0.0179 -0.0874,0.0542 -0.13612,0.0537 -0.092,-7.9e-4 0.14821,-0.1188 0.23767,-0.14023 0.46633,-0.11172 0.86837,-0.0513 1.31755,0.12784 2.02752,0.62385 2.90978,-2.24349 0.88226,-2.86734 z" />
    <path
       style="fill:#ffffff;fill-opacity:1;fill-rule:nonzero;stroke:none;stroke-width:0.264583"
       id="path3638"
       d="m 140.18745,215.37034 c -0.41723,0.94916 -0.83517,1.89958 -1.21992,2.86323 -0.46531,1.27316 -0.66058,2.62953 -0.84046,3.96805 -0.16459,1.37371 -0.18633,2.75789 -0.20297,4.13954 -0.009,1.12051 -0.006,2.24108 -0.004,3.36163 -0.0757,1.12364 0.12485,2.20187 0.43975,3.27387 0.23283,0.66187 0.47802,1.31868 0.72591,1.97492 0.75027,1.98422 3.55638,0.92318 2.80611,-1.06103 v 0 c -0.22179,-0.58606 -0.43781,-1.17368 -0.65433,-1.76179 -0.23688,-0.80108 -0.39498,-1.58623 -0.31744,-2.43087 -0.002,-1.10693 -0.005,-2.21388 0.004,-3.32079 0.015,-1.261 0.0314,-2.5244 0.17683,-3.77867 0.14483,-1.09419 0.29584,-2.20564 0.6531,-3.2528 0.37521,-0.94044 0.78004,-1.86916 1.19108,-2.79353 0.83562,-1.94981 -1.92181,-3.13157 -2.75744,-1.18176 z" />
    <path
       style="fill:#ffffff;fill-opacity:1;fill-rule:nonzero;stroke:none;stroke-width:0.264583"
       id="path3640"
       d="m 139.74958,233.49843 c -0.93142,0.39037 -1.82688,0.99967 -2.29513,1.9275 -0.0953,0.18879 -0.1504,0.39528 -0.2256,0.59293 -0.26471,1.38516 0.40428,2.18693 1.58114,2.7488 1.12626,0.43901 1.98903,0.30478 3.09017,-0.15387 1.05379,-0.51243 1.72674,-1.40521 2.22624,-2.43306 0.35152,-0.87226 0.51465,-1.64637 -0.003,-2.54282 -0.15551,-0.2692 -0.44655,-0.43268 -0.66983,-0.64902 -1.69338,-1.2777 -3.50031,1.11709 -1.80694,2.39479 v 0 c -0.0368,-0.0756 -0.094,-0.14434 -0.11028,-0.22683 -0.18292,-0.92822 0.0441,-0.6734 -0.12759,-0.24627 -0.16036,0.3799 -0.36135,0.73354 -0.71578,0.9569 -0.10997,0.0553 -0.25252,0.0677 -0.33206,0.16171 -0.0132,0.0156 0.0614,0.0415 0.0413,0.0453 -0.12401,0.0234 -0.26789,-0.0541 -0.39268,-0.0566 -0.0908,0.004 0.30209,0.69637 0.0946,0.85757 -0.0256,0.0312 -0.0367,0.0891 -0.0769,0.0937 -0.0305,0.004 0.0119,-0.0613 0.0271,-0.0879 0.16658,-0.29229 0.44745,-0.44592 0.74875,-0.57379 1.98626,-0.74485 0.93288,-3.55384 -1.05337,-2.80899 z" />
    <circle
       id="path3642"
       style="fill:#ffffff;stroke:#ffffff;stroke-width:0.264583"
       cx="127.07935"
       cy="189.91772"
       r="0.028024828" />
    <circle
       id="path3644"
       style="fill:#ffffff;stroke:#ffffff;stroke-width:0.264583"
       cx="127.07935"
       cy="189.91772"
       r="0.028024828" />
    <path
       style="fill:#ffffff;stroke:none;stroke-width:1.06026"
       d="m 496.20391,811.45471 c -6.05812,-1.32023 -17.7326,-4.98104 -23.58122,-7.39444 -5.78039,-2.38527 -7.09132,-3.48672 -10.36869,-8.71182 -5.43591,-8.66644 -7.87542,-17.71327 -9.26283,-34.35083 -1.80458,-21.64013 0.50749,-41.15462 8.61891,-72.74597 3.38865,-13.19767 7.82048,-27.81273 9.84851,-32.47789 3.59561,-8.27114 3.77182,-8.47376 7.08434,-8.14591 2.08336,0.2062 4.76835,-0.51132 6.94321,-1.85546 4.56463,-2.8211 6.5666,-2.76324 9.44306,0.27292 1.28424,1.35553 3.15623,2.76665 4.15999,3.13583 2.89631,1.06526 9.19666,-1.66837 11.32584,-4.91412 l 1.9488,-2.97077 4.0393,7.23875 c 4.65289,8.33836 12.6692,19.73173 19.26708,27.38379 5.9519,6.90286 12.29323,19.19248 15.34939,29.74741 2.22283,7.67691 2.43861,10.53294 2.43861,32.27808 v 23.85595 l -5.672,16.96424 c -6.65329,19.89914 -9.34603,25.0629 -14.29388,27.4108 -9.08446,4.31087 -28.87516,7.1129 -37.28842,5.27944 z m -14.31358,-93.65547 c 0,-0.58314 -0.71567,-1.06026 -1.59039,-1.06026 -0.87472,0 -1.5904,0.47712 -1.5904,1.06026 0,0.58315 0.71568,1.06027 1.5904,1.06027 0.87472,0 1.59039,-0.47712 1.59039,-1.06027 z"
       id="path3683"
       transform="scale(0.26458333)" />
    <path
       style="fill:#ffffff;fill-opacity:1;fill-rule:nonzero;stroke:none;stroke-width:0.264583"
       id="path3792"
       d="m 130.31694,170.81839 c -0.0905,0.85223 -0.32255,1.69072 -0.42679,2.53949 -0.0155,0.12647 -0.0154,-0.29599 0.0866,-0.37228 0.3597,-0.26892 0.8056,-0.39726 1.2084,-0.59588 0.2221,0.0775 0.43334,0.19987 0.6663,0.23255 0.0432,0.006 -0.0493,-0.11802 -0.15133,-0.44197 -0.12252,-0.38883 -0.19038,-0.79827 -0.29067,-1.1932 -0.58851,-1.36709 -1.5213,-1.67724 -2.85216,-1.05776 -0.61224,0.28498 -1.02993,0.93806 -1.44768,1.43838 -0.0139,-0.002 -0.0278,-0.005 -0.0416,-0.007 0.31798,-0.11309 0.61658,-0.34857 0.95394,-0.33927 0.3057,0.008 0.55693,0.25305 0.83112,0.38848 0.0328,0.0162 0.0718,0.0983 0.0881,0.0656 0.0255,-0.0512 -0.008,-0.1181 -0.0373,-0.16751 -0.16936,-0.29036 -0.36832,-0.56241 -0.55248,-0.84361 -0.53546,-0.11059 -1.06267,-0.38947 -1.60638,-0.33178 -0.34799,0.0369 -0.59314,0.37443 -0.86556,0.59408 -0.10107,0.0815 -0.15902,0.20558 -0.24587,0.30207 -0.008,0.008 -0.0426,0.0137 -0.033,0.008 0.78206,-0.48781 0.38215,-0.35952 1.39392,-0.27764 0.83288,1.20148 0.43192,0.11717 0.32682,0.0715 -0.59294,-0.25766 -1.19775,-0.58389 -1.84402,-0.60103 -0.43113,-0.0114 -0.80299,0.64359 -1.01054,0.95196 -0.31015,0.68589 -0.5331,1.4197 -0.68806,2.15694 -0.16221,0.62407 -0.28661,1.25572 -0.4337,1.88311 -0.26405,0.68423 -0.34361,1.41421 -0.50461,2.12348 -0.15284,0.69664 -0.29017,1.39495 -0.44474,2.09131 -0.15343,0.75065 -0.41452,1.47452 -0.64142,2.20543 -0.23319,0.83226 -0.40246,1.68028 -0.52308,2.53569 -0.10184,0.69901 -0.28815,1.37475 -0.45547,2.05875 -0.11573,0.5984 -0.27656,1.18676 -0.45618,1.7687 -0.17257,0.74031 -0.4827,1.4363 -0.71593,2.1588 -0.24486,0.83886 -0.5013,1.66916 -0.64256,2.53289 -0.10127,0.80041 -0.11281,1.60817 -0.11893,2.41379 -0.002,0.64143 0.002,1.28285 0.003,1.92428 0.005,0.82881 -0.0208,1.65719 0.0406,2.48401 0.0633,1.0908 0.21423,2.16054 0.45379,3.22574 0.18714,0.77086 0.27772,1.55767 0.43203,2.33475 0.15436,0.78989 0.28404,1.58638 0.45821,2.3722 0.12797,0.7324 0.42204,1.41503 0.62786,2.12533 0.34096,1.20728 1.21525,2.13508 2.01475,3.0616 1.25703,1.23523 2.96398,1.79788 4.54334,2.49721 1.74392,0.68027 3.54711,1.19984 5.35142,1.69385 0.99836,0.25803 1.99744,0.47988 3.02264,0.59615 0.81851,0.0948 1.63293,0.0987 2.44931,-0.006 1.00551,-0.22079 1.95245,-0.55968 2.80942,-1.13218 0.48382,-0.32864 0.89118,-0.75233 1.23912,-1.22038 0.077,-0.10359 0.21098,-0.19004 0.21979,-0.31882 0.0401,-0.58592 -0.0517,-1.17343 -0.0776,-1.76015 -0.5263,-0.2078 -1.03088,-0.48253 -1.5789,-0.6234 -0.29106,-0.0748 -1.80915,0.4926 -2.19843,0.62856 -0.64115,0.20388 -1.31879,0.35311 -1.99451,0.32299 -0.62675,-0.53114 -1.1161,-1.49731 -1.51178,-2.20791 -1.13218,-2.1746 -2.18346,-4.39047 -3.1387,-6.64819 -0.83946,-1.95294 -1.62252,-3.92809 -2.39472,-5.90827 -0.486,-1.28052 -0.63175,-2.65091 -0.8082,-3.99979 -0.095,-1.23412 -0.3356,-2.44508 -0.57724,-3.6562 -0.13294,-0.6975 -0.18311,-1.40563 -0.20298,-2.11413 0.0224,-0.72585 0.23554,-1.40497 0.48889,-2.0779 0.51052,-1.29912 1.0962,-2.56878 1.58072,-3.87764 0.41294,-1.27573 0.82971,-2.54163 1.35577,-3.77592 0.47156,-1.1402 0.83098,-2.32281 1.18218,-3.50436 0.31297,-0.95534 0.70283,-1.88194 1.02778,-2.83308 0.13162,-0.42988 0.32843,-0.83437 0.49374,-1.25127 0.0859,-0.21655 0.11986,-0.46516 0.26678,-0.64594 0.0448,-0.0551 -0.0564,0.13034 -0.0846,0.1955 0.15826,0.52721 -1.31262,0.38462 -1.29032,0.44659 0.0698,0.19396 0.26537,0.31583 0.38865,0.48106 0.0783,0.10495 0.14385,0.21883 0.21578,0.32824 0.42866,0.66363 0.82255,1.34691 1.18229,2.04975 0.49532,0.87653 0.93099,1.63631 2.49108,1.05192 0.97456,-0.36506 0.76872,-1.68283 0.69808,-2.42124 -0.10804,-0.96569 -0.49836,-1.85228 -0.95465,-2.69845 -0.20313,-0.4641 -0.45357,-0.89926 -0.55953,-1.39836 -0.0139,-0.063 0.0217,-0.20128 -0.0416,-0.18903 -0.98324,0.19013 -1.99764,0.33938 -2.90686,0.75918 -0.16111,0.0744 0.10686,0.33863 0.16964,0.50462 0.16865,0.4459 0.3568,0.8862 0.52642,1.33236 0.39871,0.91331 0.80192,1.82235 1.13241,2.76317 0.27735,0.70866 0.53594,1.4105 0.89492,2.08308 0.33733,0.7205 0.84784,1.33259 1.37835,1.91715 0.38832,0.50581 0.94081,0.83382 1.39755,1.26906 0.49183,0.38846 0.8535,0.85054 1.2005,1.36324 0.41146,0.63557 0.73294,1.31871 1.07784,1.99057 0.38199,0.81003 0.81396,1.59867 1.14777,2.43043 0.2649,0.8528 0.6855,1.64418 1.01845,2.46964 0.24015,0.75672 0.42099,1.52909 0.6352,2.29313 0.25711,0.59644 0.38439,1.22207 0.52502,1.85048 0.14226,0.60982 0.21104,1.23185 0.24978,1.85571 0.0292,0.58991 0.0266,1.18077 0.0268,1.77123 -7.9e-4,0.74601 -0.002,1.49202 -0.003,2.23804 0.0143,0.65284 -0.0172,1.31293 -0.16967,1.95014 -0.13865,0.7296 -0.32312,1.44309 -0.51364,2.16034 -0.23606,0.81794 -0.5278,1.61592 -0.78017,2.4289 -0.25285,0.83298 -0.41242,1.69022 -0.6287,2.53215 -0.17829,0.72102 -0.39809,1.42797 -0.54368,2.15698 -0.16106,0.61366 -0.2414,1.24263 -0.42003,1.85069 -0.0637,0.14781 -0.13075,0.4196 -0.28631,0.51273 -0.0584,0.0349 -0.13877,0.0117 -0.19971,0.0419 -0.43679,0.21665 -0.84691,0.48379 -1.27891,0.70984 -0.55215,0.21115 -1.09718,0.54315 -1.69477,0.62234 -0.0394,0.005 -0.31782,-0.0191 -0.22375,-0.12617 -1.91028,-0.92241 -3.21476,1.77914 -1.30448,2.70155 v 0 c 0.23092,0.0934 0.45206,0.21614 0.69277,0.28028 1.3769,0.36689 2.70758,-0.26522 3.92956,-0.82435 1.45341,-0.77127 2.75632,-1.38696 3.24562,-3.07821 0.20178,-0.6957 0.31097,-1.40943 0.4838,-2.11262 0.12999,-0.67874 0.35275,-1.33224 0.50966,-2.00478 0.19521,-0.79078 0.35735,-1.59006 0.58409,-2.37307 0.26468,-0.85285 0.57235,-1.6902 0.81501,-2.55008 0.20141,-0.76291 0.39406,-1.52387 0.54667,-2.29812 0.17253,-0.84835 0.26804,-1.71102 0.23665,-2.57812 5.3e-4,-0.7471 0.002,-1.4942 0.003,-2.2413 -2e-4,-0.65375 0.002,-1.30796 -0.0328,-1.96102 -0.0509,-0.78366 -0.13998,-1.56491 -0.31855,-2.331 -0.15734,-0.67388 -0.28208,-1.35521 -0.56156,-1.99439 -0.24531,-0.87495 -0.44461,-1.76277 -0.74787,-2.62085 -0.34071,-0.82239 -0.74615,-1.61912 -1.01821,-2.46906 -0.37695,-0.90778 -0.8274,-1.782 -1.25636,-2.66598 -0.40143,-0.77808 -0.77844,-1.56872 -1.26226,-2.3014 -0.46947,-0.69154 -0.9859,-1.32465 -1.62755,-1.86442 -0.41234,-0.38498 -0.89133,-0.68665 -1.25082,-1.12101 -0.37106,-0.38622 -0.70846,-0.80468 -0.93459,-1.29322 -0.28751,-0.53867 -0.48592,-1.10183 -0.7128,-1.66961 -0.34126,-0.9619 -0.73905,-1.89932 -1.15696,-2.83013 -0.76256,-2.00575 -0.30111,-1.67942 -3.52261,-0.88219 -0.0778,0.0193 0.0348,0.15651 0.0521,0.23476 0.18941,0.76119 0.50567,1.46273 0.85618,2.16241 0.2835,0.47516 0.50162,0.98737 0.59101,1.53322 0.12757,1.26323 -0.0903,-0.31067 0.78066,-0.46524 1.82722,-0.32427 2.2384,1.13622 1.68624,0.17494 -0.41774,-0.81565 -0.87687,-1.60836 -1.37685,-2.3768 -0.71535,-1.02194 -1.60979,-2.28541 -3.06939,-2.073 -0.35515,0.0517 -0.63392,0.33666 -0.95088,0.50499 -0.13708,0.18622 -0.29022,0.36162 -0.41124,0.55866 -0.115,0.18725 -0.22829,0.53835 -0.31244,0.75054 -0.18984,0.47864 -0.41148,0.94514 -0.56392,1.43816 -0.32974,0.98954 -0.75344,1.94472 -1.06226,2.94184 -0.31638,1.07272 -0.6437,2.14574 -1.06637,3.18216 -0.54396,1.28136 -0.98891,2.59166 -1.41165,3.91709 -0.47392,1.30776 -1.07841,2.56657 -1.57633,3.86578 -0.38137,1.03684 -0.67562,2.09573 -0.67543,3.21089 0.0267,0.876 0.0923,1.75134 0.25972,2.6132 0.22887,1.14616 0.45852,2.29117 0.54478,3.4598 0.20952,1.58823 0.40126,3.19566 0.98764,4.69895 0.78275,2.00715 1.577,4.00903 2.42745,5.98875 1.00158,2.36037 2.0973,4.67997 3.28781,6.95133 0.80705,1.41709 1.70072,3.06709 3.36161,3.60353 0.23698,0.0765 0.4904,0.0871 0.7356,0.13066 1.02744,-0.007 2.04745,-0.14997 3.02058,-0.49385 0.36098,-0.12924 0.73009,-0.23043 1.09131,-0.35882 0.0535,-0.019 0.10357,-0.047 0.15748,-0.0648 0.0537,-0.0177 0.20972,-0.008 0.16446,-0.0415 -0.34157,-0.25573 -0.73216,-0.43842 -1.09825,-0.65763 0.0534,-2.47705 0.29704,-1.55933 -0.60229,-0.89419 -0.49026,0.34246 -0.94583,0.45339 -1.51607,0.63999 -0.575,0.0785 -1.14698,0.0638 -1.72521,-0.001 -0.87101,-0.095 -1.71536,-0.29319 -2.56408,-0.50845 -1.66034,-0.45313 -3.31834,-0.93269 -4.92819,-1.54329 -1.17828,-0.52142 -2.44443,-0.94274 -3.48652,-1.71403 -0.51829,-0.60047 -1.1507,-1.18364 -1.40774,-1.94781 -0.19338,-0.6508 -0.45934,-1.27615 -0.58127,-1.94676 -0.18072,-0.75432 -0.28299,-1.52925 -0.44042,-2.28884 -0.15926,-0.80191 -0.25009,-1.61506 -0.44797,-2.41 -0.21034,-0.93102 -0.33916,-1.86349 -0.391,-2.81817 -0.0768,-0.74176 -0.002,-1.49301 -0.03,-2.23745 -0.001,-0.63216 -0.004,-1.26432 -0.003,-1.89647 0.005,-0.65744 0.0119,-1.3163 0.0827,-1.97063 0.10437,-0.71408 0.35191,-1.39039 0.53673,-2.08581 0.23057,-0.73296 0.55523,-1.43545 0.72467,-2.18665 0.19804,-0.6417 0.3752,-1.29107 0.50598,-1.95004 0.18429,-0.78016 0.39829,-1.55177 0.51039,-2.34813 0.0954,-0.69547 0.23496,-1.38353 0.41731,-2.06156 0.25076,-0.81051 0.53697,-1.6138 0.70532,-2.4467 0.15384,-0.69981 0.29299,-1.40167 0.44695,-2.10137 0.14736,-0.69733 0.24428,-1.40451 0.49417,-2.07717 0.15367,-0.65906 0.28735,-1.32161 0.45422,-1.97771 0.0744,-0.41531 0.24434,-0.80149 0.32551,-1.21317 -0.16164,0.13106 -0.44878,0.3695 -0.58034,0.3483 -0.13304,-0.0214 -2.35083,-1.36247 -1.55422,-0.37542 0.21361,0.26467 0.47021,0.49153 0.70531,0.7373 1.17193,0.22833 1.00533,0.41694 2.02912,-0.19247 0.13686,-0.0815 0.22925,-0.22137 0.33787,-0.33784 0.0338,-0.0362 0.13599,-0.13341 0.0885,-0.11934 -0.19388,0.0575 -0.34857,0.27444 -0.54994,0.25607 -0.44413,-0.0405 -0.84638,-0.28142 -1.26957,-0.42212 -0.0846,-0.18375 -0.10732,-0.41176 -0.25384,-0.55124 -0.1045,-0.0995 0.0622,0.28287 0.11356,0.41769 0.0902,0.23668 0.13452,0.51105 0.30995,0.69373 1.03309,1.07578 1.91431,1.15728 2.99063,0.12162 0.1062,-0.12732 0.21716,-0.25081 0.3186,-0.38196 0.0501,-0.0648 0.0921,-0.13563 0.13548,-0.20513 0.0207,-0.0332 0.0949,-0.0935 0.0569,-0.1028 -0.55226,-0.1344 -1.20445,0.35167 -1.42067,-0.86869 0.19682,0.76045 0.48837,2.28849 1.05651,2.82694 0.33554,0.31799 0.75911,0.52781 1.13866,0.79172 0.54911,-0.17457 1.16677,-0.20583 1.64733,-0.52371 0.66597,-0.44053 0.73246,-2.58877 0.89977,-3.35708 0.46018,-2.07081 -2.46839,-2.7216 -2.92857,-0.65079 z" />
    <path
       style="fill:#ffffff;fill-opacity:1;fill-rule:nonzero;stroke:none;stroke-width:0.264583"
       id="path3907"
       d="m 98.584794,38.349994 c 0.112112,-0.980202 0.182406,-1.964473 0.225584,-2.949927 0.03252,-0.911656 0.03346,-1.823995 0.03484,-2.736104 -0.04466,-0.83257 -0.179835,-1.6554 -0.234286,-2.487194 -0.0429,-0.837721 -0.04596,-1.676773 -0.04927,-2.515378 -0.0016,-0.843667 -2.64e-4,-1.687339 2.65e-4,-2.531008 0.0214,-0.894816 -0.123431,-1.781526 -0.209497,-2.669781 -0.05736,-0.612469 -0.06368,-1.22798 -0.06972,-1.842613 -0.0039,-0.632048 -0.0021,-1.264113 -0.0016,-1.896168 0.0149,-0.651213 -0.03055,-1.304927 0.03004,-1.954013 0.08127,-0.955088 0.28053,-1.895236 0.472736,-2.832785 0.135666,-0.841151 0.336019,-1.668828 0.473009,-2.509723 0.338053,-2.0942151 -2.623613,-2.572292 -2.961666,-0.478077 v 0 c -0.127572,0.799589 -0.324723,1.585412 -0.450255,2.385452 -0.216932,1.058736 -0.436094,2.12126 -0.52461,3.200133 -0.05107,0.728073 -0.03982,1.456318 -0.03926,2.186018 -5.29e-4,0.642974 -0.0024,1.285959 0.0019,1.928926 0.007,0.701669 0.0168,1.404207 0.08366,2.103273 0.0772,0.791035 0.209812,1.580809 0.195406,2.377213 -5.3e-4,0.848354 -0.0019,1.69671 -2.65e-4,2.545062 0.0036,0.901438 0.0075,1.803378 0.05594,2.703766 0.05201,0.763603 0.153649,1.520907 0.227595,2.282389 -0.0013,0.870206 -0.0019,1.74063 -0.03201,2.610434 -0.03891,0.904627 -0.103931,1.808073 -0.205243,2.707997 -0.263117,2.104943 2.713721,2.477048 2.976838,0.372108 z" />
    <path
       style="fill:#ffffff;fill-opacity:1;fill-rule:nonzero;stroke:none;stroke-width:0.264583"
       id="path3909"
       d="m 98.320277,11.460278 c 0.275838,-1.5078271 0.467968,-3.0271394 0.68217,-4.5440372 0.202797,-1.3533988 0.316539,-2.717061 0.372403,-4.0837305 0.0331,-1.1007214 0.03419,-2.20203876 0.03382,-3.30315041 -1.96e-4,-0.13369137 -2.65e-4,-0.26738276 -5.3e-4,-0.40107412 -0.0031,-2.12132117 -3.00311,-2.11692277 -2.999999,0.004398 v 0 c 1.93e-4,0.13256967 2.65e-4,0.26513933 5.29e-4,0.39770899 2.65e-4,1.0604202 -5.29e-4,2.12102984 -0.03138,3.18109774 -0.05046,1.267384 -0.157331,2.5318045 -0.345582,3.7867648 -0.204756,1.4601065 -0.390033,2.9221316 -0.653172,4.3736737 -0.416026,2.080128 2.52572,2.668478 2.941746,0.588349 z" />
  </g>
</svg>
