<svg id="svg" xmlns="http://www.w3.org/2000/svg" xmlns:xlink="http://www.w3.org/1999/xlink" width="400" height="400" viewBox="0, 0, 400,400"><g id="svgg"><path id="path0" d="M187.500 1.303 C 187.500 2.020,187.878 4.774,188.339 7.424 C 188.959 10.985,188.929 14.160,188.223 19.597 C 187.055 28.590,186.960 31.393,187.665 35.994 L 188.213 39.566 177.919 42.489 C 131.979 55.533,92.655 82.126,70.349 115.234 C 4.138 213.510,75.242 331.899,200.268 331.550 L 216.551 331.504 216.169 333.526 C 215.959 334.637,215.337 338.548,214.787 342.215 L 213.786 348.883 209.618 347.476 C 198.506 343.724,193.576 355.748,204.132 360.857 C 214.879 366.060,221.770 362.162,222.737 350.332 C 223.085 346.067,223.913 339.823,224.576 336.455 C 225.239 333.087,225.781 330.218,225.781 330.080 C 225.781 329.942,228.330 329.419,231.445 328.918 C 246.845 326.443,268.257 319.847,285.035 312.410 C 289.910 310.250,293.976 308.595,294.071 308.733 C 295.138 310.283,297.195 335.551,296.858 342.969 C 296.634 347.910,296.751 352.598,297.117 353.387 C 299.049 357.549,315.467 359.698,319.622 356.333 C 325.613 351.483,318.635 341.601,309.723 342.315 L 306.439 342.578 305.885 332.842 C 305.580 327.487,304.834 320.513,304.228 317.344 C 303.621 314.174,303.133 309.767,303.144 307.548 L 303.162 303.516 310.106 299.723 C 313.925 297.637,321.387 293.110,326.689 289.663 C 331.990 286.215,337.734 282.903,339.453 282.302 C 347.897 279.349,346.427 267.426,337.281 264.686 L 334.174 263.755 334.813 258.245 C 335.979 248.173,335.540 243.897,332.038 231.216 C 330.203 224.575,328.210 216.855,327.609 214.063 C 326.121 207.152,320.587 192.992,318.499 190.753 C 313.147 185.012,294.315 174.535,290.663 175.266 C 288.887 175.621,288.313 175.188,286.366 172.018 C 285.129 170.006,283.153 167.305,281.975 166.016 C 278.828 162.575,276.316 157.813,277.647 157.813 C 279.699 157.813,290.287 150.180,294.552 145.626 C 332.519 105.088,290.799 41.397,238.249 59.672 C 194.266 74.967,191.796 139.558,234.500 157.695 C 238.749 159.499,238.966 162.400,235.630 172.811 L 233.203 180.387 228.125 181.546 C 222.416 182.848,212.074 184.138,202.734 184.712 C 184.774 185.817,175.640 196.515,170.304 222.698 C 168.044 233.789,168.756 248.078,171.858 253.874 C 172.432 254.948,171.957 255.332,169.109 256.093 C 160.988 258.265,159.723 269.629,167.177 273.432 C 182.882 281.444,197.559 272.039,186.328 261.161 C 183.965 258.872,182.031 256.574,182.031 256.054 C 182.031 255.534,181.361 253.344,180.542 251.187 C 173.378 232.318,180.954 201.862,194.531 194.949 C 195.605 194.403,200.352 193.712,205.078 193.415 C 214.244 192.838,228.446 191.052,230.680 190.195 C 231.423 189.910,232.035 189.978,232.040 190.346 C 232.053 191.249,228.233 202.878,226.872 206.081 C 226.272 207.492,225.781 209.347,225.781 210.202 C 225.781 211.663,225.128 213.653,220.989 224.805 C 218.601 231.237,217.116 238.509,216.721 245.703 C 216.532 249.141,216.050 253.359,215.649 255.078 C 213.959 262.329,222.400 281.178,229.761 286.592 L 232.717 288.766 231.007 290.880 L 229.297 292.994 219.531 291.835 C 170.526 286.019,136.778 266.749,117.782 233.737 C 83.641 174.404,116.413 106.818,205.276 53.297 C 218.049 45.605,243.096 32.813,245.386 32.813 C 246.345 32.812,246.864 32.414,246.659 31.836 C 246.468 31.299,245.648 30.913,244.836 30.978 C 230.688 32.113,205.431 35.522,198.755 37.198 C 196.206 37.837,195.688 34.113,196.822 23.288 C 197.349 18.254,197.507 11.521,197.197 7.296 L 196.661 0.000 192.080 0.000 C 188.325 0.000,187.500 0.235,187.500 1.303 M268.022 68.434 C 314.683 82.139,305.160 152.344,256.641 152.344 C 218.593 152.344,198.780 105.994,225.434 79.340 C 236.025 68.749,253.692 64.225,268.022 68.434 M301.873 189.437 C 311.078 194.585,317.334 204.436,319.089 216.546 C 319.318 218.127,321.129 225.158,323.114 232.171 L 326.723 244.922 326.164 255.433 C 325.617 265.698,325.551 265.994,323.349 268.052 C 319.813 271.355,321.727 279.443,326.671 282.089 C 329.283 283.487,327.656 284.086,314.453 286.587 C 297.644 289.771,297.774 289.755,296.891 288.692 C 296.145 287.792,306.402 280.469,308.408 280.469 C 316.308 280.469,319.750 254.806,315.193 229.882 C 313.306 219.563,311.966 215.617,306.706 204.889 C 305.181 201.777,303.450 198.086,302.861 196.686 C 302.272 195.286,300.511 192.471,298.947 190.430 C 295.549 185.994,295.653 185.959,301.873 189.437 M285.742 291.164 C 284.990 291.360,283.760 291.360,283.008 291.164 C 282.256 290.967,282.871 290.806,284.375 290.806 C 285.879 290.806,286.494 290.967,285.742 291.164 M247.591 293.463 C 248.375 294.154,243.241 293.646,242.188 292.928 C 241.348 292.356,241.902 292.278,244.141 292.653 C 245.859 292.941,247.412 293.305,247.591 293.463 " stroke="none" fill="#000000" fill-rule="evenodd"></path></g></svg>